<svg width="50" height="50" viewBox="0 0 50 50" fill="none" xmlns="http://www.w3.org/2000/svg">
  <path d="M40.9091 46.0227H38.7305L40.9024 31.9047C40.9149 31.8237 40.9097 31.741 40.8872 31.6622C40.8648 31.5835 40.8255 31.5105 40.7722 31.4483C40.7188 31.3861 40.6527 31.3362 40.5782 31.3019C40.5038 31.2677 40.4228 31.25 40.3409 31.25H36.3636V26.0515C36.3599 25.1424 36.0465 24.2617 35.4749 23.5546C34.9034 22.8476 34.1079 22.3566 33.2198 22.1624L28.4091 21.1315V19.3072C29.1139 18.7797 29.6862 18.0953 30.0807 17.3083C30.4752 16.5212 30.681 15.6531 30.6818 14.7727V8.56653L32.9545 7.65744V13.6364C32.9545 13.7871 33.0144 13.9316 33.121 14.0381C33.2275 14.1447 33.372 14.2045 33.5227 14.2045C33.6734 14.2045 33.8179 14.1447 33.9245 14.0381C34.031 13.9316 34.0909 13.7871 34.0909 13.6364V6.81818C34.0877 6.70535 34.0523 6.59579 33.9891 6.50233C33.9258 6.40887 33.8371 6.33539 33.7336 6.29051L25.2108 2.88142C25.0755 2.82704 24.9245 2.82704 24.7891 2.88142L16.2664 6.29051C16.1609 6.33264 16.0704 6.40544 16.0067 6.4995C15.943 6.59356 15.9089 6.70457 15.9089 6.81818C15.9089 6.9318 15.943 7.0428 16.0067 7.13686C16.0704 7.23092 16.1609 7.30372 16.2664 7.34585L19.3182 8.56653V14.7727C19.319 15.6531 19.5248 16.5212 19.9193 17.3083C20.3138 18.0953 20.8861 18.7797 21.5909 19.3072V21.1315L16.7802 22.1624C15.8921 22.3566 15.0966 22.8476 14.5251 23.5546C13.9535 24.2617 13.6401 25.1424 13.6364 26.0515V31.25H9.65908C9.57715 31.25 9.49619 31.2677 9.42176 31.3019C9.34732 31.3362 9.28116 31.3861 9.22782 31.4483C9.17448 31.5105 9.13522 31.5835 9.11274 31.6622C9.09025 31.741 9.08507 31.8237 9.09755 31.9047L11.2695 46.0227H9.0909C8.94021 46.0227 8.79569 46.0826 8.68914 46.1891C8.58258 46.2957 8.52272 46.4402 8.52272 46.5909C8.52272 46.7416 8.58258 46.8861 8.68914 46.9927C8.79569 47.0992 8.94021 47.1591 9.0909 47.1591H40.9091C41.0598 47.1591 41.2043 47.0992 41.3109 46.9927C41.4174 46.8861 41.4773 46.7416 41.4773 46.5909C41.4773 46.4402 41.4174 46.2957 41.3109 46.1891C41.2043 46.0826 41.0598 46.0227 40.9091 46.0227ZM35.2273 26.0515V31.25H31.8182V28.4091C31.8182 28.2584 31.7583 28.1139 31.6518 28.0073C31.5452 27.9008 31.4007 27.8409 31.25 27.8409C31.0993 27.8409 30.9548 27.9008 30.8482 28.0073C30.7417 28.1139 30.6818 28.2584 30.6818 28.4091V31.25H25.5682V26.4581L31.43 22.941L32.9811 23.2734C33.6156 23.412 34.1839 23.7628 34.5923 24.2678C35.0006 24.7729 35.2246 25.402 35.2273 26.0515ZM28.4091 12.3167L29.5455 11.8622V14.1074C29.2134 13.9894 28.9259 13.7716 28.7224 13.4839C28.519 13.1961 28.4095 12.8524 28.4091 12.5V12.3167ZM25 4.02125L31.9929 6.81818L25 9.61528L18.007 6.81818L25 4.02125ZM24.7891 10.7551C24.9245 10.8095 25.0755 10.8095 25.2108 10.7551L29.5455 9.02108V10.6382L27.6301 11.4041L27.6294 11.4045L25 12.4562L22.3706 11.4045L22.3699 11.4041L20.4545 10.6382V9.02108L24.7891 10.7551ZM20.4545 11.8622L21.5909 12.3168V12.5C21.5905 12.8524 21.481 13.1961 21.2776 13.4839C21.0741 13.7717 20.7866 13.9895 20.4545 14.1074V11.8622ZM20.4839 15.2751C21.0727 15.1459 21.605 14.8325 22.0036 14.3804C22.4022 13.9283 22.6465 13.3609 22.7009 12.7606L24.7891 13.5959C24.9245 13.6502 25.0755 13.6502 25.2108 13.5959L27.2991 12.7606C27.3535 13.3609 27.5977 13.9283 27.9964 14.3804C28.395 14.8325 28.9273 15.1459 29.5161 15.2751C29.3928 16.3867 28.864 17.4138 28.0307 18.1597C27.1975 18.9057 26.1184 19.3182 25 19.3182C23.8816 19.3182 22.8025 18.9057 21.9693 18.1597C21.136 17.4138 20.6072 16.3867 20.4839 15.2751ZM25 20.4545C25.7825 20.4546 26.5565 20.2918 27.2727 19.9768V21.2692L25 22.6328L22.7273 21.2692V19.9768C23.4435 20.2918 24.2175 20.4545 25 20.4545ZM22.0588 22.1932L24.7076 23.7824C24.7959 23.8354 24.897 23.8634 25 23.8634C25.103 23.8634 25.2041 23.8354 25.2924 23.7824L27.9412 22.1932L29.8025 22.592L25 25.4739L20.1975 22.5922L22.0588 22.1932ZM14.7727 26.0515C14.7753 25.402 14.9993 24.7728 15.4076 24.2677C15.816 23.7626 16.3843 23.4117 17.0188 23.2731L18.5699 22.9407L24.4318 26.4581V31.25H19.3182V28.4091C19.3182 28.2584 19.2583 28.1139 19.1518 28.0073C19.0452 27.9008 18.9007 27.8409 18.75 27.8409C18.5993 27.8409 18.4548 27.9008 18.3482 28.0073C18.2417 28.1139 18.1818 28.2584 18.1818 28.4091V31.25H14.7727V26.0515ZM12.4195 46.0227L10.3216 32.3864H39.6784L37.5805 46.0227H12.4195Z" fill="#43B6CD" />
  <path d="M25 36.3636C24.4381 36.3636 23.8889 36.5303 23.4217 36.8424C22.9545 37.1546 22.5904 37.5983 22.3753 38.1174C22.1603 38.6365 22.1041 39.2077 22.2137 39.7588C22.3233 40.3099 22.5939 40.8161 22.9912 41.2134C23.3885 41.6107 23.8947 41.8812 24.4458 41.9909C24.9968 42.1005 25.5681 42.0442 26.0872 41.8292C26.6063 41.6142 27.05 41.2501 27.3621 40.7829C27.6743 40.3157 27.8409 39.7664 27.8409 39.2045C27.84 38.4514 27.5404 37.7293 27.0078 37.1967C26.4753 36.6641 25.7532 36.3645 25 36.3636ZM25 40.9091C24.6629 40.9091 24.3333 40.8091 24.053 40.6218C23.7727 40.4345 23.5542 40.1683 23.4252 39.8568C23.2962 39.5454 23.2624 39.2027 23.3282 38.872C23.394 38.5414 23.5563 38.2376 23.7947 37.9992C24.0331 37.7609 24.3368 37.5985 24.6675 37.5328C24.9981 37.467 25.3408 37.5007 25.6523 37.6298C25.9638 37.7588 26.23 37.9772 26.4173 38.2576C26.6046 38.5379 26.7045 38.8674 26.7045 39.2045C26.704 39.6565 26.5243 40.0897 26.2047 40.4093C25.8852 40.7288 25.4519 40.9086 25 40.9091Z" fill="#43B6CD" />
</svg>