<svg width="34" height="40" viewBox="0 0 34 40" fill="none" xmlns="http://www.w3.org/2000/svg">
  <path d="M33.6164 14.7872C32.5445 7.92875 27.3173 2.41962 20.4086 0.881383C13.7872 -0.591316 6.78531 2.28469 2.90958 8.06368C-1.03994 13.9583 -0.970034 21.2987 3.12705 27.0237C7.30569 32.8605 9.03385 33.6007 15.7096 39.1099C16.8824 39.931 17.0999 39.931 18.1989 39.0752C21.5348 36.2724 23.7096 34.6648 25.6669 32.8567L27.5931 34.6763L27.7251 24.5564L17.9271 25.5394L19.8999 27.4054C19.2513 27.9297 18.5135 28.5234 17.628 29.2675C17.0183 29.7417 16.8979 29.7417 16.2494 29.2867C12.5523 26.2372 11.5931 25.8286 9.27851 22.5979C7.01055 19.4289 6.96783 15.3655 9.15812 12.104C11.3057 8.90412 15.1853 7.31191 18.8513 8.12922C22.6766 8.98123 25.5737 12.0307 26.1678 15.8243C26.2455 16.3139 26.3115 16.8073 26.296 17.3047C26.2649 19.2284 25.7173 20.9903 24.5834 22.5632C24.5135 22.6596 24.4436 22.756 24.3775 22.8485L29.0843 22.3358L29.0028 29.279C29.5581 28.5928 30.1329 27.8333 30.7542 26.9697C32.797 24.1246 33.7911 20.944 33.8455 17.4627C33.8688 16.5606 33.7523 15.6739 33.6125 14.7872" fill="#43B6CD" />
</svg>