<svg width="39" height="38" viewBox="0 0 39 38" fill="none" xmlns="http://www.w3.org/2000/svg">
<g filter="url(#filter0_b_150_4120)">
<path d="M0.5 19C0.5 8.50659 9.00659 0 19.5 0C29.9934 0 38.5 8.50659 38.5 19C38.5 29.4934 29.9934 38 19.5 38C9.00659 38 0.5 29.4934 0.5 19Z" fill="url(#paint0_linear_150_4120)" fill-opacity="0.1"/>
<path d="M1 19C1 8.78273 9.28273 0.5 19.5 0.5C29.7173 0.5 38 8.78273 38 19C38 29.2173 29.7173 37.5 19.5 37.5C9.28273 37.5 1 29.2173 1 19Z" stroke="white"/>
</g>
<path fill-rule="evenodd" clip-rule="evenodd" d="M12.7918 10.7322C13.9151 9.61538 15.7648 9.81383 16.7053 11.071L17.8702 12.6253C18.6362 13.648 18.5679 15.0768 17.6588 15.9804L17.4391 16.2C17.4142 16.2923 17.4117 16.3891 17.4317 16.4825C17.4899 16.8591 17.8046 17.6565 19.1227 18.9672C20.4407 20.2778 21.2437 20.5917 21.6258 20.6507C21.7221 20.6701 21.8216 20.6673 21.9166 20.6424L22.2932 20.2677C23.1017 19.4647 24.3422 19.3142 25.3427 19.8579L27.1057 20.8178C28.6166 21.6374 28.9978 23.6902 27.761 24.9205L26.4494 26.2238C26.0359 26.6345 25.4803 26.977 24.8028 27.0406C23.1322 27.1966 19.2399 26.9973 15.1482 22.9296C11.3298 19.1324 10.5969 15.8207 10.5037 14.1888C10.4576 13.3637 10.8471 12.6659 11.3436 12.173L12.7918 10.7322ZM15.5977 11.9007C15.1298 11.2759 14.2585 11.226 13.7674 11.7143L12.3183 13.1542C12.0137 13.4569 11.8679 13.791 11.8864 14.1104C11.9602 15.4072 12.5509 18.3949 16.1248 21.9485C19.874 25.6755 23.3361 25.7872 24.6745 25.6617C24.9477 25.6368 25.2191 25.4946 25.4729 25.2427L26.7835 23.9385C27.317 23.4087 27.1998 22.4432 26.4448 22.0334L24.6819 21.0744C24.1945 20.8104 23.6241 20.8972 23.2697 21.2498L22.8497 21.6679L22.3605 21.1768C22.8497 21.6679 22.8488 21.6688 22.8479 21.6688L22.847 21.6707L22.8442 21.6734L22.8377 21.679L22.8239 21.6919C22.7849 21.728 22.7429 21.7608 22.6984 21.7897C22.6245 21.8386 22.5267 21.8931 22.4039 21.9383C22.1547 22.0315 21.8243 22.0814 21.4163 22.0186C20.6161 21.8959 19.5556 21.3504 18.1461 19.9493C16.7376 18.5482 16.1875 17.4941 16.0639 16.6948C16.0002 16.2868 16.0509 15.9564 16.1451 15.7072C16.1969 15.5669 16.2711 15.436 16.3647 15.3195L16.3943 15.2872L16.4072 15.2734L16.4127 15.2678L16.4155 15.265L16.4174 15.2632L16.6832 14.9992C17.0782 14.6051 17.1336 13.9525 16.7616 13.4551L15.5977 11.9007Z" fill="white"/>
<defs>
<filter id="filter0_b_150_4120" x="-29.5" y="-30" width="98" height="98" filterUnits="userSpaceOnUse" color-interpolation-filters="sRGB">
<feFlood flood-opacity="0" result="BackgroundImageFix"/>
<feGaussianBlur in="BackgroundImageFix" stdDeviation="15"/>
<feComposite in2="SourceAlpha" operator="in" result="effect1_backgroundBlur_150_4120"/>
<feBlend mode="normal" in="SourceGraphic" in2="effect1_backgroundBlur_150_4120" result="shape"/>
</filter>
<linearGradient id="paint0_linear_150_4120" x1="0.5" y1="-2.98344" x2="41.6709" y2="-2.32178" gradientUnits="userSpaceOnUse">
<stop stop-color="white"/>
<stop offset="0.307292" stop-color="white"/>
<stop offset="0.645833" stop-color="white"/>
<stop offset="1" stop-color="white"/>
</linearGradient>
</defs>
</svg>
