<svg width="95" height="95" viewBox="0 0 95 95" fill="none" xmlns="http://www.w3.org/2000/svg">
<g clip-path="url(#clip0_150_4059)">
<path d="M47.5 17.4163C48.0553 17.4161 48.6044 17.3006 49.1127 17.0771C49.621 16.8537 50.0774 16.527 50.4529 16.118C51.5911 14.9264 52.2335 13.3466 52.25 11.6989V9.49967C52.25 8.65982 51.9164 7.85437 51.3225 7.2605C50.7286 6.66664 49.9232 6.33301 49.0833 6.33301H45.9167C45.0768 6.33301 44.2714 6.66664 43.6775 7.2605C43.0836 7.85437 42.75 8.65982 42.75 9.49967V11.6989C42.7669 13.3475 43.4093 14.9281 44.5471 16.1212C44.9231 16.5294 45.3796 16.8553 45.8878 17.0782C46.3961 17.3011 46.945 17.4163 47.5 17.4163ZM45.9167 9.49967H49.0833V11.6989C49.0665 12.555 48.7213 13.3718 48.1191 13.9805C48.04 14.0656 47.9441 14.1334 47.8376 14.1798C47.7311 14.2262 47.6162 14.2502 47.5 14.2502C47.3838 14.2502 47.2689 14.2262 47.1624 14.1798C47.0559 14.1334 46.96 14.0656 46.8809 13.9805C46.2793 13.3714 45.9342 12.5548 45.9167 11.6989V9.49967Z" fill="#43B6CD"/>
<path d="M60.7319 57.0285L55.4167 53.0417V48.5007C57.6195 47.2288 59.4876 45.4505 60.8665 43.3131C62.2454 41.1756 63.0954 38.7405 63.346 36.2093C64.6035 35.8804 65.7294 35.1727 66.5708 34.182C67.4122 33.1914 67.9285 31.9658 68.0495 30.6717C68.1706 29.3776 67.8905 28.0775 67.2473 26.948C66.6042 25.8186 65.629 24.9143 64.4543 24.358C64.6385 23.928 64.7693 23.4771 64.8438 23.0153L68.1688 20.5184C69.1545 19.7796 69.9484 18.8152 70.4841 17.706C71.0198 16.5968 71.2816 15.3753 71.2475 14.144C71.2134 12.9127 70.8843 11.7076 70.288 10.6298C69.6917 9.55199 68.8455 8.63298 67.8205 7.94992L58.6878 1.86201C56.869 0.645545 54.7295 -0.00258792 52.5413 7.76611e-06H42.4587C40.2705 -0.00258792 38.131 0.645545 36.3122 1.86201L27.1795 7.94992C26.1545 8.63298 25.3083 9.55199 24.712 10.6298C24.1157 11.7076 23.7866 12.9127 23.7525 14.144C23.7184 15.3753 23.9802 16.5968 24.5159 17.706C25.0516 18.8152 25.8455 19.7796 26.8312 20.5184L30.1562 23.0153C30.2307 23.4771 30.3615 23.928 30.5457 24.358C29.4598 24.8695 28.5419 25.6795 27.8992 26.6934C27.2566 27.7072 26.9158 28.883 26.9167 30.0833C26.9098 31.4919 27.3813 32.8611 28.254 33.9667C29.1267 35.0724 30.3489 35.8491 31.7205 36.1697C31.9481 38.704 32.7811 41.1466 34.1494 43.2919C35.5177 45.4372 37.3813 47.2225 39.5833 48.4975V53.0417L34.2681 57.0285C30.1725 57.1748 26.2932 58.9034 23.4458 61.8509C20.5984 64.7984 19.0048 68.7351 19 72.8333V88.6667C19 90.3464 19.6673 91.9573 20.855 93.145C22.0427 94.3327 23.6536 95 25.3333 95H69.6667C71.3464 95 72.9573 94.3327 74.145 93.145C75.3327 91.9573 76 90.3464 76 88.6667V72.8333C75.9952 68.7351 74.4016 64.7984 71.5542 61.8509C68.7068 58.9034 64.8275 57.1748 60.7319 57.0285ZM53.8333 55.8125L57.8028 58.7892L53.8333 63.0167L49.8639 58.7892L53.8333 55.8125ZM26.9167 14.3577C26.9159 13.6111 27.0998 12.8758 27.4521 12.2175C27.8043 11.5592 28.3139 10.9982 28.9354 10.5846L38.0681 4.49667C39.3674 3.62789 40.8957 3.16495 42.4587 3.16667H52.5413C54.1043 3.16495 55.6326 3.62789 56.9319 4.49667L66.0646 10.5846C66.6679 10.987 67.1659 11.5282 67.5168 12.1629C67.8677 12.7975 68.0613 13.5071 68.0813 14.232C68.1013 14.9569 67.9472 15.6761 67.6318 16.3291C67.3164 16.9821 66.849 17.55 66.2688 17.9851L62.8061 20.5833H32.1939L28.7312 17.9851C28.1692 17.5616 27.7129 17.0137 27.3981 16.3844C27.0833 15.7551 26.9185 15.0614 26.9167 14.3577ZM61.2307 23.75C59.6252 26.2263 54.4223 28.5 47.5 28.5C40.5777 28.5 35.3748 26.2263 33.7693 23.75H61.2307ZM34.8761 35.9243C34.8108 35.2644 34.5407 34.6414 34.1038 34.1426C33.6669 33.6437 33.0849 33.294 32.4393 33.1423C31.7647 32.9598 31.1694 32.5593 30.7463 32.0031C30.3231 31.4469 30.0957 30.7664 30.0997 30.0676C30.1037 29.3687 30.3387 28.6908 30.7682 28.1395C31.1977 27.5882 31.7975 27.1944 32.4742 27.0196C35.4667 29.8189 41.0083 31.6667 47.5 31.6667C53.9917 31.6667 59.5333 29.8189 62.5258 27.0196C63.2041 27.1946 63.8051 27.5895 64.2349 28.1426C64.6648 28.6956 64.8991 29.3756 64.9013 30.076C64.9035 30.7764 64.6733 31.4578 64.247 32.0135C63.8206 32.5692 63.222 32.9679 62.5448 33.1471C61.9054 33.2987 61.329 33.6455 60.8955 34.1395C60.462 34.6334 60.1929 35.25 60.1255 35.9037C59.8694 39.0744 58.4296 42.0328 56.0923 44.1906C53.755 46.3485 50.6914 47.548 47.5103 47.5505C44.3292 47.5531 41.2636 46.3587 38.9228 44.2046C36.582 42.0506 35.1374 39.0946 34.8761 35.9243ZM47.5 50.6667C49.1127 50.6632 50.7151 50.4095 52.25 49.9146V53.0417L47.5 56.6042L42.75 53.0417V49.913C44.2846 50.4092 45.8872 50.6634 47.5 50.6667ZM41.1667 55.8125L45.1361 58.7892L41.1667 63.0167L37.1973 58.7892L41.1667 55.8125ZM22.1667 88.6667V72.8333C22.1709 69.59 23.419 66.4718 25.654 64.1213C27.8889 61.7709 30.9404 60.3674 34.1794 60.1999L39.368 65.7416C39.6023 65.985 39.8836 66.1782 40.1949 66.3096C40.5061 66.441 40.8408 66.5079 41.1787 66.5061C41.5165 66.5043 41.8505 66.434 42.1603 66.2993C42.4701 66.1646 42.7494 65.9684 42.9812 65.7226L45.9167 62.586V91.8333H33.25V83.9167C33.25 83.4967 33.0832 83.094 32.7863 82.7971C32.4893 82.5002 32.0866 82.3333 31.6667 82.3333C31.2467 82.3333 30.844 82.5002 30.5471 82.7971C30.2501 83.094 30.0833 83.4967 30.0833 83.9167V91.8333H25.3333C24.4935 91.8333 23.688 91.4997 23.0942 90.9058C22.5003 90.312 22.1667 89.5065 22.1667 88.6667ZM72.8333 88.6667C72.8333 89.5065 72.4997 90.312 71.9058 90.9058C71.312 91.4997 70.5065 91.8333 69.6667 91.8333H64.9167V83.9167C64.9167 83.4967 64.7499 83.094 64.4529 82.7971C64.156 82.5002 63.7533 82.3333 63.3333 82.3333C62.9134 82.3333 62.5107 82.5002 62.2137 82.7971C61.9168 83.094 61.75 83.4967 61.75 83.9167V91.8333H49.0833V62.586L52.0347 65.7353C52.269 65.9786 52.5503 66.1719 52.8616 66.3033C53.1728 66.4347 53.5075 66.5016 53.8453 66.4998C54.1832 66.498 54.5171 66.4277 54.827 66.293C55.1368 66.1583 55.4161 65.9621 55.6478 65.7163L60.8206 60.1999C64.0596 60.3674 67.1111 61.7709 69.346 64.1213C71.581 66.4718 72.8291 69.59 72.8333 72.8333V88.6667Z" fill="#43B6CD"/>
<path d="M66.8406 67.7299L65.9175 67.589L65.5074 66.7688C65.2365 66.2143 64.8156 65.7468 64.2925 65.4194C63.7694 65.0919 63.165 64.9175 62.5479 64.916C61.9307 64.9145 61.3255 65.086 60.8008 65.411C60.2762 65.7359 59.853 66.2014 59.5794 66.7546L59.163 67.589L58.2605 67.7267C57.6487 67.8126 57.0733 68.0685 56.5997 68.4653C56.1262 68.8621 55.7736 69.3839 55.582 69.9713C55.3905 70.5587 55.3677 71.188 55.5162 71.7877C55.6648 72.3874 55.9787 72.9333 56.4222 73.3634L57.0809 74.0062L56.9226 74.9182C56.8228 75.5261 56.8939 76.1498 57.1278 76.7197C57.3618 77.2896 57.7495 77.7833 58.2477 78.1457C58.7459 78.5081 59.335 78.7249 59.9492 78.7721C60.5635 78.8192 61.1788 78.6948 61.7264 78.4126L62.5498 77.9788L63.3731 78.4158C63.9211 78.696 64.5361 78.8186 65.1497 78.77C65.7632 78.7213 66.3512 78.5034 66.8482 78.1403C67.3452 77.7772 67.7317 77.2833 67.9646 76.7136C68.1975 76.1439 68.2677 75.5207 68.1674 74.9135L68.0091 74.0126L68.6725 73.365C69.1125 72.9341 69.4234 72.389 69.5703 71.7909C69.7172 71.1929 69.6943 70.5658 69.504 69.9801C69.3138 69.3944 68.9638 68.8735 68.4935 68.4759C68.0233 68.0784 67.4498 67.82 66.8406 67.7299ZM66.4622 71.0913L65.1955 72.3216C65.0124 72.5005 64.8753 72.7212 64.7962 72.9647C64.7171 73.2082 64.6981 73.4672 64.7411 73.7196L65.0324 75.436C65.0324 75.4692 65.0483 75.5294 64.8361 75.6086L63.2844 74.7821C63.0559 74.6609 62.8012 74.5975 62.5426 74.5975C62.284 74.5975 62.0293 74.6609 61.8008 74.7821L60.0972 75.5896C60.0735 75.5768 60.0544 75.557 60.0425 75.5328C60.0306 75.5087 60.0265 75.4815 60.0307 75.455L60.3378 73.7355C60.3831 73.4816 60.3656 73.2205 60.2869 72.9749C60.2083 72.7293 60.0709 72.5067 59.8866 72.3263L58.6294 71.0961L58.7118 70.857L60.4455 70.591C60.6956 70.5528 60.933 70.4553 61.1377 70.3065C61.3424 70.1578 61.5084 69.9621 61.6219 69.736L62.4057 68.1716H62.6622L63.4443 69.736C63.5576 69.9624 63.7236 70.1584 63.9283 70.3074C64.133 70.4565 64.3705 70.5542 64.6207 70.5926L66.3545 70.8586C66.3545 70.8586 66.4764 70.9551 66.4843 70.9567C66.4959 70.9785 66.5 71.0034 66.496 71.0278C66.492 71.0521 66.4801 71.0744 66.4622 71.0913Z" fill="#43B6CD"/>
<path d="M28.4998 71.2497H33.2498C33.6698 71.2497 34.0725 71.0829 34.3694 70.7859C34.6664 70.489 34.8332 70.0863 34.8332 69.6663C34.8332 69.2464 34.6664 68.8437 34.3694 68.5468C34.0725 68.2498 33.6698 68.083 33.2498 68.083H28.4998C28.0799 68.083 27.6772 68.2498 27.3803 68.5468C27.0833 68.8437 26.9165 69.2464 26.9165 69.6663C26.9165 70.0863 27.0833 70.489 27.3803 70.7859C27.6772 71.0829 28.0799 71.2497 28.4998 71.2497Z" fill="#43B6CD"/>
<path d="M33.2498 77.5837C33.6698 77.5837 34.0725 77.4168 34.3694 77.1199C34.6664 76.823 34.8332 76.4203 34.8332 76.0003C34.8332 75.5804 34.6664 75.1777 34.3694 74.8807C34.0725 74.5838 33.6698 74.417 33.2498 74.417H28.4998C28.0799 74.417 27.6772 74.5838 27.3803 74.8807C27.0833 75.1777 26.9165 75.5804 26.9165 76.0003C26.9165 76.4203 27.0833 76.823 27.3803 77.1199C27.6772 77.4168 28.0799 77.5837 28.4998 77.5837H33.2498Z" fill="#43B6CD"/>
</g>
<defs>
<clipPath id="clip0_150_4059">
<rect width="95" height="95" fill="white"/>
</clipPath>
</defs>
</svg>
