<svg width="95" height="95" viewBox="0 0 95 95" fill="none" xmlns="http://www.w3.org/2000/svg">
<rect x="5.63477" y="18.7881" width="85.1923" height="57.4231" rx="1.75" stroke="#43B6CD" stroke-width="2.5"/>
<path d="M16.0769 35.0761H80.3846C81.9967 35.0761 83.3077 33.7651 83.3077 32.153V26.3069C83.3077 24.6948 81.9967 23.3838 80.3846 23.3838H16.0769C14.4648 23.3838 13.1538 24.6948 13.1538 26.3069V32.153C13.1538 33.7651 14.4648 35.0761 16.0769 35.0761ZM16.0769 26.3069H80.3846L80.3875 32.153H16.0769V26.3069Z" fill="#43B6CD"/>
<path d="M33.6157 59.9231H32.6219C34.9443 58.3695 36.419 55.7884 36.5315 52.9647C37.464 52.1404 38.0003 50.9682 38.0003 49.6923C38.0003 48.4164 37.4669 47.2501 36.5388 46.4258V45.3077C36.5388 41.2782 32.6058 38 27.7696 38C22.9333 38 19.0003 41.2782 19.0003 45.3077V46.4258C18.0723 47.2501 17.5388 48.4193 17.5388 49.6923C17.5388 50.9653 18.0752 52.1404 19.0076 52.9647C19.1202 55.7884 20.5934 58.368 22.9173 59.9231H21.9234C19.9883 59.9231 18.1541 60.6802 16.7466 62.0686C15.3728 63.4629 14.6157 65.2972 14.6157 67.2308C14.6157 68.8428 15.9267 70.1538 17.5388 70.1538H38.0003C39.6124 70.1538 40.9234 68.8428 40.9234 67.2308C40.9234 63.2013 37.6452 59.9231 33.6157 59.9231ZM17.5388 67.2308C17.5388 66.0688 17.9963 64.9639 18.8133 64.1352C19.6566 63.3051 20.7615 62.8462 21.9234 62.8462H24.8465C25.6533 62.8462 26.308 62.1928 26.308 61.3846V59.3238C26.308 58.7451 25.9675 58.2218 25.4384 57.988C23.3031 57.0409 21.9234 54.9319 21.9234 52.6154V52.2208C21.9234 51.7019 21.6486 51.2196 21.1985 50.9595C20.7366 50.6891 20.4619 50.2155 20.4619 49.6923C20.4619 49.1691 20.7366 48.6941 21.1985 48.4252C21.6472 48.1635 21.9234 47.6827 21.9234 47.1638V45.3077C21.9234 42.8903 24.5454 40.9231 27.7696 40.9231C30.9937 40.9231 33.6157 42.8903 33.6157 45.3077V47.1638C33.6157 47.6827 33.8905 48.165 34.3406 48.4252C34.8025 48.6955 35.0773 49.1691 35.0773 49.6923C35.0773 50.2155 34.8025 50.6905 34.3406 50.9595C33.892 51.2211 33.6157 51.7019 33.6157 52.2208V52.6154C33.6157 54.9319 32.236 57.0395 30.1007 57.988C29.5716 58.2218 29.2311 58.7465 29.2311 59.3238V61.3846C29.2311 62.1928 29.8859 62.8462 30.6926 62.8462H33.6157C36.0331 62.8462 38.0003 64.8134 38.0003 67.2308H17.5388Z" fill="#43B6CD"/>
<path d="M78.9232 43.8457H46.7694C45.9626 43.8457 45.3078 44.499 45.3078 45.3072C45.3078 46.1155 45.9626 46.7688 46.7694 46.7688H78.9232C79.7314 46.7688 80.3848 46.1155 80.3848 45.3072C80.3848 44.499 79.7314 43.8457 78.9232 43.8457Z" fill="#43B6CD"/>
<path d="M68.6922 54.0762H46.7692C45.9624 54.0762 45.3076 54.7295 45.3076 55.5377C45.3076 56.3459 45.9624 56.9992 46.7692 56.9992H68.6922C69.5005 56.9992 70.1538 56.3459 70.1538 55.5377C70.1538 54.7295 69.5005 54.0762 68.6922 54.0762Z" fill="#43B6CD"/>
</svg>
