<svg width="170" height="170" viewBox="0 0 170 170" fill="none" xmlns="http://www.w3.org/2000/svg">
<path fill-rule="evenodd" clip-rule="evenodd" d="M76.075 37.1877C50.2562 53.7627 37.7187 70.8689 37.7187 99.4502C39.4187 98.9189 40.9062 98.9189 42.3937 98.9189C55.8875 98.9189 68.9562 108.056 68.9562 124.525C68.9562 141.631 58.0125 152.256 42.3937 152.256C22.2062 152.256 10.625 136.106 10.625 107.1C10.625 66.7252 29.2187 37.7189 63.9625 17.6377L76.075 37.1877ZM150.45 37.1877C124.631 53.7627 112.094 70.8689 112.094 99.4502C113.794 98.9189 115.281 98.9189 116.769 98.9189C130.262 98.9189 143.331 108.056 143.331 124.525C143.331 141.631 132.387 152.256 116.769 152.256C96.6875 152.256 85.1062 136.106 85.1062 107.1C85.1062 66.7252 103.7 37.7189 138.444 17.6377L150.556 37.1877H150.45Z" fill="#43B6CD" fill-opacity="0.1"/>
</svg>
