<svg width="95" height="95" viewBox="0 0 95 95" fill="none" xmlns="http://www.w3.org/2000/svg">
<g clip-path="url(#clip0_150_4021)">
<path d="M47.5 0C38.1054 0 28.9218 2.78583 21.1104 8.00519C13.2991 13.2246 7.21091 20.643 3.61574 29.3225C0.0205811 38.002 -0.920078 47.5527 0.912721 56.7668C2.74552 65.9809 7.26946 74.4446 13.9125 81.0876C20.5554 87.7306 29.0191 92.2545 38.2332 94.0873C47.4473 95.9201 56.998 94.9794 65.6775 91.3843C74.357 87.7891 81.7755 81.7009 86.9948 73.8896C92.2142 66.0783 95 56.8946 95 47.5C94.9858 34.9066 89.9768 22.8331 81.0719 13.9282C72.167 5.02327 60.0934 0.0142483 47.5 0ZM47.5 91.8333C38.7317 91.8333 30.1603 89.2332 22.8697 84.3618C15.5792 79.4904 9.89685 72.5665 6.54136 64.4656C3.18588 56.3648 2.30793 47.4508 4.01854 38.851C5.72915 30.2512 9.95149 22.3517 16.1516 16.1516C22.3517 9.95147 30.2512 5.72913 38.851 4.01852C47.4508 2.30791 56.3648 3.18586 64.4657 6.54134C72.5665 9.89683 79.4904 15.5791 84.3619 22.8697C89.2333 30.1603 91.8334 38.7317 91.8334 47.5C91.82 59.2538 87.1448 70.5224 78.8336 78.8336C70.5224 87.1448 59.2538 91.8199 47.5 91.8333Z" fill="#43B6CD"/>
<path d="M47.4999 6.33308C38.7984 6.34034 30.3225 9.10156 23.2865 14.2211C16.2505 19.3407 11.0155 26.5559 8.33138 34.8331C8.15294 35.3846 8.11156 35.9712 8.21085 36.5423C8.31014 37.1134 8.5471 37.6517 8.90121 38.1106C9.25533 38.5695 9.71594 38.9352 10.2432 39.176C10.7704 39.4169 11.3484 39.5256 11.9271 39.4928C16.5639 39.2416 21.1316 38.2567 25.4599 36.5747C23.1995 42.4717 21.6873 48.6287 20.9585 54.9018C17.8568 53.5356 14.5546 52.6801 11.1798 52.3685C10.6211 52.3188 10.0585 52.4025 9.53854 52.6128C9.01853 52.8231 8.55594 53.154 8.18888 53.5782C7.81648 54.0061 7.55062 54.5161 7.41302 55.0665C7.27543 55.6169 7.27002 56.192 7.39722 56.7448C9.01228 63.6875 12.3957 70.0943 17.2187 75.3429C22.0416 80.5915 28.1402 84.5033 34.9219 86.6983C35.4578 86.8691 36.0263 86.9116 36.5816 86.8222C37.1369 86.7328 37.6634 86.5141 38.1186 86.1837C38.5745 85.8554 38.9453 85.4228 39.2 84.9221C39.4548 84.4214 39.5862 83.867 39.5832 83.3052V82.3331C39.5695 81.0116 39.4636 79.6926 39.2666 78.3858C41.9776 78.9233 44.7361 79.1848 47.4999 79.1664C50.2635 79.1852 53.022 78.9247 55.7332 78.389C55.5358 79.6947 55.4299 81.0126 55.4166 82.3331V83.3052C55.4136 83.867 55.545 84.4214 55.7997 84.9221C56.0545 85.4228 56.4253 85.8554 56.8811 86.1837C57.3361 86.5141 57.8623 86.7328 58.4173 86.8221C58.9724 86.9115 59.5407 86.8691 60.0763 86.6983C66.859 84.5039 72.9587 80.5921 77.7826 75.3432C82.6065 70.0943 85.9905 63.6867 87.6057 56.7432C87.7327 56.1904 87.7271 55.6153 87.5895 55.065C87.452 54.5147 87.1862 54.0047 86.8141 53.5766C86.4476 53.1522 85.9853 52.8213 85.4654 52.6112C84.9455 52.4011 84.3831 52.3179 83.8247 52.3685C80.4503 52.6794 77.1477 53.5299 74.0429 54.8876C73.3135 48.619 71.8007 42.4667 69.5399 36.5747C73.8697 38.2547 78.4383 39.238 83.0758 39.4881C83.1486 39.4881 83.2215 39.4881 83.2927 39.4881C83.8527 39.4849 84.404 39.35 84.9021 39.0942C85.4003 38.8384 85.8312 38.469 86.16 38.0157C86.4888 37.5625 86.7064 37.0382 86.7949 36.4853C86.8835 35.9324 86.8407 35.3664 86.67 34.8331C84.0059 26.5433 78.7758 19.315 71.735 14.1921C64.6941 9.06926 56.2072 6.31707 47.4999 6.33308ZM36.4166 83.3052C36.4183 83.367 36.4047 83.4282 36.3771 83.4834C36.3495 83.5387 36.3086 83.5862 36.2582 83.6219C36.2072 83.66 36.1478 83.6854 36.085 83.6958C36.0222 83.7063 35.9578 83.7016 35.8972 83.6821C29.6363 81.6566 24.0057 78.0464 19.552 73.2021C15.0984 68.3579 11.9732 62.4442 10.48 56.0355C10.4647 55.9698 10.4655 55.9014 10.4823 55.8361C10.4992 55.7707 10.5315 55.7104 10.5766 55.6602C10.6112 55.618 10.6546 55.584 10.7039 55.5604C10.7531 55.5369 10.807 55.5245 10.8616 55.5241H10.898C17.3207 56.1273 23.3535 58.8746 28.0249 63.3236C30.6496 65.7496 32.7486 68.6884 34.192 71.9581C35.6354 75.2279 36.3925 78.759 36.4166 82.3331V83.3052ZM84.1034 55.5257H84.1398C84.1941 55.5263 84.2476 55.5388 84.2966 55.5623C84.3456 55.5859 84.3888 55.6198 84.4232 55.6618C84.4683 55.712 84.5006 55.7723 84.5174 55.8376C84.5342 55.903 84.535 55.9714 84.5198 56.0371C83.0272 62.4455 79.9029 68.3592 75.4501 73.2037C70.9973 78.0481 65.3675 81.6589 59.1073 83.6852C59.0473 83.704 58.9837 83.7085 58.9217 83.6983C58.8596 83.6881 58.8008 83.6636 58.7499 83.6267C58.699 83.5898 58.6575 83.5415 58.6285 83.4857C58.5996 83.4299 58.5841 83.3681 58.5832 83.3052V82.3331C58.5832 68.5802 69.7932 56.805 84.1034 55.5257ZM56.4251 74.9563C53.5054 75.6763 50.5069 76.0268 47.4999 75.9997C44.4922 76.0264 41.493 75.6747 38.5731 74.9532C37.1244 69.628 34.2285 64.8084 30.2067 61.0293C28.3289 59.2497 26.2427 57.7037 23.9937 56.425C24.7323 48.9925 26.6138 41.7185 29.5718 34.86C35.3036 32.7129 41.3793 31.6306 47.4999 31.6664C53.6207 31.6305 59.6965 32.7134 65.428 34.8616C68.3825 41.71 70.2629 48.9732 71.0029 56.3949C67.4686 58.3741 64.3609 61.0331 61.859 64.2187C59.357 67.4044 57.5103 71.0537 56.4251 74.9563ZM83.5888 36.1837C83.5527 36.233 83.5047 36.2724 83.4494 36.2984C83.3941 36.3244 83.3331 36.3361 83.2721 36.3325C78.651 36.1082 74.1054 35.0717 69.8439 33.2703C62.8345 30.0648 55.2072 28.4363 47.4999 28.4997C39.7943 28.4364 32.1686 30.0644 25.1606 33.2687C20.8991 35.0705 16.3536 36.1076 11.7324 36.3325C11.6715 36.3342 11.611 36.3214 11.556 36.2953C11.501 36.2691 11.4529 36.2303 11.4157 36.1821C11.3738 36.1306 11.3455 36.0694 11.3333 36.0041C11.3211 35.9388 11.3255 35.8716 11.3461 35.8084C13.6562 28.6713 18.0272 22.3776 23.9082 17.7204C30.601 12.3636 38.9274 9.46225 47.4999 9.49974C55.5376 9.48518 63.372 12.0258 69.8714 16.7548C76.3709 21.4837 81.199 28.1562 83.6585 35.8084C83.6788 35.8718 83.6831 35.9393 83.671 36.0048C83.6588 36.0703 83.6306 36.1318 83.5888 36.1837Z" fill="#43B6CD"/>
<path d="M47.5002 34.833C44.9949 34.833 42.546 35.5759 40.4629 36.9677C38.3799 38.3596 36.7564 40.3378 35.7977 42.6523C34.839 44.9669 34.5881 47.5137 35.0769 49.9708C35.5656 52.4279 36.772 54.6849 38.5435 56.4564C40.3149 58.2278 42.5719 59.4342 45.029 59.923C47.4861 60.4117 50.033 60.1609 52.3475 59.2022C54.662 58.2434 56.6403 56.6199 58.0321 54.5369C59.424 52.4539 60.1668 50.0049 60.1668 47.4997C60.1631 44.1414 58.8273 40.9218 56.4527 38.5472C54.078 36.1725 50.8584 34.8368 47.5002 34.833ZM47.5002 56.9997C45.6212 56.9997 43.7845 56.4425 42.2223 55.3986C40.66 54.3548 39.4423 52.8711 38.7233 51.1352C38.0043 49.3993 37.8161 47.4891 38.1827 45.6463C38.5493 43.8035 39.4541 42.1108 40.7827 40.7822C42.1113 39.4536 43.804 38.5488 45.6468 38.1822C47.4896 37.8157 49.3998 38.0038 51.1357 38.7228C52.8716 39.4419 54.3553 40.6595 55.3991 42.2218C56.443 43.784 57.0002 45.6208 57.0002 47.4997C56.9977 50.0185 55.996 52.4334 54.2149 54.2144C52.4339 55.9955 50.019 56.9972 47.5002 56.9997Z" fill="#43B6CD"/>
<path d="M47.4998 41.167C46.2472 41.167 45.0227 41.5384 43.9812 42.2344C42.9397 42.9303 42.128 43.9194 41.6486 45.0767C41.1692 46.2339 41.0438 47.5074 41.2882 48.7359C41.5326 49.9644 42.1358 51.0929 43.0215 51.9787C43.9072 52.8644 45.0357 53.4676 46.2643 53.712C47.4928 53.9563 48.7662 53.8309 49.9235 53.3516C51.0808 52.8722 52.0699 52.0605 52.7658 51.0189C53.4617 49.9774 53.8332 48.7529 53.8332 47.5003C53.8332 45.8206 53.1659 44.2097 51.9782 43.022C50.7905 41.8343 49.1795 41.167 47.4998 41.167ZM47.4998 50.667C46.8735 50.667 46.2613 50.4813 45.7405 50.1333C45.2198 49.7854 44.8139 49.2908 44.5742 48.7122C44.3345 48.1335 44.2718 47.4968 44.394 46.8825C44.5162 46.2683 44.8178 45.704 45.2607 45.2612C45.7035 44.8183 46.2678 44.5167 46.8821 44.3945C47.4963 44.2723 48.133 44.335 48.7117 44.5747C49.2903 44.8144 49.7849 45.2203 50.1328 45.741C50.4808 46.2618 50.6665 46.874 50.6665 47.5003C50.6665 48.3402 50.3329 49.1456 49.739 49.7395C49.1451 50.3334 48.3397 50.667 47.4998 50.667Z" fill="#43B6CD"/>
<path d="M19.0002 44.3337C19.4201 44.3337 19.8228 44.1668 20.1197 43.8699C20.4167 43.573 20.5835 43.1703 20.5835 42.7503C20.5835 42.3304 20.4167 41.9277 20.1197 41.6307C19.8228 41.3338 19.4201 41.167 19.0002 41.167H17.4168C16.9969 41.167 16.5942 41.3338 16.2972 41.6307C16.0003 41.9277 15.8335 42.3304 15.8335 42.7503C15.8335 43.1703 16.0003 43.573 16.2972 43.8699C16.5942 44.1668 16.9969 44.3337 17.4168 44.3337H19.0002Z" fill="#43B6CD"/>
<path d="M9.49984 47.4997H11.0832C11.5031 47.4997 11.9058 47.3329 12.2028 47.0359C12.4997 46.739 12.6665 46.3363 12.6665 45.9163C12.6665 45.4964 12.4997 45.0937 12.2028 44.7968C11.9058 44.4998 11.5031 44.333 11.0832 44.333H9.49984C9.07991 44.333 8.67718 44.4998 8.38025 44.7968C8.08332 45.0937 7.9165 45.4964 7.9165 45.9163C7.9165 46.3363 8.08332 46.739 8.38025 47.0359C8.67718 47.3329 9.07991 47.4997 9.49984 47.4997Z" fill="#43B6CD"/>
<path d="M14.25 49.0833C14.25 49.5033 14.4168 49.906 14.7137 50.2029C15.0107 50.4999 15.4134 50.6667 15.8333 50.6667H17.4167C17.8366 50.6667 18.2393 50.4999 18.5363 50.2029C18.8332 49.906 19 49.5033 19 49.0833C19 48.6634 18.8332 48.2607 18.5363 47.9637C18.2393 47.6668 17.8366 47.5 17.4167 47.5H15.8333C15.4134 47.5 15.0107 47.6668 14.7137 47.9637C14.4168 48.2607 14.25 48.6634 14.25 49.0833Z" fill="#43B6CD"/>
<path d="M79.1665 42.7503C79.1665 42.3304 78.9997 41.9277 78.7028 41.6307C78.4058 41.3338 78.0031 41.167 77.5832 41.167H75.9998C75.5799 41.167 75.1772 41.3338 74.8803 41.6307C74.5833 41.9277 74.4165 42.3304 74.4165 42.7503C74.4165 43.1703 74.5833 43.573 74.8803 43.8699C75.1772 44.1668 75.5799 44.3337 75.9998 44.3337H77.5832C78.0031 44.3337 78.4058 44.1668 78.7028 43.8699C78.9997 43.573 79.1665 43.1703 79.1665 42.7503Z" fill="#43B6CD"/>
<path d="M85.5002 44.333H83.9168C83.4969 44.333 83.0942 44.4998 82.7972 44.7968C82.5003 45.0937 82.3335 45.4964 82.3335 45.9163C82.3335 46.3363 82.5003 46.739 82.7972 47.0359C83.0942 47.3329 83.4969 47.4997 83.9168 47.4997H85.5002C85.9201 47.4997 86.3228 47.3329 86.6198 47.0359C86.9167 46.739 87.0835 46.3363 87.0835 45.9163C87.0835 45.4964 86.9167 45.0937 86.6198 44.7968C86.3228 44.4998 85.9201 44.333 85.5002 44.333Z" fill="#43B6CD"/>
<path d="M77.5833 50.6667H79.1667C79.5866 50.6667 79.9893 50.4999 80.2863 50.2029C80.5832 49.906 80.75 49.5033 80.75 49.0833C80.75 48.6634 80.5832 48.2607 80.2863 47.9637C79.9893 47.6668 79.5866 47.5 79.1667 47.5H77.5833C77.1634 47.5 76.7607 47.6668 76.4637 47.9637C76.1668 48.2607 76 48.6634 76 49.0833C76 49.5033 76.1668 49.906 76.4637 50.2029C76.7607 50.4999 77.1634 50.6667 77.5833 50.6667Z" fill="#43B6CD"/>
</g>
<defs>
<clipPath id="clip0_150_4021">
<rect width="95" height="95" fill="white"/>
</clipPath>
</defs>
</svg>
