<svg width="119" height="119" viewBox="0 0 119 119" fill="none" xmlns="http://www.w3.org/2000/svg">
<g clip-path="url(#clip0_150_3864)">
<path d="M59.5 0C47.732 0 36.2283 3.48961 26.4436 10.0276C16.6589 16.5655 9.03261 25.8581 4.5292 36.7303C0.0257805 47.6025 -1.15252 59.566 1.1433 71.1079C3.43912 82.6497 9.10595 93.2516 17.4272 101.573C25.7484 109.894 36.3503 115.561 47.8922 117.857C59.434 120.153 71.3975 118.974 82.2697 114.471C93.1419 109.967 102.435 102.341 108.972 92.5564C115.51 82.7717 119 71.268 119 59.5C118.982 43.7251 112.708 28.6014 101.553 17.4469C90.3986 6.29231 75.2749 0.0178479 59.5 0ZM59.5 115.033C48.5166 115.033 37.7798 111.776 28.6474 105.674C19.515 99.5722 12.3971 90.8991 8.19392 80.7517C3.99073 70.6043 2.89099 59.4384 5.03375 48.666C7.17652 37.8936 12.4656 27.9985 20.232 20.232C27.9985 12.4655 37.8936 7.17649 48.666 5.03372C59.4384 2.89096 70.6043 3.9907 80.7517 8.19389C90.8991 12.3971 99.5722 19.5149 105.674 28.6473C111.776 37.7797 115.033 48.5165 115.033 59.5C115.017 74.2232 109.16 88.3386 98.7495 98.7495C88.3386 109.16 74.2232 115.017 59.5 115.033Z" fill="white"/>
<path d="M59.5 53.55C58.3232 53.55 57.1728 53.899 56.1944 54.5528C55.2159 55.2066 54.4532 56.1359 54.0029 57.2231C53.5526 58.3103 53.4347 59.5067 53.6643 60.6608C53.8939 61.815 54.4606 62.8752 55.2927 63.7073C56.1248 64.5395 57.185 65.1061 58.3392 65.3357C59.4934 65.5653 60.6897 65.4475 61.777 64.9971C62.8642 64.5468 63.7934 63.7842 64.4472 62.8057C65.101 61.8272 65.45 60.6768 65.45 59.5C65.45 57.922 64.8231 56.4086 63.7073 55.2928C62.5914 54.1769 61.078 53.55 59.5 53.55ZM59.5 61.4834C59.1077 61.4834 58.7243 61.3671 58.3981 61.1491C58.072 60.9312 57.8177 60.6214 57.6676 60.259C57.5175 59.8966 57.4782 59.4978 57.5548 59.1131C57.6313 58.7284 57.8202 58.375 58.0976 58.0976C58.3749 57.8202 58.7283 57.6314 59.1131 57.5548C59.4978 57.4783 59.8966 57.5176 60.259 57.6677C60.6214 57.8178 60.9311 58.072 61.1491 58.3982C61.367 58.7243 61.4833 59.1078 61.4833 59.5C61.4833 60.0261 61.2744 60.5305 60.9024 60.9025C60.5305 61.2744 60.026 61.4834 59.5 61.4834Z" fill="white"/>
<path d="M59.5 7.93336C48.0766 7.92466 36.9747 11.7151 27.942 18.7081C18.9092 25.7011 12.4585 35.4995 9.60526 46.5608C9.36991 47.4497 9.34156 48.3807 9.52237 49.2823C9.70318 50.1839 10.0883 51.032 10.6482 51.7614C11.2081 52.4908 11.9279 53.0822 12.7521 53.4899C13.5763 53.8976 14.483 54.1109 15.4025 54.1133C15.7705 54.1139 16.1377 54.08 16.4993 54.0121L40.0217 49.7281C38.6377 52.4525 37.8486 55.4399 37.7067 58.4923C37.5648 61.5447 38.0733 64.5924 39.1986 67.4334H15.8666C14.9584 67.4289 14.0621 67.6401 13.2514 68.0498C12.4408 68.4594 11.739 69.0557 11.2038 69.7896C10.6549 70.5405 10.2897 71.4096 10.1374 72.3272C9.98517 73.2448 10.0502 74.1852 10.3272 75.0732C12.5007 81.8769 16.0577 88.1577 20.7746 93.521C25.4915 98.8844 31.2665 103.214 37.7369 106.239C39.208 106.929 40.8302 107.234 42.4515 107.126C44.0728 107.019 45.6402 106.501 47.007 105.622C48.4068 104.737 49.5593 103.512 50.3568 102.06C51.1542 100.609 51.5704 98.9784 51.5667 97.3222V79.8014C56.6626 81.8218 62.3374 81.8218 67.4333 79.8014V97.3222C67.4297 98.9786 67.8463 100.609 68.6441 102.06C69.4419 103.512 70.5948 104.738 71.995 105.622C73.3622 106.501 74.9299 107.019 76.5515 107.126C78.1731 107.234 79.7955 106.929 81.2671 106.239C87.736 103.217 93.5089 98.8874 98.2222 93.5239C102.935 88.1603 106.487 81.8789 108.653 75.0752C108.934 74.1905 109.003 73.2523 108.855 72.3361C108.708 71.4197 108.347 70.5509 107.802 69.7995C107.268 69.0626 106.566 68.4636 105.754 68.0522C104.942 67.6407 104.044 67.4286 103.133 67.4334H79.8014C80.9267 64.5924 81.4352 61.5447 81.2933 58.4923C81.1514 55.4399 80.3623 52.4525 78.9783 49.7281L102.499 54.0121C103.494 54.1974 104.52 54.1272 105.481 53.8081C106.442 53.489 107.306 52.9314 107.992 52.1875C108.683 51.4466 109.174 50.5428 109.42 49.5604C109.666 48.5781 109.659 47.5494 109.399 46.5707C106.546 35.5074 100.095 25.7069 91.0619 18.7121C82.0284 11.7173 70.9251 7.92537 59.5 7.93336ZM47.6 97.3222C47.6027 98.3113 47.3545 99.285 46.8786 100.152C46.4027 101.019 45.7147 101.752 44.8788 102.281C44.0768 102.806 43.1529 103.116 42.1961 103.181C41.2394 103.245 40.2822 103.062 39.4167 102.649C33.4444 99.8589 28.1135 95.8637 23.7588 90.9147C19.404 85.9658 16.1195 80.1699 14.1114 73.8911C14.0181 73.5983 13.9953 73.2875 14.0449 72.9842C14.0945 72.6809 14.2152 72.3936 14.397 72.1458C14.564 71.9125 14.7848 71.723 15.0406 71.5931C15.2964 71.4633 15.5798 71.3971 15.8666 71.4H41.2374C42.8963 73.9374 45.0626 76.1038 47.6 77.7626V97.3222ZM59.5 77.35C55.9696 77.35 52.5185 76.3032 49.5831 74.3418C46.6476 72.3804 44.3598 69.5926 43.0087 66.3309C41.6577 63.0693 41.3042 59.4802 41.993 56.0177C42.6817 52.5551 44.3818 49.3745 46.8781 46.8782C49.3745 44.3818 52.5551 42.6818 56.0176 41.993C59.4802 41.3043 63.0692 41.6578 66.3309 43.0088C69.5925 44.3598 72.3803 46.6477 74.3417 49.5831C76.3031 52.5185 77.35 55.9696 77.35 59.5C77.3447 64.2325 75.4624 68.7697 72.116 72.1161C68.7697 75.4625 64.2325 77.3448 59.5 77.35ZM103.133 71.4C103.42 71.397 103.702 71.4627 103.958 71.5918C104.213 71.7209 104.434 71.9096 104.601 72.1418C104.781 72.3885 104.9 72.6748 104.947 72.9767C104.994 73.2787 104.968 73.5874 104.871 73.8772C102.87 80.1566 99.5899 85.9536 95.2381 90.9031C90.8864 95.8525 85.5568 99.8472 79.5852 102.636C78.7193 103.048 77.7618 103.231 76.8049 103.166C75.848 103.101 74.9238 102.792 74.1211 102.267C73.2873 101.739 72.6005 101.009 72.1247 100.144C71.6489 99.2798 71.3996 98.309 71.4 97.3222V77.7626C73.9374 76.1038 76.1037 73.9374 77.7625 71.4H103.133ZM105.081 49.4921C104.849 49.7468 104.555 49.9375 104.228 50.0462C103.901 50.1549 103.551 50.1779 103.213 50.1129L75.8764 45.1328C73.8371 42.7935 71.3203 40.9183 68.4955 39.6333C65.6707 38.3483 62.6033 37.6835 59.5 37.6835C56.3966 37.6835 53.3293 38.3483 50.5045 39.6333C47.6796 40.9183 45.1629 42.7935 43.1236 45.1328L15.7853 50.1129C15.4448 50.1747 15.0942 50.1492 14.7662 50.0388C14.4382 49.9284 14.1435 49.7367 13.9096 49.4816C13.6758 49.2266 13.5103 48.9164 13.4287 48.5801C13.3471 48.2438 13.352 47.8923 13.443 47.5584C16.0842 37.3507 22.0417 28.3096 30.3794 21.8555C38.7171 15.4015 48.9627 11.9001 59.5066 11.9014C70.0504 11.9028 80.2951 15.4068 88.6312 21.8631C96.9672 28.3193 102.922 37.3619 105.561 47.5703C105.653 47.9048 105.657 48.2576 105.573 48.5943C105.489 48.931 105.32 49.2402 105.081 49.4921Z" fill="white"/>
<path d="M59.5 50.5116C60.026 50.5116 60.5305 50.3026 60.9024 49.9307C61.2744 49.5587 61.4833 49.0542 61.4833 48.5282V47.6C61.4833 47.074 61.2744 46.5695 60.9024 46.1976C60.5305 45.8257 60.026 45.6167 59.5 45.6167C58.974 45.6167 58.4695 45.8257 58.0976 46.1976C57.7256 46.5695 57.5167 47.074 57.5167 47.6V48.5282C57.5167 49.0542 57.7256 49.5587 58.0976 49.9307C58.4695 50.3026 58.974 50.5116 59.5 50.5116Z" fill="white"/>
<path d="M50.339 53.1533C50.5238 53.3381 50.7431 53.4847 50.9846 53.5847C51.226 53.6847 51.4848 53.7362 51.7461 53.7362C52.0075 53.7362 52.2663 53.6847 52.5077 53.5847C52.7491 53.4847 52.9685 53.3381 53.1533 53.1533C53.3381 52.9685 53.4847 52.7491 53.5847 52.5077C53.6847 52.2662 53.7362 52.0074 53.7362 51.7461C53.7362 51.4848 53.6847 51.226 53.5847 50.9845C53.4847 50.7431 53.3381 50.5237 53.1533 50.3389L52.4988 49.6844C52.1248 49.3232 51.6238 49.1232 51.1037 49.1278C50.5837 49.1323 50.0863 49.3409 49.7185 49.7086C49.3508 50.0763 49.1422 50.5738 49.1377 51.0938C49.1332 51.6138 49.3331 52.1148 49.6944 52.4889L50.339 53.1533Z" fill="white"/>
<path d="M50.5115 59.4999C50.5115 58.9739 50.3025 58.4695 49.9306 58.0975C49.5587 57.7256 49.0542 57.5166 48.5282 57.5166H47.6C47.074 57.5166 46.5695 57.7256 46.1975 58.0975C45.8256 58.4695 45.6166 58.9739 45.6166 59.4999C45.6166 60.0259 45.8256 60.5304 46.1975 60.9024C46.5695 61.2743 47.074 61.4833 47.6 61.4833H48.5282C49.0542 61.4833 49.5587 61.2743 49.9306 60.9024C50.3025 60.5304 50.5115 60.0259 50.5115 59.4999Z" fill="white"/>
<path d="M50.339 65.8565L49.6845 66.511C49.495 66.694 49.3439 66.9129 49.24 67.1548C49.1361 67.3968 49.0813 67.6571 49.0791 67.9204C49.0768 68.1837 49.1269 68.4449 49.2267 68.6887C49.3264 68.9324 49.4737 69.1538 49.6599 69.3401C49.8461 69.5263 50.0675 69.6736 50.3113 69.7733C50.555 69.873 50.8162 69.9232 51.0795 69.9209C51.3429 69.9186 51.6031 69.8639 51.8451 69.7599C52.0871 69.656 52.3059 69.5049 52.4889 69.3155L53.1434 68.661C53.5047 68.2869 53.7046 67.7859 53.7001 67.2659C53.6956 66.7459 53.487 66.2484 53.1192 65.8807C52.7515 65.513 52.2541 65.3044 51.734 65.2999C51.214 65.2954 50.713 65.4953 50.339 65.8565Z" fill="white"/>
<path d="M59.5 68.4885C58.974 68.4885 58.4695 68.6975 58.0976 69.0694C57.7256 69.4414 57.5167 69.9458 57.5167 70.4719V71.4001C57.5167 71.9261 57.7256 72.4305 58.0976 72.8025C58.4695 73.1744 58.974 73.3834 59.5 73.3834C60.026 73.3834 60.5305 73.1744 60.9024 72.8025C61.2744 72.4305 61.4833 71.9261 61.4833 71.4001V70.4719C61.4833 69.9458 61.2744 69.4414 60.9024 69.0694C60.5305 68.6975 60.026 68.4885 59.5 68.4885Z" fill="white"/>
<path d="M68.661 65.8565C68.287 65.4953 67.786 65.2954 67.266 65.2999C66.7459 65.3044 66.2485 65.513 65.8808 65.8807C65.513 66.2484 65.3045 66.7459 65.2999 67.2659C65.2954 67.7859 65.4953 68.2869 65.8566 68.661L66.5111 69.3155C66.8852 69.6768 67.3862 69.8767 67.9062 69.8722C68.4262 69.8676 68.9237 69.659 69.2914 69.2913C69.6591 68.9236 69.8677 68.4261 69.8722 67.9061C69.8767 67.3861 69.6768 66.8851 69.3155 66.511L68.661 65.8565Z" fill="white"/>
<path d="M73.3833 59.4999C73.3833 58.9739 73.1744 58.4695 72.8024 58.0975C72.4305 57.7256 71.926 57.5166 71.4 57.5166H70.4718C69.9458 57.5166 69.4413 57.7256 69.0694 58.0975C68.6974 58.4695 68.4885 58.9739 68.4885 59.4999C68.4885 60.0259 68.6974 60.5304 69.0694 60.9024C69.4413 61.2743 69.9458 61.4833 70.4718 61.4833H71.4C71.926 61.4833 72.4305 61.2743 72.8024 60.9024C73.1744 60.5304 73.3833 60.0259 73.3833 59.4999Z" fill="white"/>
<path d="M67.2588 53.7245C67.7848 53.7244 68.2891 53.5153 68.661 53.1434L69.3155 52.4889C69.6768 52.1148 69.8767 51.6138 69.8722 51.0938C69.8677 50.5738 69.6591 50.0763 69.2913 49.7086C68.9236 49.3409 68.4262 49.1323 67.9061 49.1278C67.3861 49.1232 66.8851 49.3232 66.5111 49.6844L65.8566 50.3389C65.5793 50.6163 65.3905 50.9697 65.314 51.3543C65.2375 51.739 65.2768 52.1377 65.4268 52.5001C65.5769 52.8624 65.831 53.1722 66.1571 53.3901C66.4832 53.608 66.8666 53.7244 67.2588 53.7245Z" fill="white"/>
</g>
<defs>
<clipPath id="clip0_150_3864">
<rect width="119" height="119" fill="white"/>
</clipPath>
</defs>
</svg>
