<svg width="50" height="50" viewBox="0 0 50 50" fill="none" xmlns="http://www.w3.org/2000/svg">
  <g clip-path="url(#clip0_150_961)">
    <path d="M47.6563 3.90625H44.5313V2.34375C44.5306 1.72236 44.2834 1.12661 43.844 0.687218C43.4046 0.247826 42.8089 0.000678278 42.1875 0L35.9375 0C35.3161 0.000678278 34.7204 0.247826 34.281 0.687218C33.8416 1.12661 33.5944 1.72236 33.5938 2.34375V3.90625H30.4688C29.8474 3.90693 29.2516 4.15408 28.8122 4.59347C28.3728 5.03286 28.1257 5.62861 28.125 6.25V10.4759C28.123 11.0064 28.3018 11.5217 28.6321 11.9368C28.9623 12.3519 29.4242 12.6421 29.9416 12.7594L38.2813 14.6841V15.2809C38.2813 15.4881 38.3636 15.6868 38.5101 15.8333C38.6566 15.9799 38.8553 16.0622 39.0625 16.0622C39.2697 16.0622 39.4684 15.9799 39.6149 15.8333C39.7614 15.6868 39.8438 15.4881 39.8438 15.2809V14.6841L48.1834 12.7594C48.7008 12.6421 49.1627 12.3519 49.4929 11.9368C49.8232 11.5217 50.002 11.0064 50 10.4759V6.25C49.9993 5.62861 49.7522 5.03286 49.3128 4.59347C48.8734 4.15408 48.2776 3.90693 47.6563 3.90625ZM35.1563 2.34375C35.1564 2.13659 35.2387 1.93796 35.3852 1.79148C35.5317 1.64499 35.7303 1.56264 35.9375 1.5625H42.1875C42.3947 1.56264 42.5933 1.64499 42.7398 1.79148C42.8863 1.93796 42.9686 2.13659 42.9688 2.34375V3.90625H35.1563V2.34375ZM48.4375 10.4759C48.4383 10.6527 48.3788 10.8244 48.2688 10.9627C48.1588 11.101 48.0049 11.1976 47.8325 11.2366L39.8438 13.0804V12.5C39.8438 12.2928 39.7614 12.0941 39.6149 11.9476C39.4684 11.8011 39.2697 11.7188 39.0625 11.7188C38.8553 11.7188 38.6566 11.8011 38.5101 11.9476C38.3636 12.0941 38.2813 12.2928 38.2813 12.5V13.0804L30.2925 11.2366C30.1201 11.1976 29.9662 11.101 29.8562 10.9627C29.7462 10.8244 29.6867 10.6527 29.6875 10.4759V6.25C29.6876 6.04284 29.77 5.84421 29.9165 5.69773C30.063 5.55124 30.2616 5.46889 30.4688 5.46875H47.6563C47.8634 5.46889 48.062 5.55124 48.2085 5.69773C48.355 5.84421 48.4374 6.04284 48.4375 6.25V10.4759Z" fill="#43B6CD" />
    <path d="M47.6562 14.4997C47.5536 14.4996 47.452 14.5198 47.3572 14.559C47.2624 14.5983 47.1762 14.6558 47.1037 14.7284C47.0311 14.8009 46.9736 14.8871 46.9344 14.9819C46.8951 15.0767 46.8749 15.1783 46.875 15.2809V18.75C46.8749 18.9572 46.7925 19.1558 46.646 19.3023C46.4995 19.4488 46.3009 19.5311 46.0938 19.5312H32.0312C31.8241 19.5311 31.6255 19.4488 31.479 19.3023C31.3325 19.1558 31.2501 18.9572 31.25 18.75V15.2809C31.25 15.0737 31.1677 14.875 31.0212 14.7285C30.8747 14.582 30.676 14.4997 30.4688 14.4997C30.2615 14.4997 30.0628 14.582 29.9163 14.7285C29.7698 14.875 29.6875 15.0737 29.6875 15.2809V18.75C29.6882 19.3714 29.9353 19.9671 30.3747 20.4065C30.8141 20.8459 31.4099 21.0931 32.0312 21.0938H46.0938C46.7151 21.0931 47.3109 20.8459 47.7503 20.4065C48.1897 19.9671 48.4368 19.3714 48.4375 18.75V15.2809C48.4376 15.1783 48.4174 15.0767 48.3781 14.9819C48.3389 14.8871 48.2814 14.8009 48.2088 14.7284C48.1363 14.6558 48.0501 14.5983 47.9553 14.559C47.8605 14.5198 47.7589 14.4996 47.6562 14.4997Z" fill="#43B6CD" />
    <path d="M25.9659 38.2812L18.5859 34.5913L17.7716 32.5248C18.6451 31.9805 19.3894 31.2522 19.9524 30.3906C20.1995 30.4414 20.4509 30.4675 20.7031 30.4687C21.5827 30.5165 22.4456 30.215 23.104 29.6297C23.7624 29.0445 24.1631 28.2229 24.2188 27.3437C24.2154 26.7037 23.9983 26.0832 23.6019 25.5807C23.9808 24.7242 24.1627 23.7936 24.1342 22.8574C24.1058 21.9213 23.8677 21.0035 23.4375 20.1715V17.0583L25.9827 16.3795C26.149 16.3352 26.2959 16.2372 26.4008 16.1008C26.5057 15.9643 26.5625 15.7971 26.5625 15.625C26.5625 15.4529 26.5057 15.2856 26.4008 15.1492C26.2959 15.0127 26.149 14.9147 25.9827 14.8704L14.2639 11.7454C14.1319 11.7103 13.9931 11.7103 13.8611 11.7454L2.14234 14.8704C1.97928 14.9204 1.83584 15.0199 1.73192 15.1551C1.62801 15.2903 1.5688 15.4546 1.56251 15.625V28.125C1.56251 28.3322 1.64482 28.5309 1.79133 28.6774C1.93784 28.8239 2.13655 28.9062 2.34376 28.9062C2.55096 28.9062 2.74967 28.8239 2.89618 28.6774C3.0427 28.5309 3.125 28.3322 3.125 28.125V16.6416L4.6875 17.0583V20.1715C4.25734 21.0035 4.01926 21.9213 3.99081 22.8574C3.96235 23.7936 4.14424 24.7242 4.52309 25.5807C4.12675 26.0832 3.90965 26.7037 3.90625 27.3437C3.96194 28.2229 4.36257 29.0445 5.02097 29.6297C5.67938 30.215 6.54226 30.5165 7.42188 30.4687C7.67407 30.4675 7.92553 30.4414 8.17257 30.3906C8.73563 31.2521 9.47985 31.9805 10.3533 32.5248L9.53907 34.5913L2.15912 38.2812C1.50884 38.6038 0.961909 39.102 0.580298 39.7194C0.198688 40.3369 -0.00233752 41.0489 4.98217e-06 41.7747V49.2187C-5.35565e-05 49.3214 0.0201141 49.423 0.0593549 49.5178C0.0985956 49.6126 0.15614 49.6987 0.228697 49.7713C0.301255 49.8439 0.387402 49.9014 0.482214 49.9406C0.577026 49.9799 0.678643 50.0001 0.781255 50H27.3438C27.4464 50.0001 27.548 49.9799 27.6428 49.9406C27.7376 49.9014 27.8238 49.8439 27.8963 49.7713C27.9689 49.6987 28.0264 49.6126 28.0657 49.5178C28.1049 49.423 28.1251 49.3214 28.125 49.2187V41.7747C28.1273 41.0489 27.9263 40.3369 27.5447 39.7194C27.1631 39.102 26.6162 38.6038 25.9659 38.2812ZM17.0631 44.0643L17.0622 44.0655C16.2103 44.7455 15.1526 45.1159 14.0625 45.1159C12.9724 45.1159 11.9147 44.7455 11.0628 44.0655L11.0619 44.0643L4.69637 38.7598L5.37076 38.4226C9.67639 41.8671 8.26447 40.7171 11.5616 43.4647C12.2636 44.0498 13.1486 44.3703 14.0625 44.3703C14.9764 44.3703 15.8614 44.0498 16.5634 43.4647C19.8605 40.7171 18.4486 41.8671 22.7542 38.4226L23.4286 38.7598L17.0631 44.0643ZM11.5156 40.1369L11.8263 40.5823L11.2633 41.1811L10.6793 40.6944L11.5156 40.1369ZM14.0625 38.4389L15.309 39.2699L14.8876 39.8743H13.2374L12.816 39.2699L14.0625 38.4389ZM17.4457 40.6944L16.8617 41.1811L16.2987 40.5823L16.6094 40.1369L17.4457 40.6944ZM13.1671 41.4368H14.958L15.6595 42.1829L15.5624 42.2638C15.1415 42.615 14.6107 42.8074 14.0625 42.8074C13.5143 42.8074 12.9835 42.615 12.5626 42.2638L12.4655 42.1829L13.1671 41.4368ZM18.708 39.6584C15.718 37.6653 17.6883 38.9786 15.5228 37.5351L18.0031 36.0466L21.2151 37.6526L18.708 39.6584ZM7.03125 24.2538C6.60565 24.2947 6.19002 24.4072 5.80197 24.5867C5.429 23.5133 5.46202 22.3405 5.89481 21.2898L7.03125 21.5925V24.2538ZM6.25 19.767V17.4774L13.8611 19.5053C13.9931 19.5404 14.1319 19.5404 14.2639 19.5053L21.875 17.4774V19.767L14.0625 21.8475L6.25 19.767ZM22.2302 21.2898C22.663 22.3405 22.696 23.5133 22.323 24.5867C21.935 24.4072 21.5194 24.2947 21.0938 24.2538V21.5925L22.2302 21.2898ZM20.7031 28.9062L20.6842 28.9045C20.9536 28.153 21.0921 27.3608 21.0938 26.5625V25.8129C21.4928 25.8432 21.8682 26.0134 22.1541 26.2935C22.4399 26.5735 22.6177 26.9455 22.6563 27.3437C22.5984 27.8073 22.3619 28.23 21.9972 28.5218C21.6324 28.8137 21.1681 28.9516 20.7031 28.9062ZM14.0625 13.3087L22.7493 15.625L14.0625 17.9413L5.37568 15.625L14.0625 13.3087ZM7.42188 28.9062C6.95693 28.9516 6.49264 28.8137 6.12785 28.5218C5.76306 28.23 5.52658 27.8073 5.46875 27.3437C5.50729 26.9455 5.68513 26.5735 5.97096 26.2935C6.25678 26.0134 6.63226 25.8432 7.03125 25.8129V26.5625C7.03291 27.3608 7.17142 28.153 7.44076 28.9045L7.42188 28.9062ZM8.59375 26.5625V22.0087L13.8611 23.4116C13.9931 23.4461 14.1319 23.4461 14.2639 23.4116L19.5313 22.0087V26.5625C19.5313 28.0129 18.9551 29.4039 17.9295 30.4295C16.9039 31.4551 15.5129 32.0312 14.0625 32.0312C12.6121 32.0312 11.2211 31.4551 10.1955 30.4295C9.16993 29.4039 8.59375 28.0129 8.59375 26.5625ZM14.0625 33.5937C14.8444 33.5923 15.6205 33.4595 16.3585 33.2011L16.9991 34.8269L14.0625 36.5889L11.1259 34.8269L11.7665 33.2011C12.5045 33.4595 13.2806 33.5923 14.0625 33.5937ZM10.1219 36.0466L12.6022 37.5351L9.41697 39.6584L6.90993 37.6526L10.1219 36.0466ZM26.5625 48.4375H23.4375V46.0937C23.4375 45.8865 23.3552 45.6878 23.2087 45.5413C23.0622 45.3948 22.8635 45.3125 22.6563 45.3125C22.4491 45.3125 22.2503 45.3948 22.1038 45.5413C21.9573 45.6878 21.875 45.8865 21.875 46.0937V48.4375H6.25V46.0937C6.25 45.8865 6.16769 45.6878 6.02118 45.5413C5.87467 45.3948 5.67596 45.3125 5.46875 45.3125C5.26155 45.3125 5.06284 45.3948 4.91633 45.5413C4.76981 45.6878 4.6875 45.8865 4.6875 46.0937V48.4375H1.56251V41.7747C1.56122 41.3393 1.68189 40.9122 1.91084 40.5418C2.1398 40.1714 2.46789 39.8725 2.85797 39.6789L3.17011 39.5229L10.0609 45.2652L10.0639 45.2669C11.1866 46.202 12.6014 46.714 14.0625 46.714C15.5236 46.714 16.9384 46.202 18.0611 45.2669L18.0641 45.2652L24.9549 39.5229L25.267 39.6789C25.6571 39.8725 25.9852 40.1714 26.2142 40.5418C26.4431 40.9122 26.5638 41.3393 26.5625 41.7747V48.4375Z" fill="#43B6CD" />
    <path d="M15.213 26.445C15.3891 26.5541 15.6013 26.5889 15.803 26.5417C16.0047 26.4945 16.1794 26.3692 16.2888 26.1932C16.6092 25.6775 16.9846 25.6775 17.305 26.1932C17.4152 26.3673 17.5896 26.4909 17.7904 26.5369C17.9913 26.583 18.2021 26.5479 18.3772 26.4393C18.5522 26.3306 18.6773 26.1572 18.7251 25.9568C18.7729 25.7564 18.7396 25.5453 18.6325 25.3693C18.4516 25.0356 18.1875 24.7544 17.8659 24.5528C17.5443 24.3512 17.176 24.2362 16.7969 24.2188C16.4177 24.2362 16.0495 24.3512 15.7279 24.5528C15.4063 24.7544 15.1422 25.0356 14.9612 25.3693C14.852 25.5453 14.8171 25.7575 14.8644 25.9593C14.9116 26.161 15.037 26.3357 15.213 26.445Z" fill="#43B6CD" />
    <path d="M16.227 29.4044C16.2927 29.3254 16.3423 29.2342 16.3727 29.136C16.4032 29.0379 16.414 28.9346 16.4045 28.8323C16.395 28.7299 16.3654 28.6304 16.3174 28.5395C16.2694 28.4486 16.2039 28.3681 16.1247 28.3025C16.0455 28.237 15.9541 28.1877 15.8558 28.1575C15.7576 28.1274 15.6543 28.1169 15.552 28.1267C15.4496 28.1365 15.3502 28.1664 15.2595 28.2147C15.1687 28.2629 15.0884 28.3287 15.0231 28.408C14.9115 28.5576 14.7666 28.679 14.5998 28.7626C14.4331 28.8463 14.2491 28.8899 14.0625 28.8899C13.876 28.8899 13.692 28.8463 13.5252 28.7626C13.3584 28.679 13.2135 28.5576 13.102 28.408C13.0366 28.3287 12.9563 28.2629 12.8655 28.2147C12.7748 28.1664 12.6754 28.1365 12.5731 28.1267C12.4707 28.1169 12.3675 28.1274 12.2692 28.1575C12.1709 28.1877 12.0796 28.237 12.0004 28.3025C11.9212 28.3681 11.8557 28.4486 11.8077 28.5395C11.7596 28.6304 11.73 28.7299 11.7205 28.8323C11.711 28.9346 11.7218 29.0379 11.7523 29.136C11.7827 29.2342 11.8323 29.3254 11.8981 29.4044C12.1534 29.7356 12.4813 30.0038 12.8565 30.1883C13.2318 30.3728 13.6444 30.4687 14.0625 30.4687C14.4807 30.4687 14.8932 30.3728 15.2685 30.1883C15.6437 30.0038 15.9716 29.7356 16.227 29.4044Z" fill="#43B6CD" />
    <path d="M12.5008 26.5625C12.64 26.5624 12.7766 26.525 12.8965 26.4544C13.0164 26.3838 13.1153 26.2824 13.1829 26.1607C13.2505 26.039 13.2844 25.9015 13.281 25.7624C13.2776 25.6232 13.2372 25.4875 13.1638 25.3693C12.9828 25.0356 12.7187 24.7544 12.3971 24.5528C12.0755 24.3512 11.7073 24.2362 11.3281 24.2188C10.949 24.2362 10.5807 24.3512 10.2591 24.5528C9.93752 24.7544 9.67344 25.0356 9.49249 25.3693C9.38536 25.5453 9.35209 25.7564 9.39991 25.9568C9.44773 26.1572 9.57278 26.3306 9.74782 26.4393C9.92287 26.5479 10.1338 26.583 10.3346 26.5369C10.5354 26.4909 10.7098 26.3673 10.82 26.1932C11.1404 25.6775 11.5158 25.6775 11.8362 26.1932C11.9063 26.3064 12.0042 26.3997 12.1205 26.4643C12.2368 26.5289 12.3677 26.5627 12.5008 26.5625Z" fill="#43B6CD" />
    <path d="M14.0625 10.1563C14.1651 10.1563 14.2667 10.1361 14.3615 10.0969C14.4564 10.0577 14.5425 10.0001 14.6151 9.92756C14.6876 9.85501 14.7452 9.76886 14.7844 9.67405C14.8236 9.57924 14.8438 9.47762 14.8438 9.37501V6.25001C14.8439 6.04285 14.9262 5.84422 15.0727 5.69773C15.2192 5.55125 15.4178 5.4689 15.625 5.46876H23.8953L22.1039 7.26016C22.0303 7.33246 21.9717 7.41862 21.9316 7.51368C21.8915 7.60873 21.8706 7.71079 21.8701 7.81397C21.8696 7.91715 21.8896 8.0194 21.9289 8.11481C21.9681 8.21023 22.0259 8.29692 22.0989 8.36988C22.1718 8.44284 22.2585 8.50062 22.3539 8.53989C22.4494 8.57916 22.5516 8.59913 22.6548 8.59867C22.758 8.5982 22.86 8.5773 22.9551 8.53716C23.0501 8.49703 23.1363 8.43847 23.2086 8.36485L26.3326 5.24085C26.4791 5.09393 26.5613 4.89494 26.5613 4.68748C26.5613 4.48003 26.4791 4.28103 26.3326 4.13412L23.2086 1.01016C23.0617 0.865859 22.8637 0.785422 22.6577 0.786354C22.4518 0.787287 22.2545 0.869514 22.1089 1.01514C21.9633 1.16077 21.881 1.35802 21.8801 1.56397C21.8792 1.76992 21.9596 1.96791 22.1039 2.11485L23.8953 3.90626H15.625C15.0036 3.90694 14.4079 4.15408 13.9685 4.59348C13.5291 5.03287 13.2819 5.62861 13.2813 6.25001V9.37501C13.2812 9.47762 13.3014 9.57924 13.3406 9.67405C13.3798 9.76886 13.4374 9.85501 13.5099 9.92756C13.5825 10.0001 13.6686 10.0577 13.7635 10.0969C13.8583 10.1361 13.9599 10.1563 14.0625 10.1563Z" fill="#43B6CD" />
    <path d="M47.6563 22.6563C47.5536 22.6562 47.452 22.6764 47.3572 22.7156C47.2624 22.7548 47.1763 22.8124 47.1037 22.8849C47.0311 22.9575 46.9736 23.0436 46.9344 23.1385C46.8951 23.2333 46.8749 23.3349 46.875 23.4375V31.25C46.8749 31.4572 46.7925 31.6558 46.646 31.8023C46.4995 31.9488 46.3009 32.0311 46.0938 32.0312H27.6672L29.4586 30.2398C29.6036 30.093 29.6846 29.8948 29.684 29.6885C29.6833 29.4822 29.6011 29.2845 29.4552 29.1386C29.3093 28.9927 29.1116 28.9105 28.9052 28.9098C28.6989 28.9092 28.5007 28.9902 28.3539 29.1352L25.2299 32.2592C25.0834 32.4061 25.0012 32.6051 25.0012 32.8125C25.0012 33.02 25.0834 33.219 25.2299 33.3659L28.3539 36.4898C28.5009 36.6341 28.6988 36.7146 28.9048 36.7137C29.1107 36.7127 29.308 36.6305 29.4536 36.4849C29.5992 36.3392 29.6815 36.142 29.6824 35.936C29.6833 35.7301 29.6029 35.5321 29.4586 35.3852L27.6672 33.5938H46.0938C46.7151 33.5931 47.3109 33.3459 47.7503 32.9065C48.1897 32.4671 48.4368 31.8714 48.4375 31.25V23.4375C48.4376 23.3349 48.4174 23.2333 48.3782 23.1385C48.3389 23.0436 48.2814 22.9575 48.2088 22.8849C48.1363 22.8124 48.0501 22.7548 47.9553 22.7156C47.8605 22.6764 47.7589 22.6562 47.6563 22.6563Z" fill="#43B6CD" />
  </g>
  <defs>
    <clipPath id="clip0_150_961">
      <rect width="50" height="50" fill="white" />
    </clipPath>
  </defs>
</svg>