<svg width="95" height="95" viewBox="0 0 95 95" fill="none" xmlns="http://www.w3.org/2000/svg">
<g clip-path="url(#clip0_150_4038)">
<path d="M85.5 70.8114V14.25C85.5 12.9902 84.9996 11.782 84.1088 10.8912C83.218 10.0004 82.0098 9.5 80.75 9.5H72.8333V4.75C72.8333 3.49022 72.3329 2.28204 71.4421 1.39124C70.5513 0.500445 69.3431 0 68.0833 0L26.9167 0C25.6569 0 24.4487 0.500445 23.5579 1.39124C22.6671 2.28204 22.1667 3.49022 22.1667 4.75V9.5H14.25C12.9902 9.5 11.782 10.0004 10.8912 10.8912C10.0004 11.782 9.5 12.9902 9.5 14.25V70.8114L0.226417 86.2679C0.078359 86.5141 9.09323e-05 86.796 0 87.0833L0 91.8333C0 92.6732 0.33363 93.4786 0.927495 94.0725C1.52136 94.6664 2.32681 95 3.16667 95H91.8333C92.6732 95 93.4786 94.6664 94.0725 94.0725C94.6664 93.4786 95 92.6732 95 91.8333V87.0833C94.9999 86.796 94.9216 86.5141 94.7736 86.2679L85.5 70.8114ZM65.9886 85.5L63.6136 79.5736C63.3806 78.9855 62.976 78.4812 62.4524 78.1262C61.9289 77.7713 61.3106 77.5821 60.6781 77.5833H34.3219C33.6884 77.5813 33.0689 77.7702 32.5444 78.1255C32.0199 78.4809 31.6147 78.986 31.3817 79.5752L29.0114 85.5H4.3795L11.9795 72.8333H83.0205L90.6205 85.5H65.9886ZM62.5781 85.5H32.4219L34.3219 80.75H60.6781L62.5781 85.5ZM72.8333 19H76V63.3333H72.8333V19ZM26.9167 3.16667H68.0833C68.5033 3.16667 68.906 3.33348 69.2029 3.63041C69.4999 3.92735 69.6667 4.33007 69.6667 4.75V63.3333H25.3333V4.75C25.3333 4.33007 25.5001 3.92735 25.7971 3.63041C26.094 3.33348 26.4967 3.16667 26.9167 3.16667ZM22.1667 63.3333H19V19H22.1667V63.3333ZM14.25 12.6667H22.1667V15.8333H19C18.1601 15.8333 17.3547 16.167 16.7608 16.7608C16.167 17.3547 15.8333 18.1601 15.8333 19V63.3333C15.8333 64.1732 16.167 64.9786 16.7608 65.5725C17.3547 66.1664 18.1601 66.5 19 66.5H76C76.8399 66.5 77.6453 66.1664 78.2392 65.5725C78.833 64.9786 79.1667 64.1732 79.1667 63.3333V19C79.1667 18.1601 78.833 17.3547 78.2392 16.7608C77.6453 16.167 76.8399 15.8333 76 15.8333H72.8333V12.6667H80.75C81.1699 12.6667 81.5727 12.8335 81.8696 13.1304C82.1665 13.4273 82.3333 13.8301 82.3333 14.25V69.6667H12.6667V14.25C12.6667 13.8301 12.8335 13.4273 13.1304 13.1304C13.4273 12.8335 13.8301 12.6667 14.25 12.6667ZM3.16667 91.8333V88.6667H91.8333V91.8333H3.16667Z" fill="#43B6CD"/>
<path d="M30.5473 16.9531C30.8442 17.25 31.2469 17.4169 31.6667 17.417H31.7792C32.0057 17.4004 32.2261 17.3353 32.4252 17.226C32.6244 17.1167 32.7977 16.9659 32.9334 16.7837L37.6834 10.4503C37.9354 10.1144 38.0436 9.69211 37.9842 9.27641C37.9248 8.8607 37.7027 8.48561 37.3667 8.23366C37.2004 8.1089 37.0111 8.01813 36.8097 7.96653C36.6083 7.91493 36.3987 7.9035 36.1928 7.93291C35.7771 7.99229 35.402 8.21439 35.1501 8.55033L31.4957 13.4238L31.2028 13.1309C30.9042 12.8425 30.5043 12.6829 30.0891 12.6865C29.674 12.6901 29.2768 12.8566 28.9833 13.1502C28.6897 13.4438 28.5232 13.8409 28.5196 14.256C28.516 14.6712 28.6756 15.0711 28.964 15.3697L30.5473 16.9531Z" fill="#43B6CD"/>
<path d="M42.7501 11.0837H64.9167C65.3367 11.0837 65.7394 10.9168 66.0363 10.6199C66.3333 10.323 66.5001 9.92025 66.5001 9.50033C66.5001 9.0804 66.3333 8.67767 66.0363 8.38074C65.7394 8.08381 65.3367 7.91699 64.9167 7.91699H42.7501C42.3302 7.91699 41.9274 8.08381 41.6305 8.38074C41.3336 8.67767 41.1667 9.0804 41.1667 9.50033C41.1667 9.92025 41.3336 10.323 41.6305 10.6199C41.9274 10.9168 42.3302 11.0837 42.7501 11.0837Z" fill="#43B6CD"/>
<path d="M42.75 17.4167H55.4167C55.8366 17.4167 56.2393 17.2499 56.5363 16.9529C56.8332 16.656 57 16.2533 57 15.8333C57 15.4134 56.8332 15.0107 56.5363 14.7137C56.2393 14.4168 55.8366 14.25 55.4167 14.25H42.75C42.3301 14.25 41.9274 14.4168 41.6304 14.7137C41.3335 15.0107 41.1667 15.4134 41.1667 15.8333C41.1667 16.2533 41.3335 16.656 41.6304 16.9529C41.9274 17.2499 42.3301 17.4167 42.75 17.4167Z" fill="#43B6CD"/>
<path d="M30.5473 31.2031C30.8442 31.5 31.2469 31.6669 31.6667 31.667H31.7792C32.0057 31.6504 32.2261 31.5853 32.4252 31.476C32.6244 31.3667 32.7977 31.2159 32.9334 31.0337L37.6834 24.7003C37.9354 24.3644 38.0436 23.9421 37.9842 23.5264C37.9248 23.1107 37.7027 22.7356 37.3667 22.4837C37.2004 22.3589 37.0111 22.2681 36.8097 22.2165C36.6083 22.1649 36.3987 22.1535 36.1928 22.1829C35.7771 22.2423 35.402 22.4644 35.1501 22.8003L31.4957 27.6738L31.2028 27.3809C30.9042 27.0925 30.5043 26.9329 30.0891 26.9365C29.674 26.9401 29.2768 27.1066 28.9833 27.4002C28.6897 27.6938 28.5232 28.0909 28.5196 28.506C28.516 28.9212 28.6756 29.3211 28.964 29.6197L30.5473 31.2031Z" fill="#43B6CD"/>
<path d="M42.7501 25.3337H63.3334C63.7533 25.3337 64.1561 25.1668 64.453 24.8699C64.7499 24.573 64.9167 24.1703 64.9167 23.7503C64.9167 23.3304 64.7499 22.9277 64.453 22.6307C64.1561 22.3338 63.7533 22.167 63.3334 22.167H42.7501C42.3302 22.167 41.9274 22.3338 41.6305 22.6307C41.3336 22.9277 41.1667 23.3304 41.1667 23.7503C41.1667 24.1703 41.3336 24.573 41.6305 24.8699C41.9274 25.1668 42.3302 25.3337 42.7501 25.3337Z" fill="#43B6CD"/>
<path d="M42.75 31.6667H55.4167C55.8366 31.6667 56.2393 31.4999 56.5363 31.2029C56.8332 30.906 57 30.5033 57 30.0833C57 29.6634 56.8332 29.2607 56.5363 28.9637C56.2393 28.6668 55.8366 28.5 55.4167 28.5H42.75C42.3301 28.5 41.9274 28.6668 41.6304 28.9637C41.3335 29.2607 41.1667 29.6634 41.1667 30.0833C41.1667 30.5033 41.3335 30.906 41.6304 31.2029C41.9274 31.4999 42.3301 31.6667 42.75 31.6667Z" fill="#43B6CD"/>
<path d="M30.5473 45.4531C30.8442 45.75 31.2469 45.9169 31.6667 45.917H31.7792C32.0057 45.9004 32.2261 45.8353 32.4252 45.726C32.6244 45.6167 32.7977 45.4659 32.9334 45.2837L37.6834 38.9503C37.8082 38.784 37.8989 38.5947 37.9505 38.3933C38.0021 38.1919 38.0136 37.9822 37.9842 37.7764C37.9548 37.5706 37.8851 37.3725 37.7792 37.1936C37.6732 37.0147 37.5331 36.8584 37.3667 36.7337C37.2004 36.6089 37.0111 36.5181 36.8097 36.4665C36.6083 36.4149 36.3987 36.4035 36.1928 36.4329C35.987 36.4623 35.789 36.532 35.61 36.6379C35.4311 36.7438 35.2748 36.884 35.1501 37.0503L31.4957 41.9238L31.2028 41.6309C30.9042 41.3425 30.5043 41.1829 30.0891 41.1865C29.674 41.1901 29.2768 41.3566 28.9833 41.6502C28.6897 41.9438 28.5232 42.3409 28.5196 42.756C28.516 43.1712 28.6756 43.5711 28.964 43.8697L30.5473 45.4531Z" fill="#43B6CD"/>
<path d="M42.7501 39.5837H63.3334C63.7533 39.5837 64.1561 39.4168 64.453 39.1199C64.7499 38.823 64.9167 38.4203 64.9167 38.0003C64.9167 37.5804 64.7499 37.1777 64.453 36.8807C64.1561 36.5838 63.7533 36.417 63.3334 36.417H42.7501C42.3302 36.417 41.9274 36.5838 41.6305 36.8807C41.3336 37.1777 41.1667 37.5804 41.1667 38.0003C41.1667 38.4203 41.3336 38.823 41.6305 39.1199C41.9274 39.4168 42.3302 39.5837 42.7501 39.5837Z" fill="#43B6CD"/>
<path d="M42.75 45.9167H55.4167C55.8366 45.9167 56.2393 45.7499 56.5363 45.4529C56.8332 45.156 57 44.7533 57 44.3333C57 43.9134 56.8332 43.5107 56.5363 43.2137C56.2393 42.9168 55.8366 42.75 55.4167 42.75H42.75C42.3301 42.75 41.9274 42.9168 41.6304 43.2137C41.3335 43.5107 41.1667 43.9134 41.1667 44.3333C41.1667 44.7533 41.3335 45.156 41.6304 45.4529C41.9274 45.7499 42.3301 45.9167 42.75 45.9167Z" fill="#43B6CD"/>
<path d="M30.5473 59.7031C30.8442 60 31.2469 60.1669 31.6667 60.167H31.7792C32.0057 60.1504 32.2261 60.0853 32.4252 59.976C32.6244 59.8667 32.7977 59.7158 32.9334 59.5337L37.6834 53.2003C37.8082 53.034 37.8989 52.8447 37.9505 52.6433C38.0021 52.4419 38.0136 52.2322 37.9842 52.0264C37.9548 51.8206 37.8851 51.6225 37.7792 51.4436C37.6732 51.2647 37.5331 51.1084 37.3667 50.9837C37.2004 50.8589 37.0111 50.7681 36.8097 50.7165C36.6083 50.6649 36.3987 50.6535 36.1928 50.6829C35.987 50.7123 35.789 50.782 35.61 50.8879C35.4311 50.9938 35.2748 51.134 35.1501 51.3003L31.4957 56.1738L31.2028 55.8809C30.9042 55.5925 30.5043 55.4329 30.0891 55.4365C29.674 55.4401 29.2768 55.6066 28.9833 55.9002C28.6897 56.1938 28.5232 56.5909 28.5196 57.006C28.516 57.4212 28.6756 57.8211 28.964 58.1197L30.5473 59.7031Z" fill="#43B6CD"/>
<path d="M42.7501 53.8337H63.3334C63.7533 53.8337 64.1561 53.6668 64.453 53.3699C64.7499 53.073 64.9167 52.6703 64.9167 52.2503C64.9167 51.8304 64.7499 51.4277 64.453 51.1307C64.1561 50.8338 63.7533 50.667 63.3334 50.667H42.7501C42.3302 50.667 41.9274 50.8338 41.6305 51.1307C41.3336 51.4277 41.1667 51.8304 41.1667 52.2503C41.1667 52.6703 41.3336 53.073 41.6305 53.3699C41.9274 53.6668 42.3302 53.8337 42.7501 53.8337Z" fill="#43B6CD"/>
<path d="M42.75 60.1667H55.4167C55.8366 60.1667 56.2393 59.9999 56.5363 59.7029C56.8332 59.406 57 59.0033 57 58.5833C57 58.1634 56.8332 57.7607 56.5363 57.4637C56.2393 57.1668 55.8366 57 55.4167 57H42.75C42.3301 57 41.9274 57.1668 41.6304 57.4637C41.3335 57.7607 41.1667 58.1634 41.1667 58.5833C41.1667 59.0033 41.3335 59.406 41.6304 59.7029C41.9274 59.9999 42.3301 60.1667 42.75 60.1667Z" fill="#43B6CD"/>
</g>
<defs>
<clipPath id="clip0_150_4038">
<rect width="95" height="95" fill="white"/>
</clipPath>
</defs>
</svg>
