<svg width="24" height="24" viewBox="0 0 24 24" fill="none" xmlns="http://www.w3.org/2000/svg">
<path fill-rule="evenodd" clip-rule="evenodd" d="M17.5524 8.59358C17.5999 8.29249 17.5663 7.98419 17.4551 7.70041C17.3438 7.41662 17.159 7.16762 16.9195 6.97902C16.6801 6.79043 16.3947 6.66906 16.0927 6.62741C15.7908 6.58577 15.4832 6.62534 15.2016 6.74208L5.28144 10.8429C4.02377 11.3632 4.20811 13.1996 5.54511 13.4586L7.40127 13.8179C7.91577 13.9171 8.45011 13.8237 8.89927 13.5542L9.44061 13.2311C9.28634 13.537 9.25166 13.8894 9.34335 14.2195C9.43504 14.5495 9.64651 14.8336 9.93644 15.0161L14.1948 17.6854C14.3873 17.8061 14.6067 17.8772 14.8334 17.8922C15.0601 17.9071 15.287 17.8656 15.4937 17.7712C15.7004 17.6768 15.8804 17.5326 16.0176 17.3514C16.1547 17.1703 16.2448 16.9579 16.2796 16.7334L17.5524 8.59358ZM10.6644 13.8552L14.1994 10.4661C14.8294 9.86291 14.0664 8.86424 13.3186 9.31107L8.19461 12.3782C8.03474 12.4736 7.84538 12.5068 7.66261 12.4716L5.80644 12.1122L15.7254 8.01141C15.7817 7.9881 15.8432 7.98019 15.9035 7.9885C15.9639 7.99681 16.0209 8.02104 16.0688 8.0587C16.1167 8.09636 16.1536 8.14609 16.1759 8.20277C16.1982 8.25946 16.205 8.32106 16.1956 8.38124L14.9239 16.5234L10.6644 13.8552Z" fill="#353535"/>
<path fill-rule="evenodd" clip-rule="evenodd" d="M11.6666 0.5C5.22311 0.5 -6.10352e-05 5.72317 -6.10352e-05 12.1667C-6.10352e-05 18.6102 5.22311 23.8333 11.6666 23.8333C18.1101 23.8333 23.3333 18.6102 23.3333 12.1667C23.3333 5.72317 18.1101 0.5 11.6666 0.5ZM1.37194 12.1667C1.37194 9.43635 2.45655 6.81786 4.38718 4.88724C6.3178 2.95661 8.93629 1.872 11.6666 1.872C14.3969 1.872 17.0154 2.95661 18.946 4.88724C20.8767 6.81786 21.9613 9.43635 21.9613 12.1667C21.9613 14.897 20.8767 17.5155 18.946 19.4461C17.0154 21.3767 14.3969 22.4613 11.6666 22.4613C8.93629 22.4613 6.3178 21.3767 4.38718 19.4461C2.45655 17.5155 1.37194 14.897 1.37194 12.1667Z" fill="#353535"/>
</svg>
