<svg width="179" height="276" viewBox="0 0 179 276" fill="none" xmlns="http://www.w3.org/2000/svg">
<g clip-path="url(#clip0_1_41)">
<path d="M3.81 258.82H0L5.8 244.37H10.38L16.17 258.82H12.36L8.15 247.67H8.02L3.8 258.82H3.81ZM3.57 253.14H12.56V255.53H3.57V253.14Z" fill="#353535"/>
<path d="M20.76 258.82V244.37H27.49C28.72 244.37 29.76 244.53 30.58 244.84C31.41 245.16 32.03 245.59 32.44 246.15C32.86 246.71 33.06 247.35 33.06 248.07C33.06 248.63 32.93 249.13 32.67 249.55C32.41 249.98 32.05 250.32 31.59 250.59C31.13 250.86 30.61 251.05 30.03 251.17V251.31C30.67 251.33 31.27 251.49 31.83 251.78C32.39 252.07 32.85 252.47 33.19 252.98C33.54 253.49 33.72 254.11 33.72 254.82C33.72 255.59 33.5 256.27 33.06 256.87C32.62 257.47 31.97 257.94 31.11 258.29C30.25 258.64 29.19 258.81 27.94 258.81H20.76V258.82ZM24.31 250.42H26.94C27.43 250.42 27.86 250.35 28.24 250.2C28.62 250.05 28.92 249.84 29.14 249.57C29.36 249.3 29.47 248.97 29.47 248.59C29.47 248.07 29.25 247.65 28.83 247.33C28.4 247.01 27.79 246.85 27 246.85H24.3V250.43L24.31 250.42ZM24.31 256.32H27.21C28.2 256.32 28.92 256.16 29.37 255.83C29.82 255.5 30.05 255.07 30.05 254.52C30.05 254.12 29.94 253.77 29.71 253.46C29.49 253.15 29.17 252.91 28.75 252.74C28.34 252.57 27.85 252.48 27.28 252.48H24.3V256.32H24.31Z" fill="#353535"/>
<path d="M37.96 246.89V244.37H51.76V246.89H46.61V258.82H43.1V246.89H37.96Z" fill="#353535"/>
<path d="M71.36 251.59C71.36 253.17 71.01 254.51 70.32 255.61C69.63 256.72 68.69 257.56 67.5 258.14C66.31 258.72 64.97 259.01 63.49 259.01C62.01 259.01 60.66 258.72 59.47 258.13C58.28 257.55 57.35 256.7 56.65 255.6C55.96 254.5 55.62 253.16 55.62 251.59C55.62 250.02 55.97 248.67 56.65 247.57C57.34 246.46 58.28 245.62 59.47 245.04C60.66 244.46 62 244.17 63.49 244.17C64.98 244.17 66.31 244.46 67.5 245.04C68.69 245.62 69.63 246.46 70.32 247.57C71.01 248.68 71.36 250.02 71.36 251.59ZM67.76 251.59C67.76 250.57 67.58 249.71 67.23 249.01C66.88 248.31 66.38 247.78 65.74 247.42C65.1 247.06 64.35 246.88 63.49 246.88C62.63 246.88 61.88 247.06 61.24 247.42C60.6 247.78 60.1 248.31 59.75 249.01C59.4 249.71 59.22 250.57 59.22 251.59C59.22 252.61 59.4 253.47 59.75 254.17C60.1 254.87 60.6 255.4 61.24 255.77C61.88 256.13 62.63 256.31 63.49 256.31C64.35 256.31 65.1 256.13 65.74 255.77C66.38 255.41 66.88 254.88 67.23 254.17C67.58 253.47 67.76 252.61 67.76 251.59Z" fill="#353535"/>
<path d="M77.23 244.37H80.7V256.36H85.52V244.37H88.98V256.36H93.74V244.37H97.2V258.82H77.23V244.37Z" fill="#353535"/>
<path d="M113.53 258.82L108.13 252.66H106.91V258.82H103.36V244.37H106.91V250.14H107.63L113.21 244.37H117.63L111.07 251.07L117.93 258.82H113.53Z" fill="#353535"/>
<path d="M136.94 251.59C136.94 253.17 136.59 254.51 135.9 255.61C135.21 256.72 134.27 257.56 133.08 258.14C131.89 258.72 130.55 259.01 129.07 259.01C127.59 259.01 126.24 258.72 125.05 258.13C123.86 257.55 122.93 256.7 122.23 255.6C121.54 254.5 121.2 253.16 121.2 251.59C121.2 250.02 121.55 248.67 122.23 247.57C122.92 246.46 123.86 245.62 125.05 245.04C126.24 244.46 127.58 244.17 129.07 244.17C130.56 244.17 131.89 244.46 133.08 245.04C134.27 245.62 135.21 246.46 135.9 247.57C136.59 248.68 136.94 250.02 136.94 251.59ZM133.34 251.59C133.34 250.57 133.16 249.71 132.81 249.01C132.46 248.31 131.96 247.78 131.32 247.42C130.68 247.06 129.93 246.88 129.07 246.88C128.21 246.88 127.46 247.06 126.82 247.42C126.18 247.78 125.68 248.31 125.33 249.01C124.98 249.71 124.8 250.57 124.8 251.59C124.8 252.61 124.98 253.47 125.33 254.17C125.68 254.87 126.18 255.4 126.82 255.77C127.46 256.13 128.21 256.31 129.07 256.31C129.93 256.31 130.68 256.13 131.32 255.77C131.96 255.41 132.46 254.88 132.81 254.17C133.16 253.47 133.34 252.61 133.34 251.59Z" fill="#353535"/>
<path d="M141.22 258.82V256.37L141.69 256.33C142.3 256.29 142.8 256.09 143.17 255.73C143.55 255.37 143.83 254.8 144.02 254C144.21 253.21 144.33 252.14 144.39 250.8L144.67 244.37H156.07V258.82H152.62V246.82H147.97L147.71 251.85C147.62 253.47 147.4 254.79 147.04 255.81C146.68 256.83 146.11 257.59 145.33 258.08C144.55 258.57 143.49 258.81 142.13 258.81H141.21L141.22 258.82Z" fill="#353535"/>
<path d="M164.47 258.82H160.66L166.46 244.37H171.04L176.83 258.82H173.02L168.81 247.67H168.68L164.46 258.82H164.47ZM164.23 253.14H173.22V255.53H164.23V253.14Z" fill="#353535"/>
<path d="M0.459991 275.66V266.88H2.30999V270.6H7.03999V266.88H8.88999V275.66H7.03999V271.93H2.30999V275.66H0.459991Z" fill="#353535"/>
<path d="M21.58 271.27C21.58 272.22 21.38 273.03 20.96 273.7C20.55 274.37 19.99 274.89 19.29 275.25C18.58 275.61 17.78 275.79 16.89 275.79C16 275.79 15.2 275.61 14.49 275.25C13.78 274.89 13.23 274.38 12.82 273.7C12.41 273.02 12.2 272.22 12.2 271.28C12.2 270.34 12.41 269.52 12.82 268.85C13.23 268.18 13.79 267.66 14.49 267.3C15.2 266.94 16 266.76 16.89 266.76C17.78 266.76 18.58 266.94 19.29 267.3C20 267.66 20.55 268.17 20.96 268.85C21.37 269.52 21.58 270.33 21.58 271.28M19.72 271.28C19.72 270.61 19.6 270.05 19.36 269.59C19.12 269.13 18.79 268.78 18.36 268.55C17.94 268.31 17.45 268.2 16.89 268.2C16.33 268.2 15.84 268.32 15.42 268.55C14.99 268.79 14.66 269.13 14.42 269.59C14.18 270.05 14.06 270.61 14.06 271.28C14.06 271.95 14.18 272.51 14.42 272.97C14.66 273.43 14.99 273.77 15.42 274.01C15.84 274.25 16.34 274.36 16.89 274.36C17.44 274.36 17.94 274.24 18.36 274.01C18.79 273.77 19.12 273.43 19.36 272.97C19.6 272.51 19.72 271.95 19.72 271.28Z" fill="#353535"/>
<path d="M24.9 275.66V266.88H28.81C29.55 266.88 30.16 266.98 30.65 267.18C31.14 267.38 31.51 267.65 31.75 267.99C31.99 268.33 32.12 268.72 32.12 269.16C32.12 269.52 32.04 269.82 31.88 270.08C31.72 270.33 31.51 270.54 31.24 270.69C30.97 270.85 30.67 270.96 30.34 271.03V271.12C30.7 271.14 31.05 271.23 31.38 271.41C31.71 271.58 31.99 271.83 32.2 272.14C32.41 272.46 32.52 272.84 32.52 273.28C32.52 273.72 32.39 274.14 32.14 274.5C31.88 274.86 31.5 275.15 30.98 275.36C30.47 275.57 29.82 275.67 29.04 275.67H24.91L24.9 275.66ZM26.75 270.61H28.58C28.9 270.61 29.19 270.56 29.44 270.46C29.7 270.36 29.9 270.22 30.05 270.03C30.2 269.84 30.27 269.62 30.27 269.36C30.27 269.02 30.13 268.74 29.86 268.52C29.58 268.3 29.17 268.19 28.62 268.19H26.75V270.61ZM26.75 274.33H28.74C29.41 274.33 29.89 274.22 30.19 274C30.49 273.78 30.64 273.49 30.64 273.14C30.64 272.88 30.57 272.65 30.42 272.44C30.27 272.23 30.06 272.06 29.78 271.94C29.5 271.82 29.17 271.76 28.79 271.76H26.75V274.33Z" fill="#353535"/>
<path d="M44.81 271.27C44.81 272.22 44.61 273.03 44.19 273.7C43.78 274.37 43.22 274.89 42.52 275.25C41.81 275.61 41.01 275.79 40.12 275.79C39.23 275.79 38.43 275.61 37.72 275.25C37.01 274.89 36.46 274.38 36.05 273.7C35.64 273.02 35.43 272.22 35.43 271.28C35.43 270.34 35.64 269.52 36.05 268.85C36.46 268.18 37.02 267.66 37.72 267.3C38.43 266.94 39.23 266.76 40.12 266.76C41.01 266.76 41.81 266.94 42.52 267.3C43.23 267.66 43.78 268.17 44.19 268.85C44.6 269.52 44.81 270.33 44.81 271.28M42.95 271.28C42.95 270.61 42.83 270.05 42.59 269.59C42.35 269.13 42.02 268.78 41.59 268.55C41.17 268.31 40.68 268.2 40.12 268.2C39.56 268.2 39.07 268.32 38.65 268.55C38.22 268.79 37.89 269.13 37.65 269.59C37.41 270.05 37.29 270.61 37.29 271.28C37.29 271.95 37.41 272.51 37.65 272.97C37.89 273.43 38.22 273.77 38.65 274.01C39.07 274.25 39.57 274.36 40.12 274.36C40.67 274.36 41.17 274.24 41.59 274.01C42.02 273.77 42.35 273.43 42.59 272.97C42.83 272.51 42.95 271.95 42.95 271.28Z" fill="#353535"/>
<path d="M54.69 266.88V268.22H49.98V275.66H48.13V266.88H54.69Z" fill="#353535"/>
<path d="M66.52 271.27C66.52 272.22 66.32 273.03 65.9 273.7C65.49 274.37 64.93 274.89 64.23 275.25C63.52 275.61 62.72 275.79 61.83 275.79C60.94 275.79 60.14 275.61 59.43 275.25C58.72 274.89 58.17 274.38 57.76 273.7C57.35 273.02 57.14 272.22 57.14 271.28C57.14 270.34 57.35 269.52 57.76 268.85C58.17 268.18 58.73 267.66 59.43 267.3C60.14 266.94 60.94 266.76 61.83 266.76C62.72 266.76 63.52 266.94 64.23 267.3C64.94 267.66 65.49 268.17 65.9 268.85C66.31 269.52 66.52 270.33 66.52 271.28M64.66 271.28C64.66 270.61 64.54 270.05 64.3 269.59C64.06 269.13 63.73 268.78 63.3 268.55C62.88 268.31 62.39 268.2 61.83 268.2C61.27 268.2 60.78 268.32 60.36 268.55C59.93 268.79 59.6 269.13 59.36 269.59C59.12 270.05 59 270.61 59 271.28C59 271.95 59.12 272.51 59.36 272.97C59.6 273.43 59.93 273.77 60.36 274.01C60.78 274.25 61.28 274.36 61.83 274.36C62.38 274.36 62.88 274.24 63.3 274.01C63.73 273.77 64.06 273.43 64.3 272.97C64.54 272.51 64.66 271.95 64.66 271.28Z" fill="#353535"/>
<path d="M83.06 266.88V275.66H81.22V268.2H76.76V275.66H74.92V266.88H83.06Z" fill="#353535"/>
<path d="M95.95 271.27C95.95 272.22 95.75 273.03 95.33 273.7C94.92 274.37 94.36 274.89 93.66 275.25C92.95 275.61 92.15 275.79 91.26 275.79C90.37 275.79 89.57 275.61 88.86 275.25C88.15 274.89 87.6 274.38 87.19 273.7C86.78 273.02 86.57 272.22 86.57 271.28C86.57 270.34 86.78 269.52 87.19 268.85C87.6 268.18 88.16 267.66 88.86 267.3C89.57 266.94 90.37 266.76 91.26 266.76C92.15 266.76 92.95 266.94 93.66 267.3C94.37 267.66 94.92 268.17 95.33 268.85C95.74 269.52 95.95 270.33 95.95 271.28M94.09 271.28C94.09 270.61 93.97 270.05 93.73 269.59C93.49 269.13 93.16 268.78 92.73 268.55C92.31 268.31 91.82 268.2 91.26 268.2C90.7 268.2 90.21 268.32 89.79 268.55C89.36 268.79 89.03 269.13 88.79 269.59C88.55 270.05 88.43 270.61 88.43 271.28C88.43 271.95 88.55 272.51 88.79 272.97C89.03 273.43 89.36 273.77 89.79 274.01C90.21 274.25 90.71 274.36 91.26 274.36C91.81 274.36 92.31 274.24 92.73 274.01C93.16 273.77 93.49 273.43 93.73 272.97C93.97 272.51 94.09 271.95 94.09 271.28Z" fill="#353535"/>
<path d="M105.38 275.66L102.02 271.83H101.12V275.66H99.27V266.88H101.12V270.49H101.58L105.21 266.88H107.49L103.45 270.89L107.66 275.66H105.38Z" fill="#353535"/>
<path d="M119.12 271.27C119.12 272.22 118.92 273.03 118.5 273.7C118.09 274.37 117.53 274.89 116.83 275.25C116.12 275.61 115.32 275.79 114.43 275.79C113.54 275.79 112.74 275.61 112.03 275.25C111.32 274.89 110.77 274.38 110.36 273.7C109.95 273.02 109.74 272.22 109.74 271.28C109.74 270.34 109.95 269.52 110.36 268.85C110.77 268.18 111.33 267.66 112.03 267.3C112.74 266.94 113.54 266.76 114.43 266.76C115.32 266.76 116.12 266.94 116.83 267.3C117.54 267.66 118.09 268.17 118.5 268.85C118.91 269.52 119.12 270.33 119.12 271.28M117.26 271.28C117.26 270.61 117.14 270.05 116.9 269.59C116.66 269.13 116.33 268.78 115.9 268.55C115.48 268.31 114.99 268.2 114.43 268.2C113.87 268.2 113.38 268.32 112.96 268.55C112.53 268.79 112.2 269.13 111.96 269.59C111.72 270.05 111.6 270.61 111.6 271.28C111.6 271.95 111.72 272.51 111.96 272.97C112.2 273.43 112.53 273.77 112.96 274.01C113.38 274.25 113.88 274.36 114.43 274.36C114.98 274.36 115.48 274.24 115.9 274.01C116.33 273.77 116.66 273.43 116.9 272.97C117.14 272.51 117.26 271.95 117.26 271.28Z" fill="#353535"/>
<path d="M121.77 275.66V274.34H122.06C122.45 274.31 122.76 274.19 123 273.96C123.23 273.74 123.4 273.38 123.51 272.88C123.62 272.39 123.69 271.72 123.73 270.89L123.9 266.87H130.59V275.65H128.78V268.18H125.62L125.46 271.38C125.41 272.34 125.29 273.14 125.09 273.77C124.89 274.4 124.57 274.87 124.12 275.19C123.67 275.5 123.05 275.66 122.26 275.66H121.76H121.77Z" fill="#353535"/>
<path d="M134.16 275.66V266.88H140.8V268.22H136.01V270.6H140.46V271.93H136.01V274.33H140.84V275.66H134.16Z" fill="#353535"/>
<path d="M144.26 275.66V266.88H146.11V270.6H150.84V266.88H152.69V275.66H150.84V271.93H146.11V275.66H144.26Z" fill="#353535"/>
<path d="M156.26 266.88H158.09V272.87H158.19L162.99 266.88H164.65V275.66H162.8V269.68H162.71L157.9 275.66H156.26V266.88Z" fill="#353535"/>
<path d="M170.48 271.68H172.5L170.02 275.66H167.96L170.49 271.68H170.48ZM175.76 275.66H173.91V268.21H172.21C171.75 268.21 171.37 268.27 171.08 268.38C170.79 268.5 170.57 268.67 170.43 268.89C170.29 269.11 170.22 269.38 170.22 269.69C170.22 270 170.29 270.26 170.43 270.48C170.57 270.69 170.79 270.86 171.08 270.97C171.38 271.08 171.75 271.14 172.2 271.14H174.68V272.46H171.95C171.17 272.46 170.5 272.35 169.97 272.12C169.43 271.9 169.02 271.58 168.75 271.16C168.47 270.75 168.33 270.26 168.33 269.7C168.33 269.14 168.47 268.65 168.74 268.23C169.02 267.81 169.42 267.48 169.95 267.25C170.48 267.01 171.14 266.9 171.92 266.9H175.75V275.68L175.76 275.66Z" fill="#353535"/>
<path d="M164.47 65.4599C159.59 34.0299 135.81 8.78994 104.4 1.74994C74.29 -5.00006 42.43 8.17994 24.81 34.6599C6.85 61.6599 7.17 95.2999 25.81 121.52C44.82 148.26 52.67 151.65 83.04 176.89C88.38 180.65 89.37 180.65 94.36 176.73C109.52 163.88 119.42 156.52 128.34 148.23L137.1 156.57L137.7 110.2L93.13 114.7L102.11 123.25C99.16 125.66 95.81 128.37 91.77 131.78C89.01 133.95 88.46 133.95 85.5 131.87C68.68 117.9 64.32 116.03 53.79 101.22C43.46 86.7 43.29 68.0899 53.24 53.1399C63 38.4799 80.65 31.1899 97.33 34.9199C114.73 38.8199 127.9 52.7899 130.6 70.1899C130.95 72.4399 131.25 74.6799 131.19 76.9699C131.05 85.7899 128.56 93.8599 123.41 101.07C123.09 101.52 122.78 101.95 122.47 102.37L143.88 100.03L143.5 131.84C146.02 128.7 148.65 125.22 151.47 121.26C160.77 108.22 165.27 93.6499 165.52 77.7099C165.63 73.5699 165.09 69.5099 164.46 65.4499" fill="#353535"/>
<path d="M28.16 199.39V206.76H4.75001L8.92001 202.59V230.97H0.200012V199.4H28.15L28.16 199.39ZM4.46001 212.31H27.36V219.68H4.45001V212.31H4.46001Z" fill="#353535"/>
<path d="M49.21 231.64C45.62 231.64 42.49 230.96 39.82 229.6C37.15 228.24 35.1 226.32 33.65 223.85C32.2 221.38 31.48 218.49 31.48 215.18C31.48 211.87 32.2 208.98 33.65 206.51C35.09 204.04 37.15 202.12 39.82 200.76C42.49 199.4 45.62 198.72 49.21 198.72C52.8 198.72 55.88 199.4 58.53 200.76C61.18 202.12 63.24 204.04 64.7 206.51C66.16 208.98 66.89 211.87 66.89 215.18C66.89 218.49 66.16 221.38 64.7 223.85C63.24 226.32 61.19 228.24 58.53 229.6C55.88 230.96 52.77 231.64 49.21 231.64ZM49.21 224.57C52.04 224.57 54.25 223.75 55.82 222.11C57.39 220.47 58.18 218.16 58.18 215.19C58.18 212.22 57.39 209.87 55.82 208.24C54.25 206.61 52.04 205.8 49.21 205.8C46.38 205.8 44.16 206.61 42.56 208.24C40.96 209.87 40.16 212.18 40.16 215.19C40.16 218.2 40.96 220.47 42.56 222.11C44.16 223.75 46.38 224.57 49.21 224.57Z" fill="#353535"/>
<path d="M106.67 217.75C106.36 220.53 105.41 222.96 103.81 225.06C102.21 227.15 100.11 228.77 97.52 229.92C94.92 231.07 91.94 231.65 88.57 231.65C84.89 231.65 81.68 230.96 78.93 229.59C76.18 228.21 74.04 226.29 72.51 223.82C70.98 221.35 70.21 218.47 70.21 215.19C70.21 211.91 70.98 209.03 72.51 206.56C74.04 204.09 76.18 202.17 78.93 200.79C81.68 199.41 84.89 198.73 88.57 198.73C91.94 198.73 94.92 199.31 97.52 200.46C100.12 201.61 102.21 203.23 103.81 205.32C105.41 207.41 106.36 209.85 106.67 212.62H97.91C97.63 211.27 97.08 210.13 96.27 209.19C95.45 208.25 94.4 207.53 93.09 207.02C91.78 206.51 90.28 206.26 88.56 206.26C86.6 206.26 84.9 206.62 83.46 207.33C82.03 208.05 80.94 209.07 80.18 210.4C79.42 211.73 79.04 213.32 79.04 215.18C79.04 217.04 79.42 218.63 80.18 219.96C80.94 221.29 82.03 222.32 83.46 223.03C84.89 223.74 86.59 224.1 88.56 224.1C90.27 224.1 91.78 223.86 93.09 223.39C94.4 222.91 95.45 222.2 96.27 221.24C97.08 220.29 97.63 219.12 97.91 217.75H106.67Z" fill="#353535"/>
<path d="M119.22 216.86C119.22 218.29 119.49 219.53 120.04 220.59C120.59 221.64 121.4 222.45 122.48 223.01C123.56 223.57 124.89 223.85 126.46 223.85C128.03 223.85 129.39 223.57 130.46 223.01C131.53 222.45 132.33 221.64 132.86 220.59C133.39 219.54 133.66 218.3 133.66 216.86V199.39H142.42V217.28C142.42 220.17 141.75 222.69 140.42 224.84C139.09 226.99 137.23 228.66 134.84 229.85C132.45 231.04 129.66 231.64 126.46 231.64C123.26 231.64 120.5 231.04 118.1 229.85C115.7 228.66 113.83 226.99 112.5 224.84C111.17 222.69 110.5 220.17 110.5 217.28V199.39H119.22V216.86Z" fill="#353535"/>
<path d="M146.46 220.61H155.34C155.48 221.48 155.89 222.24 156.56 222.88C157.23 223.53 158.14 224.02 159.28 224.37C160.42 224.72 161.76 224.9 163.3 224.9C165.43 224.9 167.12 224.63 168.35 224.08C169.58 223.53 170.2 222.73 170.2 221.66C170.2 220.85 169.85 220.21 169.15 219.77C168.45 219.32 167.1 219 165.11 218.8L159.22 218.25C154.87 217.86 151.71 216.87 149.75 215.28C147.78 213.7 146.8 211.55 146.8 208.86C146.8 206.67 147.44 204.82 148.72 203.3C150 201.78 151.79 200.64 154.11 199.87C156.43 199.1 159.13 198.71 162.21 198.71C165.29 198.71 167.93 199.14 170.29 199.99C172.65 200.85 174.52 202.06 175.91 203.63C177.3 205.2 178.05 207.03 178.16 209.1H169.32C169.21 208.34 168.85 207.69 168.25 207.14C167.65 206.59 166.83 206.17 165.79 205.88C164.75 205.59 163.5 205.44 162.04 205.44C160.08 205.44 158.52 205.7 157.37 206.22C156.22 206.74 155.64 207.5 155.64 208.51C155.64 209.24 155.98 209.83 156.67 210.28C157.36 210.73 158.6 211.04 160.4 211.21L166.67 211.84C169.67 212.12 172.07 212.61 173.87 213.29C175.67 213.98 176.97 214.93 177.79 216.13C178.6 217.34 179.01 218.84 179.01 220.63C179.01 222.85 178.35 224.78 177.03 226.42C175.71 228.06 173.86 229.34 171.47 230.25C169.08 231.16 166.3 231.62 163.13 231.62C159.96 231.62 157 231.16 154.52 230.25C152.04 229.34 150.09 228.05 148.69 226.38C147.29 224.71 146.54 222.78 146.46 220.59" fill="#353535"/>
</g>
<defs>
<clipPath id="clip0_1_41">
<rect width="179" height="275.78" fill="white"/>
</clipPath>
</defs>
</svg>
