<svg width="155" height="180" viewBox="0 0 155 180" fill="none" xmlns="http://www.w3.org/2000/svg">
  <path d="M153.47 65.4599C148.59 34.0299 124.81 8.78994 93.4 1.74994C63.29 -5.00006 31.43 8.17994 13.81 34.6599C-4.15 61.6599 -3.83 95.2999 14.81 121.52C33.82 148.26 41.67 151.65 72.04 176.89C77.38 180.65 78.37 180.65 83.36 176.73C98.52 163.88 108.42 156.52 117.34 148.23L126.1 156.57L126.7 110.2L82.13 114.7L91.11 123.25C88.16 125.66 84.81 128.37 80.77 131.78C78.01 133.95 77.46 133.95 74.5 131.87C57.68 117.9 53.32 116.03 42.79 101.22C32.46 86.7 32.29 68.0899 42.24 53.1399C52 38.4799 69.65 31.1899 86.33 34.9199C103.73 38.8199 116.9 52.7899 119.6 70.1899C119.95 72.4399 120.25 74.6799 120.19 76.9699C120.05 85.7899 117.56 93.8599 112.41 101.07C112.09 101.52 111.78 101.95 111.47 102.37L132.88 100.03L132.5 131.84C135.02 128.7 137.65 125.22 140.47 121.26C149.77 108.22 154.27 93.6499 154.52 77.7099C154.63 73.5699 154.09 69.5099 153.46 65.4499" fill="#010101" />
</svg>