<svg width="119" height="119" viewBox="0 0 119 119" fill="none" xmlns="http://www.w3.org/2000/svg">
<g clip-path="url(#clip0_150_3882)">
<path d="M115.033 61.4834H87.2667C86.0918 61.4705 84.9408 61.8148 83.9661 62.4707C82.9914 63.1267 82.239 64.0633 81.8085 65.1565C74.6848 64.5746 67.6944 62.8913 61.0867 60.1665C59.6257 59.5392 58.0157 59.3431 56.4468 59.6014C54.878 59.8597 53.4158 60.5616 52.2331 61.6242L49.3433 64.2026C45.4774 63.6983 41.582 63.4525 37.6833 63.4667C35.9695 63.4817 34.2607 63.6536 32.5782 63.9804C32.468 63.8083 32.3489 63.6422 32.2212 63.4826C31.6639 62.855 30.9801 62.3524 30.2148 62.0079C29.4495 61.6633 28.6199 61.4846 27.7806 61.4834H3.96667C2.91464 61.4834 1.9057 61.9013 1.16181 62.6452C0.417916 63.3891 0 64.398 0 65.4501L0 95.2001C0 96.2521 0.417916 97.261 1.16181 98.0049C1.9057 98.7488 2.91464 99.1667 3.96667 99.1667H24.7322C25.51 99.1645 26.2797 99.0091 26.9975 98.7093C27.7152 98.4095 28.3668 97.9712 28.915 97.4194C35.7828 103.367 42.2253 109.788 48.195 116.636C49.2842 117.955 50.8499 118.791 52.5518 118.962C54.2538 119.133 55.9545 118.626 57.2846 117.55C58.22 116.79 58.9196 115.78 59.3017 114.637C59.7571 114.789 60.228 114.891 60.7059 114.94C61.5508 115.033 62.4058 114.955 63.2205 114.713C64.0351 114.47 64.7932 114.068 65.45 113.528C66.5621 112.643 67.333 111.399 67.6317 110.01C67.8201 110.045 68.0145 110.075 68.2108 110.097C69.8952 110.274 71.5816 109.782 72.9068 108.727C74.2319 107.672 75.0897 106.139 75.2953 104.458C76.3512 104.552 77.4139 104.383 78.3884 103.966C79.363 103.549 80.2189 102.896 80.8796 102.067C81.5404 101.238 81.9854 100.259 82.1749 99.2157C82.3643 98.1727 82.2923 97.099 81.9652 96.0906C82.7586 95.6245 83.6332 95.0632 84.5217 94.4484C84.8029 95.7773 85.5303 96.9701 86.5831 97.8284C87.6359 98.6868 88.9508 99.159 90.3091 99.1667H115.033C116.085 99.1667 117.094 98.7488 117.838 98.0049C118.582 97.261 119 96.2521 119 95.2001V65.4501C119 64.398 118.582 63.3891 117.838 62.6452C117.094 61.9013 116.085 61.4834 115.033 61.4834ZM54.8709 64.5853C55.4944 64.0239 56.2663 63.6536 57.0944 63.5185C57.9226 63.3835 58.772 63.4894 59.5416 63.8237C66.5358 66.7059 73.934 68.4882 81.4734 69.1073L83.9248 89.9323C82.6105 90.984 81.2182 91.9341 79.7598 92.7745L62.2945 73.6214C61.3319 72.5852 59.9971 71.9739 58.5837 71.9218C57.1703 71.8697 55.7941 72.3812 54.7579 73.3437L47.9669 79.7301C47.31 80.3036 46.4615 80.6092 45.5897 80.5864C44.718 80.5637 43.8866 80.2141 43.2605 79.6071C42.6471 78.9376 42.3223 78.0534 42.3564 77.146C42.3906 76.2387 42.7809 75.3813 43.4429 74.7598L54.8709 64.5853ZM24.7322 95.2001H3.96667V65.4501H27.7806C28.0598 65.4502 28.3359 65.5094 28.5907 65.6236C28.8456 65.7379 29.0734 65.9046 29.2593 66.113C29.4452 66.3214 29.585 66.5667 29.6696 66.8329C29.7542 67.099 29.7816 67.38 29.75 67.6575L26.7155 93.4409C26.6602 93.9271 26.4271 94.3758 26.061 94.7005C25.6948 95.0253 25.2216 95.2032 24.7322 95.2001ZM77.3956 99.9601C76.8826 100.374 76.2268 100.569 75.5709 100.502C74.9149 100.435 74.3119 100.112 73.8931 99.6031C73.5614 99.1936 73.0807 98.9326 72.5566 98.8775C72.0325 98.8225 71.508 98.9779 71.0985 99.3095C70.689 99.6412 70.428 100.122 70.373 100.646C70.318 101.17 70.4734 101.695 70.805 102.104C71.2192 102.617 71.4133 103.274 71.3449 103.93C71.2765 104.586 70.9512 105.188 70.4401 105.605C70.1874 105.815 69.8947 105.971 69.5797 106.065C69.2647 106.159 68.9339 106.188 68.6075 106.15C67.9966 106.098 67.4288 105.814 67.0208 105.357L66.4655 104.563C66.165 104.141 65.7112 103.853 65.2013 103.762C64.6913 103.67 64.1657 103.781 63.7368 104.072C63.3079 104.363 63.0098 104.81 62.9063 105.317C62.8028 105.825 62.9022 106.353 63.1831 106.789C63.6041 107.321 63.8118 107.991 63.7656 108.669C63.7194 109.346 63.4226 109.982 62.9332 110.452C62.4303 110.863 61.7868 111.06 61.1401 111.003C60.4934 110.945 59.8949 110.637 59.4722 110.144L58.2227 108.518C57.9071 108.097 57.4373 107.819 56.9166 107.745C56.3958 107.67 55.8669 107.806 55.4461 108.121C55.0253 108.437 54.7471 108.907 54.6727 109.428C54.5983 109.948 54.7338 110.477 55.0494 110.898C55.4817 111.411 55.6936 112.075 55.639 112.743C55.5843 113.412 55.2676 114.032 54.7579 114.468C54.2468 114.883 53.5932 115.08 52.938 115.017C52.2828 114.955 51.6784 114.637 51.2553 114.133C44.8846 106.838 38.0079 100.001 30.6762 93.6729L33.6829 68.1236C33.6968 68.0145 33.6829 67.9074 33.6829 67.8003C35.0039 67.5671 36.342 67.4443 37.6833 67.4334C40.3688 67.4334 42.9213 67.5504 45.3509 67.7587L40.813 71.7967C40.0824 72.4609 39.4919 73.2644 39.0763 74.16C38.6607 75.0557 38.4283 76.0253 38.3928 77.0121C38.3574 77.9988 38.5195 78.9827 38.8697 79.9058C39.2199 80.829 39.7512 81.6728 40.4322 82.3877C41.788 83.7292 43.6058 84.5009 45.5126 84.5444C47.4194 84.588 49.2705 83.9 50.6861 82.6218L57.475 76.2473C57.6036 76.125 57.7552 76.0295 57.921 75.9663C58.0868 75.9032 58.2635 75.8736 58.4409 75.8793C58.6182 75.885 58.7927 75.9259 58.9541 75.9997C59.1155 76.0734 59.2606 76.1785 59.381 76.3088L77.6673 96.3583C77.701 96.4079 77.7348 96.4575 77.7725 96.5031C78.1788 97.0124 78.3672 97.6616 78.2966 98.3093C78.226 98.9569 77.9021 99.5503 77.3956 99.9601ZM115.033 95.2001H90.3091C89.8197 95.2032 89.3464 95.0253 88.9803 94.7005C88.6142 94.3758 88.3811 93.9271 88.3258 93.4409L85.2913 67.6575C85.2597 67.3795 85.2872 67.098 85.3721 66.8315C85.457 66.5649 85.5974 66.3193 85.7839 66.1108C85.9705 65.9023 86.1991 65.7357 86.4546 65.6218C86.7102 65.5079 86.9869 65.4494 87.2667 65.4501H115.033V95.2001Z" fill="white"/>
<path d="M115.866 21.2514L61.2632 0.325257C60.1289 -0.111023 58.8731 -0.111023 57.7388 0.325257L3.13168 21.2514C2.21097 21.5986 1.41792 22.2181 0.858178 23.0274C0.29844 23.8367 -0.00140381 24.7973 -0.00140381 25.7813C-0.00140381 26.7653 0.29844 27.726 0.858178 28.5353C1.41792 29.3446 2.21097 29.9641 3.13168 30.3113L7.93333 32.1498V42.0149C6.77723 42.4237 5.77565 43.1796 5.06561 44.1793C4.35557 45.1791 3.97175 46.3738 3.96667 47.6V53.55C3.96667 54.602 4.38458 55.611 5.12848 56.3549C5.87237 57.0987 6.88131 57.5167 7.93333 57.5167H11.9C12.952 57.5167 13.961 57.0987 14.7049 56.3549C15.4488 55.611 15.8667 54.602 15.8667 53.55V47.6C15.8616 46.3738 15.4778 45.1791 14.7677 44.1793C14.0577 43.1796 13.0561 42.4237 11.9 42.0149V33.6691L27.7667 39.744V49.147C27.7667 50.199 28.1846 51.208 28.9285 51.9519C29.6724 52.6957 30.6813 53.1137 31.7333 53.1137H87.2667C88.3187 53.1137 89.3276 52.6957 90.0715 51.9519C90.8154 51.208 91.2333 50.199 91.2333 49.147V39.744L115.868 30.3113C116.789 29.9641 117.582 29.3446 118.142 28.5353C118.702 27.726 119.001 26.7653 119.001 25.7813C119.001 24.7973 118.702 23.8367 118.142 23.0274C117.582 22.2181 116.789 21.5986 115.868 21.2514H115.866ZM7.93333 53.55V47.6C7.93333 47.074 8.14229 46.5695 8.51424 46.1976C8.88618 45.8256 9.39065 45.6167 9.91667 45.6167C10.4427 45.6167 10.9471 45.8256 11.3191 46.1976C11.691 46.5695 11.9 47.074 11.9 47.6V53.55H7.93333ZM87.2667 49.147H31.7333V30.6028C31.7298 30.0158 31.8936 29.4398 32.2055 28.9425C32.5174 28.4451 32.9645 28.0469 33.4945 27.7944C36.6461 26.303 44.2125 23.8 59.5 23.8C74.7875 23.8 82.354 26.303 85.5154 27.7984C86.0431 28.0518 86.4879 28.45 86.798 28.9465C87.108 29.443 87.2706 30.0174 87.2667 30.6028V49.147ZM114.438 26.6064L91.2333 35.5017V30.6028C91.2361 29.2647 90.8588 27.9534 90.1453 26.8214C89.4318 25.6894 88.4116 24.7833 87.2032 24.2086C82.9886 22.2133 74.7598 19.8333 59.5 19.8333C44.2402 19.8333 36.0114 22.2133 31.8067 24.1967C30.595 24.7712 29.5717 25.6787 28.8563 26.813C28.1409 27.9473 27.763 29.2618 27.7667 30.6028V35.5017L4.56167 26.6084C4.39015 26.5487 4.24146 26.4371 4.13624 26.2891C4.03102 26.1411 3.97449 25.9639 3.97449 25.7823C3.97449 25.6007 4.03102 25.4236 4.13624 25.2756C4.24146 25.1276 4.39015 25.016 4.56167 24.9563L59.1589 4.02814C59.3793 3.94483 59.6226 3.94483 59.8431 4.02814L114.438 24.9563C114.609 25.0164 114.757 25.128 114.862 25.2758C114.966 25.4236 115.023 25.6002 115.023 25.7813C115.023 25.9624 114.966 26.1391 114.862 26.2869C114.757 26.4346 114.609 26.5463 114.438 26.6064Z" fill="white"/>
</g>
<defs>
<clipPath id="clip0_150_3882">
<rect width="119" height="119" fill="white"/>
</clipPath>
</defs>
</svg>
