<svg width="119" height="119" viewBox="0 0 119 119" fill="none" xmlns="http://www.w3.org/2000/svg">
<g clip-path="url(#clip0_150_3891)">
<path d="M109.083 88.782V21.8167C109.083 20.2386 108.456 18.7252 107.341 17.6094C106.225 16.4936 104.711 15.8667 103.133 15.8667H85.3567C85.036 15.5151 84.6849 15.1926 84.3075 14.9028C83.5192 14.307 82.9547 13.463 82.705 12.5069C82.3287 11.0727 81.5774 9.76449 80.5283 8.71671C79.4791 7.66894 78.1699 6.91937 76.7352 6.54501C75.7856 6.29289 74.9477 5.73013 74.3552 4.94645C73.4612 3.75676 72.2644 2.82871 70.8896 2.25904C69.5148 1.68938 68.0123 1.49896 66.5389 1.70766C65.5607 1.84152 64.5659 1.64242 63.7146 1.14241C62.4342 0.394272 60.978 0 59.495 0C58.0121 0 56.5559 0.394272 55.2755 1.14241C54.4246 1.63763 53.4325 1.83382 52.4572 1.69973C50.9859 1.49626 49.487 1.68873 48.1148 2.25732C46.7427 2.82591 45.5469 3.75006 44.6508 4.93455C44.0566 5.72285 43.2127 6.28639 42.2569 6.53311C40.8212 6.91039 39.512 7.66349 38.4641 8.71487C37.4163 9.76625 36.6675 11.0779 36.295 12.5148C36.0429 13.4644 35.4801 14.3023 34.6964 14.8948C34.3188 15.1858 33.9671 15.509 33.6453 15.8607H15.8667C14.2886 15.8607 12.7752 16.4876 11.6594 17.6034C10.5435 18.7193 9.91667 20.2327 9.91667 21.8107V88.782L0.208251 108.197C0.0710098 108.472 -0.000286188 108.776 8.63366e-07 109.083V115.033C8.63366e-07 116.085 0.417916 117.094 1.16181 117.838C1.90571 118.582 2.91464 119 3.96667 119H115.033C116.085 119 117.094 118.582 117.838 117.838C118.582 117.094 119 116.085 119 115.033V109.083C119.003 108.776 118.935 108.473 118.802 108.197L109.083 88.782ZM34.3256 27.5247C35.2661 25.9078 35.6395 24.0231 35.3866 22.1697C35.2788 21.3958 35.3797 20.6072 35.6789 19.8854C35.9781 19.1636 36.4647 18.5349 37.0883 18.0642C38.5864 16.9281 39.6592 15.3216 40.1347 13.5025C40.3324 12.7495 40.7268 12.0626 41.2775 11.5123C41.8281 10.962 42.5153 10.568 43.2684 10.3709C45.0886 9.89904 46.696 8.82626 47.8301 7.32645C48.3036 6.70889 48.9314 6.227 49.6504 5.9293C50.3694 5.6316 51.1542 5.52861 51.9257 5.6307C53.7837 5.8813 55.6723 5.50512 57.2926 4.56168C57.9641 4.1657 58.7294 3.95685 59.5089 3.95685C60.2885 3.95685 61.0538 4.1657 61.7253 4.56168C63.3419 5.50306 65.2269 5.87658 67.0803 5.62276C67.8521 5.51863 68.6377 5.62088 69.3571 5.9191C70.0766 6.21733 70.7041 6.70087 71.1759 7.3205C72.312 8.81853 73.9185 9.8914 75.7376 10.3669C76.4906 10.5646 77.1775 10.9589 77.7278 11.5096C78.2781 12.0603 78.6721 12.7474 78.8692 13.5006C79.3421 15.3203 80.4146 16.9274 81.9137 18.0622C82.5351 18.5323 83.0199 19.1597 83.318 19.8796C83.6161 20.5996 83.7167 21.386 83.6094 22.1578C83.3542 24.0205 83.7306 25.9149 84.6784 27.5386C85.071 28.208 85.278 28.97 85.278 29.746C85.278 30.5221 85.071 31.2841 84.6784 31.9535V31.9713C83.7357 33.591 83.3622 35.4797 83.6173 37.3363C83.7238 38.1082 83.6226 38.8946 83.3242 39.6144C83.0258 40.3343 82.541 40.9616 81.9196 41.4319C80.4216 42.568 79.3487 44.1745 78.8732 45.9935C78.6756 46.7465 78.2812 47.4334 77.7305 47.9837C77.1798 48.5341 76.4927 48.928 75.7395 49.1252C73.9194 49.597 72.312 50.6698 71.1779 52.1696C70.7052 52.7881 70.0774 53.2707 69.3582 53.5685C68.639 53.8663 67.8538 53.9687 67.0823 53.8654C65.2196 53.6104 63.3252 53.9867 61.7015 54.9344C61.03 55.3304 60.2647 55.5392 59.4851 55.5392C58.7056 55.5392 57.9403 55.3304 57.2688 54.9344C55.9864 54.1869 54.5286 53.7933 53.0443 53.794C52.6628 53.7947 52.2818 53.8212 51.9038 53.8733C51.132 53.9781 50.3462 53.8761 49.6266 53.5778C48.9071 53.2796 48.2796 52.7957 47.8083 52.1756C46.6721 50.6775 45.0656 49.6047 43.2466 49.1292C42.4936 48.9315 41.8067 48.5371 41.2564 47.9865C40.706 47.4358 40.3121 46.7486 40.1149 45.9955C39.6431 44.1753 38.5703 42.5679 37.0705 41.4338C36.449 40.9638 35.9642 40.3364 35.6661 39.6164C35.368 38.8965 35.2675 38.1101 35.3747 37.3382C35.6299 35.4756 35.2535 33.5811 34.3057 31.9575C33.9127 31.2842 33.7073 30.5179 33.7108 29.7384C33.7143 28.9588 33.9266 28.1944 34.3256 27.5247ZM80.2239 66.3643C80.2577 66.4519 80.2699 66.5463 80.2595 66.6395C80.249 66.7328 80.2162 66.8222 80.1639 66.9001C80.1115 66.9779 80.0411 67.042 79.9587 67.0869C79.8762 67.1317 79.7842 67.156 79.6903 67.1577H74.3948C73.4162 67.158 72.4773 67.5451 71.7828 68.2346L68.8078 71.2096C68.7379 71.2798 68.652 71.3319 68.5575 71.3616C68.463 71.3913 68.3627 71.3976 68.2652 71.3801C68.1677 71.3625 68.0759 71.3216 67.9977 71.2609C67.9195 71.2001 67.8572 71.1213 67.8161 71.0311L62.3461 58.9744C62.827 58.8067 63.2917 58.5956 63.7344 58.3437C64.586 57.8505 65.5775 57.6545 66.5527 57.7864C68.0242 57.9924 69.5239 57.8011 70.8966 57.2323C72.2692 56.6636 73.4647 55.738 74.3591 54.5516C74.5057 54.3578 74.6682 54.1767 74.8451 54.0102L80.2239 66.3643ZM56.6559 58.9824L51.1839 71.049C51.1419 71.1355 51.0801 71.211 51.0036 71.2693C50.927 71.3275 50.8378 71.3669 50.7432 71.3843C50.6485 71.4017 50.5512 71.3966 50.4589 71.3693C50.3666 71.3421 50.2821 71.2935 50.2121 71.2275L47.2212 68.2366C46.5262 67.5448 45.5857 67.1562 44.6052 67.1557H39.3097C39.2172 67.155 39.1263 67.1323 39.0445 67.0893C38.9627 67.0463 38.8923 66.9844 38.8393 66.9087C38.7863 66.833 38.7522 66.7457 38.7398 66.6541C38.7275 66.5625 38.7372 66.4693 38.7682 66.3822L44.1609 54.0121C44.3395 54.1796 44.5034 54.362 44.6508 54.5576C45.5439 55.7465 46.7398 56.6739 48.1137 57.2429C49.4875 57.8119 50.9889 58.0017 52.4612 57.7924C53.4393 57.6596 54.4337 57.8586 55.2854 58.3576C55.7229 58.606 56.1815 58.8151 56.6559 58.9824ZM34.6925 44.5992C35.4808 45.1934 36.0443 46.0373 36.291 46.9931C36.5906 48.1303 37.1276 49.1912 37.8667 50.106C38.6057 51.0208 39.5301 51.7687 40.579 52.3005L35.1229 64.8154C34.8321 65.506 34.7166 66.2579 34.7868 67.004C34.8569 67.7501 35.1105 68.4672 35.525 69.0916C35.9395 69.7159 36.5019 70.2281 37.1622 70.5824C37.8226 70.9367 38.5603 71.1222 39.3097 71.1224H44.4981L47.4175 74.0438C47.9423 74.5618 48.5845 74.9453 49.2894 75.1617C49.9942 75.3782 50.741 75.4211 51.466 75.2869C52.1911 75.1527 52.873 74.8454 53.4537 74.391C54.0344 73.9367 54.4968 73.3488 54.8015 72.6773L59.5 62.3183L64.1946 72.6654C64.5736 73.4545 65.163 74.1238 65.8978 74.5997C66.6326 75.0756 67.4844 75.3396 68.3596 75.3627C69.5695 75.3608 70.7301 74.8827 71.5904 74.0319L74.5 71.1224H79.6903C80.4416 71.1224 81.1812 70.9362 81.8427 70.5802C82.5043 70.2243 83.0673 69.7098 83.4812 69.0829C83.8951 68.4559 84.147 67.7361 84.2144 66.9878C84.2818 66.2396 84.1625 65.4863 83.8672 64.7955L78.4151 52.3005C79.4651 51.768 80.3904 51.019 81.1299 50.1028C81.8694 49.1866 82.4062 48.124 82.705 46.9852C82.9571 46.0356 83.5199 45.1977 84.3036 44.6052C85.4887 43.7087 86.4133 42.5123 86.9819 41.1394C87.5505 39.7665 87.7426 38.2667 87.5384 36.7948C87.4099 35.8168 87.6087 34.8238 88.1036 33.9706C89.1981 32.0979 89.519 29.8722 88.9981 27.7667H97.1833V79.3334H21.8167V27.7667H29.9999C29.4818 29.8743 29.8048 32.1009 30.9003 33.9745C31.3958 34.8253 31.5921 35.8175 31.4577 36.7928C31.2535 38.2642 31.4457 39.7633 32.0144 41.1356C32.583 42.5078 33.5075 43.7035 34.6925 44.5992ZM13.8833 21.8167C13.8833 21.2907 14.0923 20.7862 14.4642 20.4143C14.8362 20.0423 15.3407 19.8333 15.8667 19.8333H31.5786C31.3715 20.7783 31.3306 21.7521 31.4577 22.7112C31.5043 23.0726 31.5043 23.4386 31.4577 23.8H21.8167C20.7646 23.8 19.7557 24.2179 19.0118 24.9618C18.2679 25.7057 17.85 26.7147 17.85 27.7667V79.3334C17.85 80.3854 18.2679 81.3943 19.0118 82.1382C19.7557 82.8821 20.7646 83.3 21.8167 83.3H97.1833C98.2354 83.3 99.2443 82.8821 99.9882 82.1382C100.732 81.3943 101.15 80.3854 101.15 79.3334V27.7667C101.15 26.7147 100.732 25.7057 99.9882 24.9618C99.2443 24.2179 98.2354 23.8 97.1833 23.8H87.5443C87.4977 23.4372 87.4977 23.07 87.5443 22.7072C87.6705 21.7495 87.6296 20.7771 87.4234 19.8333H103.133C103.659 19.8333 104.164 20.0423 104.536 20.4143C104.908 20.7862 105.117 21.2907 105.117 21.8167V87.2667H13.8833V21.8167ZM13.1257 91.2334H105.874L113.808 107.1H82.6693L79.6943 99.6764C79.4018 98.9382 78.8935 98.3054 78.2357 97.8606C77.5779 97.4158 76.8013 97.1798 76.0073 97.1834H42.9927C42.1991 97.1808 41.4232 97.4175 40.7662 97.8625C40.1092 98.3076 39.6016 98.9404 39.3097 99.6784L36.3406 107.1H5.19237L13.1257 91.2334ZM78.3893 107.1H40.6127L42.9927 101.15H76.0073L78.3893 107.1ZM115.033 115.033H3.96667V111.067H115.033V115.033Z" fill="white"/>
<path d="M59.5 49.5834C63.4227 49.5834 67.2572 48.4202 70.5188 46.2409C73.7804 44.0616 76.3225 40.964 77.8236 37.34C79.3247 33.7159 79.7175 29.7281 78.9522 25.8808C78.187 22.0335 76.298 18.4995 73.5243 15.7258C70.7505 12.9521 67.2166 11.0631 63.3693 10.2978C59.522 9.53258 55.5342 9.92534 51.9101 11.4265C48.286 12.9276 45.1885 15.4697 43.0092 18.7313C40.8299 21.9929 39.6667 25.8274 39.6667 29.7501C39.6724 35.0084 41.7639 40.0498 45.4821 43.768C49.2003 47.4862 54.2416 49.5776 59.5 49.5834ZM59.5 13.8834C62.6381 13.8834 65.7058 14.814 68.315 16.5574C70.9243 18.3009 72.958 20.7789 74.1589 23.6782C75.3598 26.5774 75.674 29.7677 75.0618 32.8455C74.4496 35.9234 72.9384 38.7505 70.7194 40.9695C68.5004 43.1885 65.6733 44.6997 62.5954 45.3119C59.5176 45.9241 56.3273 45.6099 53.4281 44.409C50.5288 43.2081 48.0508 41.1744 46.3073 38.5651C44.5639 35.9559 43.6333 32.8882 43.6333 29.7501C43.6381 25.5434 45.3112 21.5104 48.2858 18.5359C51.2603 15.5613 55.2933 13.8881 59.5 13.8834Z" fill="white"/>
<path d="M54.1311 37.1023C54.503 37.4741 55.0074 37.683 55.5333 37.683C56.0592 37.683 56.5636 37.4741 56.9355 37.1023L66.8522 27.1856C67.2135 26.8116 67.4134 26.3106 67.4089 25.7906C67.4044 25.2705 67.1958 24.7731 66.8281 24.4054C66.4603 24.0376 65.9629 23.8291 65.4429 23.8245C64.9228 23.82 64.4218 24.0199 64.0478 24.3812L55.5333 32.8957L54.9522 32.3145C54.5782 31.9533 54.0772 31.7534 53.5571 31.7579C53.0371 31.7624 52.5397 31.971 52.1719 32.3387C51.8042 32.7064 51.5956 33.2039 51.5911 33.7239C51.5866 34.2439 51.7865 34.7449 52.1478 35.119L54.1311 37.1023Z" fill="white"/>
</g>
<defs>
<clipPath id="clip0_150_3891">
<rect width="119" height="119" fill="white"/>
</clipPath>
</defs>
</svg>
