<svg width="50" height="50" viewBox="0 0 50 50" fill="none" xmlns="http://www.w3.org/2000/svg">
  <path d="M25 10.1562C23.3003 10.1562 21.6388 10.6603 20.2256 11.6046C18.8123 12.5489 17.7109 13.891 17.0604 15.4613C16.41 17.0316 16.2398 18.7595 16.5714 20.4266C16.903 22.0936 17.7214 23.6248 18.9233 24.8267C20.1252 26.0286 21.6564 26.847 23.3234 27.1786C24.9905 27.5102 26.7184 27.34 28.2887 26.6896C29.859 26.0391 31.2012 24.9377 32.1454 23.5244C33.0897 22.1112 33.5938 20.4497 33.5938 18.75C33.5912 16.4716 32.6849 14.2872 31.0738 12.6762C29.4628 11.0651 27.2784 10.1588 25 10.1562ZM25 25.7812C23.6094 25.7812 22.2499 25.3689 21.0937 24.5963C19.9374 23.8237 19.0362 22.7255 18.504 21.4407C17.9718 20.1559 17.8326 18.7422 18.1039 17.3783C18.3752 16.0143 19.0448 14.7615 20.0282 13.7782C21.0115 12.7948 22.2643 12.1252 23.6283 11.8539C24.9922 11.5826 26.406 11.7218 27.6907 12.254C28.9755 12.7862 30.0737 13.6874 30.8463 14.8436C31.6189 15.9999 32.0313 17.3594 32.0313 18.75C32.0292 20.6142 31.2877 22.4014 29.9696 23.7196C28.6514 25.0377 26.8642 25.7792 25 25.7812Z" fill="#43B6CD" />
  <path d="M25 0C20.0289 0.00568624 15.2631 1.98295 11.748 5.49803C8.23295 9.0131 6.25569 13.7789 6.25 18.75C6.25 32.2102 23.7167 49.0723 24.4598 49.7834C24.6053 49.9224 24.7988 50 25 50C25.2012 50 25.3947 49.9224 25.5402 49.7834C26.2833 49.0723 43.75 32.2102 43.75 18.75C43.7443 13.7789 41.767 9.0131 38.252 5.49803C34.7369 1.98295 29.9711 0.00568624 25 0ZM25 48.1205C22.0268 45.1374 7.8125 30.2688 7.8125 18.75C7.8125 14.1916 9.62332 9.81988 12.8466 6.5966C16.0699 3.37332 20.4416 1.5625 25 1.5625C29.5584 1.5625 33.9301 3.37332 37.1534 6.5966C40.3767 9.81988 42.1875 14.1916 42.1875 18.75C42.1875 30.2631 27.9732 45.1362 25 48.1205Z" fill="#43B6CD" />
</svg>