<svg width="95" height="95" viewBox="0 0 95 95" fill="none" xmlns="http://www.w3.org/2000/svg">
<g clip-path="url(#clip0_150_3997)">
<path d="M88.6667 6.33333C88.6667 4.65363 87.9994 3.04272 86.8117 1.85499C85.6239 0.66726 84.013 0 82.3333 0L53.8333 0C52.6043 0 51.3922 0.286149 50.2929 0.835785C49.1936 1.38542 48.2374 2.18345 47.5 3.16667C46.7626 2.18345 45.8064 1.38542 44.7071 0.835785C43.6078 0.286149 42.3957 0 41.1667 0L12.6667 0C10.987 0 9.37605 0.66726 8.18832 1.85499C7.00059 3.04272 6.33333 4.65363 6.33333 6.33333C4.65363 6.33333 3.04272 7.00059 1.85499 8.18832C0.66726 9.37605 0 10.987 0 12.6667L0 83.9167C0 85.5964 0.66726 87.2073 1.85499 88.395C3.04272 89.5827 4.65363 90.25 6.33333 90.25H38.6333C39.1547 90.2501 39.668 90.3789 40.1276 90.625C40.5872 90.8711 40.9789 91.2269 41.268 91.6608C41.9649 92.6715 42.8969 93.4978 43.9839 94.0687C45.0708 94.6395 46.2802 94.9377 47.5079 94.9377C48.7356 94.9377 49.945 94.6395 51.0319 94.0687C52.1189 93.4978 53.0509 92.6715 53.7478 91.6608C54.0354 91.2291 54.4247 90.8747 54.8813 90.6287C55.3379 90.3828 55.848 90.2527 56.3667 90.25H88.6667C90.3464 90.25 91.9573 89.5827 93.145 88.395C94.3327 87.2073 95 85.5964 95 83.9167V12.6667C95 10.987 94.3327 9.37605 93.145 8.18832C91.9573 7.00059 90.3464 6.33333 88.6667 6.33333ZM53.8333 3.16667H82.3333C83.1732 3.16667 83.9786 3.5003 84.5725 4.09416C85.1664 4.68803 85.5 5.49348 85.5 6.33333V77.5833C85.5 78.4232 85.1664 79.2287 84.5725 79.8225C83.9786 80.4164 83.1732 80.75 82.3333 80.75H53.8333C52.1232 80.7531 50.4588 81.3029 49.0833 82.3191V7.91667C49.0833 6.65689 49.5838 5.44871 50.4746 4.55791C51.3654 3.66711 52.5736 3.16667 53.8333 3.16667ZM9.5 6.33333C9.5 5.49348 9.83363 4.68803 10.4275 4.09416C11.0214 3.5003 11.8268 3.16667 12.6667 3.16667H41.1667C42.4264 3.16667 43.6346 3.66711 44.5254 4.55791C45.4162 5.44871 45.9167 6.65689 45.9167 7.91667V82.3413C44.5493 81.307 42.8812 80.7481 41.1667 80.75H12.6667C11.8268 80.75 11.0214 80.4164 10.4275 79.8225C9.83363 79.2287 9.5 78.4232 9.5 77.5833V6.33333ZM91.8333 83.9167C91.8333 84.7565 91.4997 85.562 90.9058 86.1558C90.312 86.7497 89.5065 87.0833 88.6667 87.0833H56.3667C55.3239 87.0824 54.2971 87.3393 53.3778 87.8314C52.4584 88.3234 51.675 89.0351 51.0973 89.9033C50.6951 90.4878 50.1567 90.9658 49.5287 91.296C48.9006 91.6262 48.2017 91.7988 47.4921 91.7988C46.7825 91.7988 46.0836 91.6262 45.4555 91.296C44.8274 90.9658 44.2891 90.4878 43.8868 89.9033C43.3107 89.0374 42.5298 88.327 41.6134 87.8351C40.697 87.3432 39.6734 87.085 38.6333 87.0833H6.33333C5.49348 87.0833 4.68803 86.7497 4.09416 86.1558C3.5003 85.562 3.16667 84.7565 3.16667 83.9167V12.6667C3.16667 11.8268 3.5003 11.0214 4.09416 10.4275C4.68803 9.83363 5.49348 9.5 6.33333 9.5V77.5833C6.33333 79.263 7.00059 80.874 8.18832 82.0617C9.37605 83.2494 10.987 83.9167 12.6667 83.9167H41.1667C41.8974 83.9146 42.6187 84.0819 43.274 84.4055C43.9292 84.7291 44.5004 85.2003 44.9429 85.7818C45.2463 86.1704 45.6343 86.4847 46.0774 86.7009C46.5205 86.9171 47.007 87.0295 47.5 87.0295C47.993 87.0295 48.4795 86.9171 48.9226 86.7009C49.3657 86.4847 49.7537 86.1704 50.0571 85.7818C50.4992 85.1999 51.0704 84.7285 51.7257 84.4049C52.381 84.0812 53.1025 83.9141 53.8333 83.9167H82.3333C84.013 83.9167 85.6239 83.2494 86.8117 82.0617C87.9994 80.874 88.6667 79.263 88.6667 77.5833V9.5C89.5065 9.5 90.312 9.83363 90.9058 10.4275C91.4997 11.0214 91.8333 11.8268 91.8333 12.6667V83.9167Z" fill="#43B6CD"/>
<path d="M14.2501 25.3337H41.1667C41.5867 25.3337 41.9894 25.1668 42.2863 24.8699C42.5833 24.573 42.7501 24.1703 42.7501 23.7503C42.7501 23.3304 42.5833 22.9277 42.2863 22.6307C41.9894 22.3338 41.5867 22.167 41.1667 22.167H14.2501C13.8302 22.167 13.4274 22.3338 13.1305 22.6307C12.8336 22.9277 12.6667 23.3304 12.6667 23.7503C12.6667 24.1703 12.8336 24.573 13.1305 24.8699C13.4274 25.1668 13.8302 25.3337 14.2501 25.3337Z" fill="#43B6CD"/>
<path d="M14.2501 14.2497H31.6667C32.0867 14.2497 32.4894 14.0829 32.7863 13.7859C33.0833 13.489 33.2501 13.0863 33.2501 12.6663C33.2501 12.2464 33.0833 11.8437 32.7863 11.5468C32.4894 11.2498 32.0867 11.083 31.6667 11.083H14.2501C13.8302 11.083 13.4274 11.2498 13.1305 11.5468C12.8336 11.8437 12.6667 12.2464 12.6667 12.6663C12.6667 13.0863 12.8336 13.489 13.1305 13.7859C13.4274 14.0829 13.8302 14.2497 14.2501 14.2497Z" fill="#43B6CD"/>
<path d="M14.2501 33.2497H41.1667C41.5867 33.2497 41.9894 33.0829 42.2863 32.7859C42.5833 32.489 42.7501 32.0863 42.7501 31.6663C42.7501 31.2464 42.5833 30.8437 42.2863 30.5468C41.9894 30.2498 41.5867 30.083 41.1667 30.083H14.2501C13.8302 30.083 13.4274 30.2498 13.1305 30.5468C12.8336 30.8437 12.6667 31.2464 12.6667 31.6663C12.6667 32.0863 12.8336 32.489 13.1305 32.7859C13.4274 33.0829 13.8302 33.2497 14.2501 33.2497Z" fill="#43B6CD"/>
<path d="M14.25 41.1667H41.1667C41.5866 41.1667 41.9893 40.9999 42.2863 40.7029C42.5832 40.406 42.75 40.0033 42.75 39.5833C42.75 39.1634 42.5832 38.7607 42.2863 38.4637C41.9893 38.1668 41.5866 38 41.1667 38H14.25C13.8301 38 13.4274 38.1668 13.1304 38.4637C12.8335 38.7607 12.6667 39.1634 12.6667 39.5833C12.6667 40.0033 12.8335 40.406 13.1304 40.7029C13.4274 40.9999 13.8301 41.1667 14.25 41.1667Z" fill="#43B6CD"/>
<path d="M14.2501 49.0837H41.1667C41.5867 49.0837 41.9894 48.9168 42.2863 48.6199C42.5833 48.323 42.7501 47.9203 42.7501 47.5003C42.7501 47.0804 42.5833 46.6777 42.2863 46.3807C41.9894 46.0838 41.5867 45.917 41.1667 45.917H14.2501C13.8302 45.917 13.4274 46.0838 13.1305 46.3807C12.8336 46.6777 12.6667 47.0804 12.6667 47.5003C12.6667 47.9203 12.8336 48.323 13.1305 48.6199C13.4274 48.9168 13.8302 49.0837 14.2501 49.0837Z" fill="#43B6CD"/>
<path d="M14.2501 56.9997H41.1667C41.5867 56.9997 41.9894 56.8329 42.2863 56.5359C42.5833 56.239 42.7501 55.8363 42.7501 55.4163C42.7501 54.9964 42.5833 54.5937 42.2863 54.2968C41.9894 53.9998 41.5867 53.833 41.1667 53.833H14.2501C13.8302 53.833 13.4274 53.9998 13.1305 54.2968C12.8336 54.5937 12.6667 54.9964 12.6667 55.4163C12.6667 55.8363 12.8336 56.239 13.1305 56.5359C13.4274 56.8329 13.8302 56.9997 14.2501 56.9997Z" fill="#43B6CD"/>
<path d="M14.25 64.9167H41.1667C41.5866 64.9167 41.9893 64.7499 42.2863 64.4529C42.5832 64.156 42.75 63.7533 42.75 63.3333C42.75 62.9134 42.5832 62.5107 42.2863 62.2137C41.9893 61.9168 41.5866 61.75 41.1667 61.75H14.25C13.8301 61.75 13.4274 61.9168 13.1304 62.2137C12.8335 62.5107 12.6667 62.9134 12.6667 63.3333C12.6667 63.7533 12.8335 64.156 13.1304 64.4529C13.4274 64.7499 13.8301 64.9167 14.25 64.9167Z" fill="#43B6CD"/>
<path d="M14.2501 72.8337H41.1667C41.5867 72.8337 41.9894 72.6668 42.2863 72.3699C42.5833 72.073 42.7501 71.6703 42.7501 71.2503C42.7501 70.8304 42.5833 70.4277 42.2863 70.1307C41.9894 69.8338 41.5867 69.667 41.1667 69.667H14.2501C13.8302 69.667 13.4274 69.8338 13.1305 70.1307C12.8336 70.4277 12.6667 70.8304 12.6667 71.2503C12.6667 71.6703 12.8336 72.073 13.1305 72.3699C13.4274 72.6668 13.8302 72.8337 14.2501 72.8337Z" fill="#43B6CD"/>
<path d="M53.8333 25.3337H80.75C81.1699 25.3337 81.5727 25.1668 81.8696 24.8699C82.1665 24.573 82.3333 24.1703 82.3333 23.7503C82.3333 23.3304 82.1665 22.9277 81.8696 22.6307C81.5727 22.3338 81.1699 22.167 80.75 22.167H53.8333C53.4134 22.167 53.0107 22.3338 52.7137 22.6307C52.4168 22.9277 52.25 23.3304 52.25 23.7503C52.25 24.1703 52.4168 24.573 52.7137 24.8699C53.0107 25.1668 53.4134 25.3337 53.8333 25.3337Z" fill="#43B6CD"/>
<path d="M53.8333 14.2497H71.25C71.6699 14.2497 72.0727 14.0829 72.3696 13.7859C72.6665 13.489 72.8333 13.0863 72.8333 12.6663C72.8333 12.2464 72.6665 11.8437 72.3696 11.5468C72.0727 11.2498 71.6699 11.083 71.25 11.083H53.8333C53.4134 11.083 53.0107 11.2498 52.7137 11.5468C52.4168 11.8437 52.25 12.2464 52.25 12.6663C52.25 13.0863 52.4168 13.489 52.7137 13.7859C53.0107 14.0829 53.4134 14.2497 53.8333 14.2497Z" fill="#43B6CD"/>
<path d="M53.8333 33.2497H80.75C81.1699 33.2497 81.5727 33.0829 81.8696 32.7859C82.1665 32.489 82.3333 32.0863 82.3333 31.6663C82.3333 31.2464 82.1665 30.8437 81.8696 30.5468C81.5727 30.2498 81.1699 30.083 80.75 30.083H53.8333C53.4134 30.083 53.0107 30.2498 52.7137 30.5468C52.4168 30.8437 52.25 31.2464 52.25 31.6663C52.25 32.0863 52.4168 32.489 52.7137 32.7859C53.0107 33.0829 53.4134 33.2497 53.8333 33.2497Z" fill="#43B6CD"/>
<path d="M53.8333 41.1667H80.75C81.1699 41.1667 81.5727 40.9999 81.8696 40.7029C82.1665 40.406 82.3333 40.0033 82.3333 39.5833C82.3333 39.1634 82.1665 38.7607 81.8696 38.4637C81.5727 38.1668 81.1699 38 80.75 38H53.8333C53.4134 38 53.0107 38.1668 52.7137 38.4637C52.4168 38.7607 52.25 39.1634 52.25 39.5833C52.25 40.0033 52.4168 40.406 52.7137 40.7029C53.0107 40.9999 53.4134 41.1667 53.8333 41.1667Z" fill="#43B6CD"/>
<path d="M53.8333 49.0837H80.75C81.1699 49.0837 81.5727 48.9168 81.8696 48.6199C82.1665 48.323 82.3333 47.9203 82.3333 47.5003C82.3333 47.0804 82.1665 46.6777 81.8696 46.3807C81.5727 46.0838 81.1699 45.917 80.75 45.917H53.8333C53.4134 45.917 53.0107 46.0838 52.7137 46.3807C52.4168 46.6777 52.25 47.0804 52.25 47.5003C52.25 47.9203 52.4168 48.323 52.7137 48.6199C53.0107 48.9168 53.4134 49.0837 53.8333 49.0837Z" fill="#43B6CD"/>
<path d="M53.8333 56.9997H80.75C81.1699 56.9997 81.5727 56.8329 81.8696 56.5359C82.1665 56.239 82.3333 55.8363 82.3333 55.4163C82.3333 54.9964 82.1665 54.5937 81.8696 54.2968C81.5727 53.9998 81.1699 53.833 80.75 53.833H53.8333C53.4134 53.833 53.0107 53.9998 52.7137 54.2968C52.4168 54.5937 52.25 54.9964 52.25 55.4163C52.25 55.8363 52.4168 56.239 52.7137 56.5359C53.0107 56.8329 53.4134 56.9997 53.8333 56.9997Z" fill="#43B6CD"/>
<path d="M53.8333 64.9167H80.75C81.1699 64.9167 81.5727 64.7499 81.8696 64.4529C82.1665 64.156 82.3333 63.7533 82.3333 63.3333C82.3333 62.9134 82.1665 62.5107 81.8696 62.2137C81.5727 61.9168 81.1699 61.75 80.75 61.75H53.8333C53.4134 61.75 53.0107 61.9168 52.7137 62.2137C52.4168 62.5107 52.25 62.9134 52.25 63.3333C52.25 63.7533 52.4168 64.156 52.7137 64.4529C53.0107 64.7499 53.4134 64.9167 53.8333 64.9167Z" fill="#43B6CD"/>
<path d="M53.8333 72.8337H80.75C81.1699 72.8337 81.5727 72.6668 81.8696 72.3699C82.1665 72.073 82.3333 71.6703 82.3333 71.2503C82.3333 70.8304 82.1665 70.4277 81.8696 70.1307C81.5727 69.8338 81.1699 69.667 80.75 69.667H53.8333C53.4134 69.667 53.0107 69.8338 52.7137 70.1307C52.4168 70.4277 52.25 70.8304 52.25 71.2503C52.25 71.6703 52.4168 72.073 52.7137 72.3699C53.0107 72.6668 53.4134 72.8337 53.8333 72.8337Z" fill="#43B6CD"/>
</g>
<defs>
<clipPath id="clip0_150_3997">
<rect width="95" height="95" fill="white"/>
</clipPath>
</defs>
</svg>
