<svg width="50" height="50" viewBox="0 0 50 50" fill="none" xmlns="http://www.w3.org/2000/svg">
  <g clip-path="url(#clip0_150_973)">
    <path d="M26.1551 16.152H22.4016V15.2216H26.1409C26.4629 15.2216 26.7292 15.1683 26.9399 15.0618C27.1506 14.9529 27.3069 14.8037 27.4087 14.6143C27.5105 14.4226 27.5614 14.2024 27.5614 13.9538C27.5614 13.7076 27.5105 13.4874 27.4087 13.2933C27.3069 13.0992 27.1518 12.9465 26.9435 12.8352C26.7352 12.7216 26.4724 12.6647 26.1551 12.6647H24.6069V19H23.5131V11.7272H26.1551C26.7068 11.7272 27.1672 11.8267 27.5365 12.0255C27.9082 12.2244 28.1864 12.4919 28.3711 12.8281C28.5581 13.1643 28.6516 13.5383 28.6516 13.9503C28.6516 14.3669 28.5569 14.7422 28.3675 15.076C28.1805 15.4074 27.9011 15.6702 27.5294 15.8643C27.1601 16.0561 26.702 16.152 26.1551 16.152ZM26.2084 16.7628V17.6967H22.4016V16.7628H26.2084Z" fill="#43B6CD" />
    <path d="M34.375 15.625C34.375 13.7708 33.8252 11.9582 32.795 10.4165C31.7649 8.87482 30.3007 7.67321 28.5876 6.96363C26.8746 6.25406 24.9896 6.06841 23.171 6.43014C21.3524 6.79188 19.682 7.68476 18.3709 8.99588C17.0597 10.307 16.1669 11.9775 15.8051 13.796C15.4434 15.6146 15.629 17.4996 16.3386 19.2127C17.0482 20.9257 18.2498 22.3899 19.7915 23.42C21.3332 24.4502 23.1458 25 25 25C27.4856 24.9973 29.8686 24.0087 31.6261 22.2512C33.3837 20.4936 34.3723 18.1106 34.375 15.625ZM25 23.4375C23.4548 23.4375 21.9444 22.9793 20.6596 22.1209C19.3748 21.2624 18.3735 20.0423 17.7822 18.6147C17.1909 17.1872 17.0362 15.6163 17.3376 14.1009C17.639 12.5854 18.3831 11.1933 19.4757 10.1007C20.5683 9.00814 21.9604 8.26407 23.4758 7.96262C24.9913 7.66117 26.5622 7.81589 27.9897 8.4072C29.4173 8.99851 30.6374 9.99985 31.4958 11.2846C32.3543 12.5694 32.8125 14.0798 32.8125 15.625C32.8102 17.6963 31.9864 19.6821 30.5217 21.1468C29.0571 22.6114 27.0713 23.4352 25 23.4375Z" fill="#43B6CD" />
    <path d="M48.8047 29.4711C49.5273 28.2887 49.9344 26.9407 49.9871 25.556C50.0397 24.1714 49.7362 22.7963 49.1055 21.5625L39.375 2.67734C38.958 1.87046 38.2435 1.25741 37.3827 0.967887C36.5218 0.67836 35.5821 0.735058 34.7623 1.12599C33.9424 1.51692 33.3068 2.21142 32.9899 3.06258C32.673 3.91374 32.6996 4.85481 33.0641 5.68672L38.9234 19.0039C38.4093 19.0386 37.9087 19.1838 37.4559 19.4296C37.003 19.6753 36.6085 20.0159 36.2992 20.4281L29.0625 30.0781C28.9611 30.2134 28.9062 30.3778 28.9062 30.5469V39.0625H27.3438C27.1365 39.0625 26.9378 39.1448 26.7913 39.2913C26.6448 39.4378 26.5625 39.6365 26.5625 39.8437V44.5312C26.5625 44.7384 26.6448 44.9372 26.7913 45.0837C26.9378 45.2302 27.1365 45.3125 27.3438 45.3125H28.125V48.4375C28.125 48.6447 28.2073 48.8434 28.3538 48.9899C28.5003 49.1364 28.699 49.2187 28.9062 49.2187C29.1135 49.2187 29.3122 49.1364 29.4587 48.9899C29.6052 48.8434 29.6875 48.6447 29.6875 48.4375V45.3125H43.75V48.4375C43.75 48.6447 43.8323 48.8434 43.9788 48.9899C44.1253 49.1364 44.324 49.2187 44.5312 49.2187C44.7385 49.2187 44.9372 49.1364 45.0837 48.9899C45.2302 48.8434 45.3125 48.6447 45.3125 48.4375V45.3125H46.0938C46.301 45.3125 46.4997 45.2302 46.6462 45.0837C46.7927 44.9372 46.875 44.7384 46.875 44.5312V39.8437C46.875 39.6365 46.7927 39.4378 46.6462 39.2913C46.4997 39.1448 46.301 39.0625 46.0938 39.0625H44.5312V36.4148L48.8047 29.4711ZM45.3125 43.75H28.125V40.625H45.3125V43.75ZM30.4688 39.0625V30.8102L37.5516 21.3656C37.8592 20.923 38.33 20.6208 38.8604 20.5253C39.3909 20.4299 39.9375 20.549 40.3801 20.8566C40.8227 21.1642 41.1249 21.635 41.2204 22.1655C41.3158 22.6959 41.1967 23.2426 40.8891 23.6852L36.1422 31.0703C36.0301 31.2447 35.9918 31.4564 36.0359 31.659C36.0799 31.8615 36.2026 32.0383 36.377 32.1504C36.5513 32.2625 36.7631 32.3007 36.9656 32.2567C37.1682 32.2127 37.3449 32.09 37.457 31.9156L42.2039 24.5312C42.4766 24.1102 42.6574 23.6364 42.7346 23.1408C42.8118 22.6451 42.7837 22.1388 42.652 21.6547C42.5204 21.1707 42.2881 20.7199 41.9705 20.3316C41.6529 19.9434 41.257 19.6265 40.8086 19.4016L34.4977 5.05859C34.368 4.76403 34.3138 4.44179 34.3401 4.12102C34.3663 3.80026 34.4722 3.49111 34.648 3.22156C34.8239 2.95201 35.0642 2.73058 35.3472 2.5773C35.6302 2.42403 35.9469 2.34375 36.2688 2.34375C36.6241 2.34318 36.9727 2.44088 37.276 2.62604C37.5794 2.8112 37.8256 3.07662 37.9875 3.39297L47.7148 22.2758C48.2236 23.2704 48.4685 24.3789 48.4261 25.4953C48.3837 26.6116 48.0554 27.6984 47.4727 28.6516L43.0844 35.7812C43.0087 35.9044 42.9687 36.0461 42.9688 36.1906V39.0625H30.4688Z" fill="#43B6CD" />
    <path d="M22.6562 39.0625H21.0937V30.5469C21.0937 30.3778 21.0389 30.2134 20.9375 30.0781L13.6977 20.4281C13.3888 20.0157 12.9945 19.6747 12.5417 19.4287C12.0889 19.1826 11.5884 19.0372 11.0742 19.0023L16.9336 5.68672C17.2892 4.8565 17.3099 3.92088 16.9914 3.07573C16.6728 2.23059 16.0396 1.54144 15.2244 1.15257C14.4092 0.763702 13.4752 0.705254 12.6179 0.989465C11.7606 1.27368 11.0464 1.87851 10.625 2.67735L0.894525 21.5625C0.263804 22.7963 -0.0397468 24.1714 0.0129159 25.5561C0.0655785 26.9407 0.472693 28.2887 1.19531 29.4711L5.46874 36.4148V39.0625H3.90624C3.69904 39.0625 3.50033 39.1448 3.35382 39.2913C3.2073 39.4378 3.12499 39.6366 3.12499 39.8438V44.5313C3.12499 44.7385 3.2073 44.9372 3.35382 45.0837C3.50033 45.2302 3.69904 45.3125 3.90624 45.3125H4.68749V48.4375C4.68749 48.6447 4.7698 48.8434 4.91632 48.9899C5.06283 49.1364 5.26154 49.2188 5.46874 49.2188C5.67594 49.2188 5.87466 49.1364 6.02117 48.9899C6.16768 48.8434 6.24999 48.6447 6.24999 48.4375V45.3125H20.3125V48.4375C20.3125 48.6447 20.3948 48.8434 20.5413 48.9899C20.6878 49.1364 20.8865 49.2188 21.0937 49.2188C21.3009 49.2188 21.4997 49.1364 21.6462 48.9899C21.7927 48.8434 21.875 48.6447 21.875 48.4375V45.3125H22.6562C22.8634 45.3125 23.0622 45.2302 23.2087 45.0837C23.3552 44.9372 23.4375 44.7385 23.4375 44.5313V39.8438C23.4375 39.6366 23.3552 39.4378 23.2087 39.2913C23.0622 39.1448 22.8634 39.0625 22.6562 39.0625ZM6.91562 35.7813L2.52578 28.6484C1.94304 27.6953 1.61475 26.6085 1.57235 25.4922C1.52994 24.3758 1.77484 23.2673 2.28359 22.2727L12.0109 3.39297C12.173 3.07639 12.4194 2.81082 12.7231 2.62564C13.0267 2.44046 13.3756 2.3429 13.7312 2.34375C14.0531 2.34376 14.3698 2.42404 14.6528 2.57731C14.9358 2.73059 15.1761 2.95202 15.352 3.22157C15.5278 3.49112 15.6337 3.80027 15.6599 4.12103C15.6862 4.44179 15.632 4.76404 15.5023 5.0586L9.1914 19.4016C8.74295 19.6264 8.34695 19.9433 8.02924 20.3315C7.71154 20.7197 7.47927 21.1706 7.3476 21.6547C7.21593 22.1387 7.18782 22.6451 7.2651 23.1408C7.34237 23.6364 7.52331 24.1102 7.79609 24.5313L12.543 31.9164C12.6551 32.0908 12.8318 32.2135 13.0344 32.2575C13.2369 32.3015 13.4487 32.2633 13.623 32.1512C13.7974 32.0391 13.9201 31.8623 13.9641 31.6598C14.0081 31.4572 13.9699 31.2455 13.8578 31.0711L9.11093 23.6859C8.80334 23.2434 8.68417 22.6967 8.77962 22.1663C8.87507 21.6358 9.17734 21.165 9.61992 20.8574C10.0625 20.5498 10.6091 20.4307 11.1396 20.5261C11.67 20.6216 12.1408 20.9238 12.4484 21.3664L19.5312 30.8102V39.0625H7.03124V36.1938C7.03189 36.0482 6.99184 35.9053 6.91562 35.7813ZM21.875 43.75H4.68749V40.625H21.875V43.75Z" fill="#43B6CD" />
  </g>
  <defs>
    <clipPath id="clip0_150_973">
      <rect width="50" height="50" fill="white" />
    </clipPath>
  </defs>
</svg>