<svg width="119" height="119" viewBox="0 0 119 119" fill="none" xmlns="http://www.w3.org/2000/svg">
<g clip-path="url(#clip0_150_3854)">
<path d="M10.4403 105.755C9.93745 107.269 9.80117 108.879 10.0427 110.456C10.2842 112.032 10.8965 113.528 11.8294 114.821C12.7622 116.115 13.9888 117.168 15.4083 117.894C16.8277 118.621 18.3994 119 19.994 119H99.006C100.6 119 102.172 118.621 103.591 117.894C105.01 117.168 106.237 116.115 107.17 114.822C108.102 113.529 108.715 112.033 108.956 110.457C109.198 108.881 109.062 107.27 108.56 105.757L101.122 83.4388C100.6 81.9137 99.9631 80.43 99.2182 79.0001L99.7597 76.9414C99.993 76.0538 100.02 75.1245 99.8374 74.2251C99.6551 73.3256 99.269 72.4799 98.7087 71.7531C98.1483 71.0263 97.4287 70.4377 96.6052 70.0326C95.7817 69.6276 94.8762 69.4169 93.9585 69.4167H91.751C85.9077 64.3058 78.4094 61.4871 70.6463 61.4833H69.4167V60.0474C72.9932 58.1738 76.0278 55.4118 78.2286 52.0268C79.3652 49.5436 80.0881 46.8913 80.3686 44.1748C81.7823 43.7745 83.027 42.9241 83.9139 41.7527C84.8008 40.5813 85.2816 39.1526 85.2833 37.6833V25.7833C85.2833 18.9452 82.5669 12.3871 77.7316 7.55176C72.8963 2.71645 66.3382 0 59.5 0C52.6618 0 46.1038 2.71645 41.2684 7.55176C36.4331 12.3871 33.7167 18.9452 33.7167 25.7833V37.6833C33.7185 39.1526 34.1992 40.5813 35.0861 41.7527C35.973 42.9241 37.2177 43.7745 38.6314 44.1748C38.9118 46.8915 39.6354 49.544 40.7734 52.0268C42.9734 55.4118 46.0073 58.1738 49.5833 60.0474V61.4833H48.3537C40.5906 61.4871 33.0923 64.3058 27.249 69.4167H25.0416C24.1237 69.4165 23.218 69.6271 22.3942 70.032C21.5704 70.4369 20.8505 71.0255 20.29 71.7523C19.7294 72.4792 19.3431 73.325 19.1608 74.2246C18.9785 75.1242 19.005 76.0537 19.2383 76.9414L19.7818 79.0021C19.0354 80.4331 18.3976 81.9182 17.8738 83.4448L10.4403 105.755ZM27.7667 115.033V111.067H91.2333V115.033H27.7667ZM104.799 107.015C105.102 107.932 105.183 108.907 105.035 109.861C104.888 110.816 104.516 111.721 103.951 112.504C103.385 113.286 102.642 113.924 101.783 114.363C100.923 114.803 99.9715 115.033 99.006 115.033H95.2V111.067C95.1962 110.117 94.8516 109.2 94.2288 108.482C93.6061 107.765 92.7465 107.295 91.8065 107.158L97.5582 85.2933L104.799 107.015ZM85.0275 69.4167H67.3758C68.2774 68.2489 68.9044 66.8932 69.2104 65.45H70.6404C75.7059 65.4521 80.6767 66.8226 85.0275 69.4167ZM59.5 3.96667C65.2841 3.97349 70.8293 6.27422 74.9192 10.3642C79.0091 14.4541 81.3099 19.9993 81.3167 25.7833V31.535C81.0053 31.3908 80.683 31.2715 80.3528 31.178C79.9968 29.3212 79.0524 27.6284 77.6592 26.3502C76.2661 25.0721 74.4983 24.2766 72.6178 24.0816C68.6708 23.556 64.9166 22.0565 61.6936 19.7183C61.0502 19.2759 60.2877 19.0391 59.507 19.0391C58.7262 19.0391 57.9637 19.2759 57.3203 19.7183C54.1289 22.0746 50.3884 23.5766 46.4536 24.0816C44.5571 24.2555 42.7689 25.0429 41.3602 26.3246C39.9515 27.6062 38.9991 29.3122 38.6472 31.1839C38.319 31.2767 37.9987 31.3955 37.6893 31.539V25.7833C37.6961 20.0003 39.996 14.456 44.0847 10.3663C48.1733 6.27649 53.717 3.97506 59.5 3.96667ZM44.3116 50.2339C43.2387 47.7305 42.606 45.0608 42.4414 42.3422C42.4154 41.8339 42.195 41.355 41.8259 41.0047C41.4567 40.6544 40.967 40.4593 40.458 40.46C39.7216 40.46 39.0154 40.1675 38.4946 39.6467C37.9739 39.126 37.6814 38.4198 37.6814 37.6833C37.6814 36.9469 37.9739 36.2407 38.4946 35.7199C39.0154 35.1992 39.7216 34.9067 40.458 34.9067C40.984 34.9067 41.4885 34.6977 41.8605 34.3258C42.2324 33.9538 42.4414 33.4493 42.4414 32.9233C42.4371 31.714 42.8805 30.5459 43.6861 29.644C44.4917 28.7421 45.6026 28.1701 46.8047 28.0384C51.375 27.4684 55.721 25.7292 59.4227 22.9888C63.2042 25.7311 67.619 27.4704 72.2548 28.0443C73.4494 28.1791 74.5512 28.753 75.3462 29.6547C76.1412 30.5563 76.5726 31.7213 76.5567 32.9233C76.5567 33.4493 76.7656 33.9538 77.1376 34.3258C77.5095 34.6977 78.014 34.9067 78.54 34.9067C79.2764 34.9067 79.9827 35.1992 80.5034 35.7199C81.0241 36.2407 81.3167 36.9469 81.3167 37.6833C81.3167 38.4198 81.0241 39.126 80.5034 39.6467C79.9827 40.1675 79.2764 40.46 78.54 40.46C78.0311 40.4593 77.5413 40.6544 77.1722 41.0047C76.803 41.355 76.5826 41.8339 76.5567 42.3422C76.3921 45.0606 75.7601 47.7302 74.6884 50.2339C72.7586 54.0438 63.8138 59.5 59.5 59.5C55.1863 59.5 46.2414 54.0438 44.3116 50.2339ZM59.5 63.4667C61.5559 63.3598 63.5738 62.8701 65.45 62.0228V63.4667C65.45 65.0447 64.8231 66.5581 63.7073 67.674C62.5915 68.7898 61.078 69.4167 59.5 69.4167C57.922 69.4167 56.4086 68.7898 55.2927 67.674C54.1769 66.5581 53.55 65.0447 53.55 63.4667V62.0228C55.4262 62.8701 57.4441 63.3598 59.5 63.4667ZM48.3537 65.45H49.7817C50.0877 66.8932 50.7147 68.2489 51.6163 69.4167H33.9646C38.316 66.8222 43.2875 65.4517 48.3537 65.45ZM23.4311 74.1767C23.6205 73.9295 23.8643 73.7294 24.1436 73.5918C24.4229 73.4542 24.7302 73.3829 25.0416 73.3833H93.9585C94.2692 73.3832 94.5758 73.4543 94.8548 73.5913C95.1337 73.7282 95.3775 73.9274 95.5673 74.1734C95.7572 74.4194 95.8881 74.7057 95.9499 75.0102C96.0117 75.3147 96.0028 75.6294 95.9239 75.9299L87.7209 107.1H31.2792L23.0761 75.9299C22.9966 75.6301 22.9873 75.3159 23.0488 75.0118C23.1104 74.7078 23.2412 74.422 23.4311 74.1767ZM27.1994 107.16C26.2587 107.295 25.398 107.765 24.7741 108.482C24.1502 109.199 23.8045 110.116 23.8 111.067V115.033H19.994C19.0282 115.033 18.0764 114.803 17.2166 114.363C16.3568 113.924 15.6137 113.286 15.0482 112.503C14.4827 111.72 14.111 110.814 13.9637 109.86C13.8164 108.905 13.8976 107.93 14.2007 107.013L21.4379 85.2933L27.1994 107.16Z" fill="white"/>
<path d="M59.5 101.15C64.968 101.15 69.4166 97.592 69.4166 93.2168C69.4166 88.8415 64.968 85.2834 59.5 85.2834C54.0319 85.2834 49.5833 88.8415 49.5833 93.2168C49.5833 97.592 54.0319 101.15 59.5 101.15ZM59.5 89.2501C62.7249 89.2501 65.45 91.0668 65.45 93.2168C65.45 95.3667 62.7249 97.1834 59.5 97.1834C56.2751 97.1834 53.55 95.3667 53.55 93.2168C53.55 91.0668 56.2751 89.2501 59.5 89.2501Z" fill="white"/>
</g>
<defs>
<clipPath id="clip0_150_3854">
<rect width="119" height="119" fill="white"/>
</clipPath>
</defs>
</svg>
