<svg width="39" height="38" viewBox="0 0 39 38" fill="none" xmlns="http://www.w3.org/2000/svg">
<g filter="url(#filter0_b_150_4124)">
<path d="M0.5 19C0.5 8.50659 9.00659 0 19.5 0C29.9934 0 38.5 8.50659 38.5 19C38.5 29.4934 29.9934 38 19.5 38C9.00659 38 0.5 29.4934 0.5 19Z" fill="url(#paint0_linear_150_4124)" fill-opacity="0.1"/>
<path d="M1 19C1 8.78273 9.28273 0.5 19.5 0.5C29.7173 0.5 38 8.78273 38 19C38 29.2173 29.7173 37.5 19.5 37.5C9.28273 37.5 1 29.2173 1 19Z" stroke="white"/>
</g>
<g clip-path="url(#clip0_150_4124)">
<path fill-rule="evenodd" clip-rule="evenodd" d="M28.0538 22.6483C27.6457 21.8267 27.1081 21.0761 26.4615 20.4253C26.2449 20.1812 26.0185 19.946 25.7828 19.7203L25.7543 19.6925C25.6666 19.6076 25.5801 19.5216 25.4948 19.4345C26.3788 18.2052 27.1352 16.8889 27.7523 15.506L27.777 15.4505L27.7943 15.392C27.876 15.1198 27.969 14.6023 27.639 14.1343C27.297 13.6513 26.7502 13.5643 26.3835 13.5643H24.6982C24.3453 13.548 23.9963 13.6438 23.7013 13.8381C23.4062 14.0324 23.1802 14.3151 23.0557 14.6458C22.6931 15.5095 22.239 16.332 21.7013 17.099V15.1243C21.7013 14.8693 21.6772 14.4418 21.4035 14.0818C21.0765 13.6498 20.6032 13.5643 20.2747 13.5643H17.6003C17.2513 13.5563 16.9125 13.6828 16.6543 13.9176C16.396 14.1524 16.2379 14.4776 16.2127 14.8258L16.2105 14.8595V14.8933C16.2105 15.257 16.3545 15.5255 16.47 15.6943C16.5217 15.77 16.5765 15.839 16.6118 15.8825L16.6193 15.8923C16.6568 15.9388 16.6815 15.9695 16.7062 16.004C16.7722 16.0925 16.866 16.2305 16.893 16.586V17.6908C16.3562 16.7917 15.916 15.8384 15.5798 14.8468L15.5738 14.8303L15.5677 14.8145C15.4763 14.5753 15.33 14.2273 15.0367 13.9618C14.6947 13.6505 14.2897 13.5643 13.9215 13.5643H12.2115C11.8388 13.5643 11.3895 13.6513 11.0543 14.0045C10.725 14.3525 10.6875 14.7695 10.6875 14.99V15.0905L10.7085 15.188C11.1812 17.3864 12.157 19.4453 13.5592 21.203C14.2 22.2136 15.0699 23.0588 16.0984 23.6702C17.127 24.2816 18.2851 24.642 19.479 24.722L19.5097 24.7243H19.5413C20.0858 24.7243 20.6535 24.677 21.0802 24.3928C21.6555 24.0088 21.7013 23.42 21.7013 23.126V22.2725C21.849 22.3925 22.032 22.553 22.2563 22.769C22.5278 23.0405 22.7438 23.276 22.929 23.4815L23.028 23.591C23.172 23.7515 23.3138 23.9098 23.4427 24.0395C23.6047 24.2023 23.805 24.3815 24.0555 24.5143C24.3277 24.6575 24.6135 24.7228 24.9165 24.7228H26.6273C26.988 24.7228 27.5048 24.6373 27.8685 24.2158C28.2645 23.7568 28.2345 23.1935 28.11 22.7893L28.0875 22.7165L28.0538 22.6483ZM23.7638 22.7278C23.5313 22.4679 23.292 22.2143 23.046 21.9673L23.0438 21.965C22.026 20.984 21.5512 20.8138 21.2153 20.8138C21.036 20.8138 20.8387 20.8333 20.7105 20.9938C20.6534 21.0707 20.6156 21.1602 20.6003 21.2548C20.5824 21.3649 20.5743 21.4763 20.5763 21.5878V23.126C20.5763 23.3173 20.5447 23.3975 20.4562 23.456C20.3385 23.5348 20.0872 23.5985 19.548 23.5985C18.5237 23.5288 17.5305 23.217 16.6501 22.6887C15.7698 22.1604 15.0274 21.4307 14.484 20.5595L14.478 20.5498L14.4705 20.5408C13.1641 18.9161 12.2541 17.0095 11.8125 14.972C11.8155 14.8745 11.8365 14.8153 11.871 14.7793C11.9062 14.7418 11.9925 14.6893 12.2115 14.6893H13.9215C14.1112 14.6893 14.2102 14.7313 14.2815 14.795C14.361 14.8685 14.4315 14.9923 14.5155 15.2128C14.9355 16.4473 15.5025 17.6023 16.0402 18.4513C16.3088 18.875 16.5728 19.2283 16.8112 19.478C16.9305 19.6025 17.0468 19.706 17.1585 19.7795C17.2658 19.85 17.388 19.9063 17.514 19.9063C17.58 19.9063 17.6572 19.8988 17.7315 19.8665C17.8118 19.8313 17.8778 19.77 17.919 19.6925C17.9963 19.5515 18.018 19.3438 18.018 19.0715V16.5418C17.9783 15.9283 17.793 15.5825 17.613 15.3373C17.5765 15.2883 17.539 15.24 17.5005 15.1925L17.4908 15.1805C17.4589 15.1416 17.4284 15.1015 17.3993 15.0605C17.3627 15.0144 17.3406 14.9586 17.3355 14.9C17.3414 14.8404 17.3698 14.7853 17.415 14.746C17.4602 14.7067 17.5187 14.6861 17.5785 14.6885H20.2747C20.4292 14.6885 20.481 14.726 20.5072 14.7613C20.5448 14.81 20.5763 14.9113 20.5763 15.1243V18.5203C20.5763 18.9238 20.7622 19.1968 21.0323 19.1968C21.3428 19.1968 21.567 19.0085 21.9585 18.617L21.9653 18.6095L21.9713 18.6028C22.8496 17.5321 23.5671 16.339 24.1012 15.0613L24.1042 15.0523C24.1442 14.9393 24.2201 14.8425 24.3204 14.7767C24.4206 14.711 24.5397 14.68 24.6593 14.6885H26.3843C26.6183 14.6885 26.6947 14.7485 26.7203 14.7838C26.7465 14.8213 26.7653 14.9015 26.7203 15.059C26.1043 16.4363 25.3427 17.7438 24.4485 18.959L24.4425 18.968C24.3562 19.1008 24.261 19.2478 24.2475 19.4158C24.2325 19.5973 24.3105 19.7615 24.4478 19.9385C24.5475 20.0855 24.7537 20.2873 24.963 20.492L24.9825 20.5115C25.2015 20.726 25.4392 20.9585 25.6298 21.1835L25.635 21.1888L25.6403 21.1948C26.2082 21.7615 26.6806 22.4165 27.039 23.1343C27.096 23.3293 27.0615 23.4298 27.0165 23.4815C26.9648 23.5415 26.8485 23.5978 26.628 23.5978H24.9165C24.7998 23.601 24.6843 23.5738 24.5812 23.519C24.455 23.4451 24.3403 23.3531 24.2407 23.246C24.1335 23.1388 24.0173 23.009 23.8748 22.8508L23.7638 22.7278Z" fill="white"/>
</g>
<defs>
<filter id="filter0_b_150_4124" x="-29.5" y="-30" width="98" height="98" filterUnits="userSpaceOnUse" color-interpolation-filters="sRGB">
<feFlood flood-opacity="0" result="BackgroundImageFix"/>
<feGaussianBlur in="BackgroundImageFix" stdDeviation="15"/>
<feComposite in2="SourceAlpha" operator="in" result="effect1_backgroundBlur_150_4124"/>
<feBlend mode="normal" in="SourceGraphic" in2="effect1_backgroundBlur_150_4124" result="shape"/>
</filter>
<linearGradient id="paint0_linear_150_4124" x1="0.5" y1="-2.98344" x2="41.6709" y2="-2.32178" gradientUnits="userSpaceOnUse">
<stop stop-color="white"/>
<stop offset="0.307292" stop-color="white"/>
<stop offset="0.645833" stop-color="white"/>
<stop offset="1" stop-color="white"/>
</linearGradient>
<clipPath id="clip0_150_4124">
<rect width="18" height="18" fill="white" transform="translate(10.5 10)"/>
</clipPath>
</defs>
</svg>
