<svg width="39" height="38" viewBox="0 0 39 38" fill="none" xmlns="http://www.w3.org/2000/svg">
<g filter="url(#filter0_b_150_4128)">
<path d="M0.5 19C0.5 8.50659 9.00659 0 19.5 0C29.9934 0 38.5 8.50659 38.5 19C38.5 29.4934 29.9934 38 19.5 38C9.00659 38 0.5 29.4934 0.5 19Z" fill="url(#paint0_linear_150_4128)" fill-opacity="0.1"/>
<path d="M1 19C1 8.78273 9.28273 0.5 19.5 0.5C29.7173 0.5 38 8.78273 38 19C38 29.2173 29.7173 37.5 19.5 37.5C9.28273 37.5 1 29.2173 1 19Z" stroke="white"/>
</g>
<path d="M25.25 13.1825C24.5623 12.4881 23.7433 11.9375 22.8406 11.5628C21.938 11.1881 20.9698 10.9968 19.9925 11C15.8975 11 12.56 14.3375 12.56 18.4325C12.56 19.745 12.905 21.02 13.55 22.145L12.5 26L16.4375 24.965C17.525 25.5575 18.7475 25.8725 19.9925 25.8725C24.0875 25.8725 27.425 22.535 27.425 18.44C27.425 16.4525 26.6525 14.585 25.25 13.1825ZM19.9925 24.6125C18.8825 24.6125 17.795 24.3125 16.8425 23.75L16.6175 23.615L14.2775 24.23L14.9 21.95L14.75 21.7175C14.1332 20.7328 13.8057 19.5945 13.805 18.4325C13.805 15.0275 16.58 12.2525 19.985 12.2525C21.635 12.2525 23.1875 12.8975 24.35 14.0675C24.9257 14.6404 25.3819 15.3219 25.6922 16.0725C26.0025 16.8231 26.1606 17.6279 26.1575 18.44C26.1725 21.845 23.3975 24.6125 19.9925 24.6125ZM23.3825 19.9925C23.195 19.9025 22.28 19.4525 22.115 19.385C21.9425 19.325 21.8225 19.295 21.695 19.475C21.5675 19.6625 21.215 20.0825 21.11 20.2025C21.005 20.33 20.8925 20.345 20.705 20.2475C20.5175 20.1575 19.9175 19.955 19.2125 19.325C18.6575 18.83 18.29 18.2225 18.1775 18.035C18.0725 17.8475 18.1625 17.75 18.26 17.6525C18.3425 17.57 18.4475 17.435 18.5375 17.33C18.6275 17.225 18.665 17.1425 18.725 17.0225C18.785 16.895 18.755 16.79 18.71 16.7C18.665 16.61 18.29 15.695 18.14 15.32C17.99 14.96 17.8325 15.005 17.72 14.9975H17.36C17.2325 14.9975 17.0375 15.0425 16.865 15.23C16.7 15.4175 16.22 15.8675 16.22 16.7825C16.22 17.6975 16.8875 18.5825 16.9775 18.7025C17.0675 18.83 18.29 20.705 20.15 21.5075C20.5925 21.7025 20.9375 21.815 21.2075 21.8975C21.65 22.04 22.055 22.0175 22.3775 21.9725C22.7375 21.92 23.48 21.5225 23.63 21.0875C23.7875 20.6525 23.7875 20.285 23.735 20.2025C23.6825 20.12 23.57 20.0825 23.3825 19.9925Z" fill="white"/>
<defs>
<filter id="filter0_b_150_4128" x="-29.5" y="-30" width="98" height="98" filterUnits="userSpaceOnUse" color-interpolation-filters="sRGB">
<feFlood flood-opacity="0" result="BackgroundImageFix"/>
<feGaussianBlur in="BackgroundImageFix" stdDeviation="15"/>
<feComposite in2="SourceAlpha" operator="in" result="effect1_backgroundBlur_150_4128"/>
<feBlend mode="normal" in="SourceGraphic" in2="effect1_backgroundBlur_150_4128" result="shape"/>
</filter>
<linearGradient id="paint0_linear_150_4128" x1="0.5" y1="-2.98344" x2="41.6709" y2="-2.32178" gradientUnits="userSpaceOnUse">
<stop stop-color="white"/>
<stop offset="0.307292" stop-color="white"/>
<stop offset="0.645833" stop-color="white"/>
<stop offset="1" stop-color="white"/>
</linearGradient>
</defs>
</svg>
