<svg width="24" height="25" viewBox="0 0 24 25" fill="none" xmlns="http://www.w3.org/2000/svg">
<path d="M19.8333 4.22807C18.7635 3.14786 17.4895 2.29136 16.0854 1.70849C14.6813 1.12562 13.1752 0.828034 11.6549 0.833071C5.28494 0.833071 0.0932725 6.02474 0.0932725 12.3947C0.0932725 14.4364 0.629939 16.4197 1.63327 18.1697L-6.10352e-05 24.1664L6.12494 22.5564C7.81661 23.4781 9.71827 23.9681 11.6549 23.9681C18.0249 23.9681 23.2166 18.7764 23.2166 12.4064C23.2166 9.31474 22.0149 6.40974 19.8333 4.22807ZM11.6549 22.0081C9.92827 22.0081 8.23661 21.5414 6.75494 20.6664L6.40494 20.4564L2.76494 21.4131L3.73327 17.8664L3.49994 17.5047C2.54041 15.973 2.03102 14.2022 2.02994 12.3947C2.02994 7.09807 6.3466 2.7814 11.6433 2.7814C14.2099 2.7814 16.6249 3.78474 18.4333 5.60474C19.3288 6.49591 20.0385 7.55604 20.5212 8.72362C21.0038 9.8912 21.2498 11.143 21.2449 12.4064C21.2683 17.7031 16.9516 22.0081 11.6549 22.0081ZM16.9283 14.8214C16.6366 14.6814 15.2133 13.9814 14.9566 13.8764C14.6883 13.7831 14.5016 13.7364 14.3033 14.0164C14.1049 14.3081 13.5566 14.9614 13.3933 15.1481C13.2299 15.3464 13.0549 15.3697 12.7633 15.2181C12.4716 15.0781 11.5383 14.7631 10.4416 13.7831C9.57827 13.0131 9.00661 12.0681 8.8316 11.7764C8.66827 11.4847 8.80827 11.3331 8.95994 11.1814C9.08827 11.0531 9.25161 10.8431 9.39161 10.6797C9.53161 10.5164 9.58994 10.3881 9.68327 10.2014C9.77661 10.0031 9.72994 9.83974 9.65994 9.69974C9.58994 9.55974 9.00661 8.1364 8.77327 7.55307C8.53994 6.99307 8.29494 7.06307 8.11994 7.0514H7.55994C7.3616 7.0514 7.05827 7.1214 6.78994 7.41307C6.53327 7.70474 5.78661 8.40474 5.78661 9.82807C5.78661 11.2514 6.82494 12.6281 6.96494 12.8147C7.10494 13.0131 9.00661 15.9297 11.8999 17.1781C12.5883 17.4814 13.1249 17.6564 13.5449 17.7847C14.2333 18.0064 14.8633 17.9714 15.3649 17.9014C15.9249 17.8197 17.0799 17.2014 17.3133 16.5247C17.5583 15.8481 17.5583 15.2764 17.4766 15.1481C17.3949 15.0197 17.2199 14.9614 16.9283 14.8214Z" fill="#353535"/>
</svg>
