<svg width="104" height="25" viewBox="0 0 104 25" fill="none" xmlns="http://www.w3.org/2000/svg">
<path fill-rule="evenodd" clip-rule="evenodd" d="M38.4663 25H38.574H38.7175C41.1625 24.9654 43.3554 24.4297 45.1894 23.4295C47.0593 22.3936 48.5336 20.8922 49.5751 19.0711C50.6177 17.2143 51.1569 15 51.1569 12.5005C51.1569 10 50.6177 7.78462 49.5751 5.92893C48.5336 4.1078 47.0593 2.6064 45.1894 1.57053C43.3195 0.570318 41.0919 0 38.575 0C36.0941 0 33.8654 0.570318 31.9966 1.57053C30.1266 2.6064 28.6176 4.1078 27.6098 5.92893C26.5683 7.7857 25.9921 10 25.9921 12.5005C25.9921 15 26.5672 17.2154 27.6098 19.0711C28.6176 20.8922 30.1266 22.3936 31.9966 23.4295C33.8295 24.4297 36.0224 24.9654 38.4674 25H38.4663ZM65.3195 25H65.4271H65.5347C68.0157 24.9654 70.2085 24.4297 72.0415 23.4295C73.9114 22.3936 75.3856 20.8922 76.4271 19.0711C77.4339 17.2143 78.009 15 78.009 12.5005C78.009 10 77.4339 7.78462 76.4271 5.92893C75.3856 4.1078 73.9114 2.6064 72.0415 1.57053C70.1715 0.570318 67.9439 0 65.4271 0C62.9114 0 60.6816 0.570318 58.8486 1.57053C56.9787 2.6064 55.4697 4.1078 54.4271 5.92893C53.4204 7.7857 52.8453 10 52.8453 12.5005C52.8453 15 53.4204 17.2154 54.4271 19.0711C55.4697 20.8922 56.9798 22.3936 58.8486 23.4295C60.6816 24.4297 62.8744 24.9654 65.3195 25ZM0 1.71419V1.74876V6.57161V6.60618C0 7.10521 0.431609 7.49838 0.898005 7.49838H12.7971L0.683829 17.5708C0.251134 17.9283 0 18.463 0 18.9987V19.0333V23.248V23.2837C0 23.7827 0.431609 24.1758 0.898005 24.1758H22.5751C23.0774 24.1758 23.4731 23.746 23.4731 23.2469V18.3895C23.4731 17.8905 23.0774 17.4973 22.5751 17.4973H10.7119L22.8263 7.42601C23.222 7.06848 23.4731 6.53381 23.4731 5.96133V1.7466C23.4731 1.24757 23.0774 0.817672 22.5751 0.817672H0.898005C0.430521 0.817672 0 1.21084 0 1.70987V1.71419ZM62.3015 17.6086C61.4383 17.1441 60.7545 16.4647 60.287 15.607C59.8195 14.7505 59.5683 13.679 59.5683 12.5005C59.5683 11.321 59.8195 10.2495 60.287 9.39296C60.7545 8.53532 61.4383 7.85591 62.3015 7.39144C63.1636 6.92698 64.2421 6.67747 65.4293 6.67747C66.6154 6.67747 67.6939 6.92698 68.556 7.39144C69.4192 7.85591 70.103 8.53532 70.5705 9.39296C71.038 10.2495 71.2892 11.321 71.2892 12.5005C71.2892 13.679 71.038 14.7505 70.5705 15.607C70.103 16.4647 69.4192 17.1441 68.556 17.6086C67.6939 18.073 66.6154 18.3225 65.4293 18.3225C64.2421 18.3225 63.1636 18.073 62.3015 17.6086ZM35.4831 17.6086C34.5851 17.1441 33.9013 16.4647 33.4338 15.607C32.9663 14.7505 32.7152 13.679 32.7152 12.5005C32.7152 11.321 32.9663 10.2495 33.4338 9.39296C33.9013 8.53532 34.5851 7.85591 35.4831 7.39144C36.3453 6.92698 37.3879 6.67747 38.574 6.67747C39.797 6.67747 40.8385 6.92698 41.7018 7.39144C42.5639 7.85591 43.2836 8.53532 43.75 9.39296C44.2175 10.2495 44.4697 11.321 44.4697 12.5005C44.4697 13.679 44.2175 14.7505 43.75 15.607C43.2836 16.4647 42.5639 17.1441 41.7018 17.6086C40.8385 18.073 39.797 18.3225 38.574 18.3225C37.3879 18.3225 36.3453 18.073 35.4831 17.6086ZM98.213 0.820912C97.7107 0.820912 97.315 1.24973 97.315 1.74876V13.5353L87.1782 1.49924C86.7825 1.07043 86.2791 0.820912 85.704 0.820912H81.4249C80.9226 0.820912 80.5269 1.24973 80.5269 1.74876V23.2512C80.5269 23.7503 80.9226 24.1802 81.4249 24.1802H86.3139C86.8161 24.1802 87.2488 23.7503 87.2488 23.2512V11.4647L97.3856 23.5008C97.7455 23.9296 98.2836 24.1802 98.8598 24.1802H103.102C103.604 24.1802 104 23.7503 104 23.2512V1.74876C104 1.24973 103.604 0.820912 103.102 0.820912H98.213Z" fill="url(#paint0_linear_150_11737)"/>
<defs>
<linearGradient id="paint0_linear_150_11737" x1="77.074" y1="12.5005" x2="19.5571" y2="12.5005" gradientUnits="userSpaceOnUse">
<stop stop-color="#5A3BF1"/>
<stop offset="1" stop-color="#3F4155"/>
</linearGradient>
</defs>
</svg>
