<svg width="454" height="128" viewBox="0 0 454 128" fill="none" xmlns="http://www.w3.org/2000/svg">
  <g clip-path="url(#clip0_1_9)">
    <path d="M71.11 2.32996V21.07H11.57L22.17 10.47V82.65H0V2.32996H71.11ZM10.82 35.2H69.08V53.94H10.82V35.2Z"
      fill="#353535" />
    <path
      d="M269.23 49.02C268.44 56.09 266.02 62.28 261.95 67.6C257.88 72.92 252.54 77.04 245.94 79.97C239.34 82.9 231.75 84.36 223.18 84.36C213.83 84.36 205.65 82.61 198.66 79.11C191.66 75.61 186.22 70.72 182.33 64.44C178.44 58.16 176.49 50.84 176.49 42.49C176.49 34.14 178.44 26.82 182.33 20.54C186.22 14.26 191.66 9.37 198.66 5.87C205.66 2.37 213.83 0.619995 223.18 0.619995C231.75 0.619995 239.33 2.08 245.94 5.01C252.54 7.94 257.88 12.06 261.95 17.38C266.02 22.7 268.44 28.89 269.23 35.96H246.96C246.25 32.53 244.85 29.62 242.78 27.23C240.71 24.84 238.01 23 234.7 21.71C231.38 20.43 227.54 19.78 223.19 19.78C218.19 19.78 213.87 20.69 210.23 22.51C206.59 24.33 203.81 26.94 201.88 30.33C199.95 33.72 198.99 37.77 198.99 42.48C198.99 47.19 199.95 51.24 201.88 54.63C203.81 58.02 206.59 60.63 210.23 62.45C213.87 64.27 218.19 65.18 223.19 65.18C227.54 65.18 231.38 64.57 234.7 63.36C238.02 62.15 240.71 60.33 242.78 57.9C244.85 55.47 246.24 52.51 246.96 49.01H269.23V49.02Z"
      fill="#353535" />
    <path
      d="M301.14 46.77C301.14 50.41 301.84 53.57 303.23 56.25C304.62 58.93 306.69 60.98 309.44 62.41C312.19 63.84 315.56 64.55 319.56 64.55C323.56 64.55 327.02 63.84 329.73 62.41C332.44 60.98 334.48 58.93 335.83 56.25C337.18 53.57 337.87 50.41 337.87 46.77V2.32996H360.14V47.84C360.14 55.19 358.44 61.6 355.05 67.06C351.66 72.52 346.93 76.77 340.86 79.8C334.79 82.83 327.69 84.35 319.55 84.35C311.41 84.35 304.4 82.83 298.29 79.8C292.19 76.77 287.44 72.52 284.05 67.06C280.66 61.6 278.96 55.19 278.96 47.84V2.32996H301.13V46.77H301.14Z"
      fill="#353535" />
    <path
      d="M370.42 56.3H393.02C393.37 58.51 394.41 60.44 396.12 62.08C397.83 63.72 400.14 64.99 403.03 65.88C405.92 66.77 409.33 67.22 413.26 67.22C418.68 67.22 422.97 66.52 426.11 65.13C429.25 63.74 430.82 61.69 430.82 58.97C430.82 56.9 429.93 55.29 428.14 54.15C426.35 53.01 422.93 52.19 417.86 51.69L402.87 50.3C391.8 49.3 383.77 46.78 378.77 42.75C373.77 38.72 371.27 33.27 371.27 26.42C371.27 20.85 372.89 16.14 376.14 12.28C379.39 8.42998 383.96 5.51998 389.85 3.54998C395.74 1.58998 402.61 0.599976 410.46 0.599976C418.31 0.599976 425.02 1.68998 431.02 3.86998C437.02 6.04998 441.78 9.13998 445.32 13.13C448.85 17.13 450.76 21.77 451.05 27.05H428.56C428.27 25.12 427.36 23.46 425.83 22.07C424.29 20.68 422.21 19.61 419.57 18.86C416.93 18.11 413.75 17.74 410.04 17.74C405.04 17.74 401.08 18.4 398.15 19.72C395.22 21.04 393.76 22.99 393.76 25.56C393.76 27.42 394.63 28.92 396.38 30.06C398.13 31.2 401.29 31.99 405.86 32.42L421.82 34.03C429.46 34.74 435.56 35.98 440.13 37.73C444.7 39.48 448.02 41.89 450.09 44.96C452.16 48.03 453.19 51.85 453.19 56.42C453.19 62.06 451.51 66.97 448.16 71.14C444.8 75.32 440.09 78.57 434.02 80.88C427.95 83.2 420.88 84.36 412.82 84.36C404.76 84.36 397.24 83.2 390.92 80.88C384.6 78.56 379.66 75.28 376.09 71.03C372.52 66.78 370.63 61.87 370.41 56.3"
      fill="#353535" />
    <path
      d="M270.35 109.85H265.98L271.66 95.37H277.08L282.76 109.85H278.39L274.44 99.02H274.31L270.37 109.85H270.35ZM269.77 104.15H278.91V106.81H269.77V104.15Z"
      fill="#353535" />
    <path
      d="M287.14 109.85V95.37H294.16C295.42 95.37 296.48 95.52 297.33 95.83C298.18 96.14 298.82 96.57 299.25 97.12C299.68 97.67 299.9 98.31 299.9 99.03C299.9 99.58 299.76 100.07 299.5 100.5C299.23 100.93 298.86 101.29 298.39 101.57C297.92 101.85 297.37 102.05 296.75 102.16V102.3C297.43 102.33 298.06 102.49 298.64 102.77C299.22 103.06 299.68 103.46 300.03 103.97C300.38 104.48 300.56 105.09 300.56 105.78C300.56 106.56 300.33 107.25 299.87 107.86C299.41 108.47 298.74 108.95 297.87 109.3C297 109.65 295.94 109.83 294.7 109.83H287.15L287.14 109.85ZM291.21 101.33H293.46C293.9 101.33 294.3 101.27 294.64 101.14C294.98 101.01 295.25 100.83 295.45 100.59C295.64 100.35 295.74 100.06 295.74 99.72C295.74 99.23 295.54 98.85 295.14 98.57C294.74 98.29 294.2 98.15 293.52 98.15H291.2V101.32L291.21 101.33ZM291.21 107.03H293.72C294.6 107.03 295.25 106.89 295.67 106.6C296.09 106.31 296.3 105.91 296.3 105.4C296.3 105.03 296.2 104.71 295.99 104.44C295.79 104.17 295.5 103.96 295.13 103.81C294.76 103.66 294.31 103.59 293.79 103.59H291.2V107.04L291.21 107.03Z"
      fill="#353535" />
    <path d="M304.54 98.22V95.37H318.77V98.22H313.66V109.85H309.65V98.22H304.54Z" fill="#353535" />
    <path
      d="M338.46 102.61C338.46 104.2 338.1 105.55 337.39 106.66C336.68 107.77 335.71 108.61 334.5 109.18C333.29 109.76 331.93 110.04 330.42 110.04C328.91 110.04 327.55 109.75 326.34 109.17C325.13 108.59 324.17 107.75 323.46 106.64C322.75 105.54 322.4 104.19 322.4 102.6C322.4 101.01 322.75 99.66 323.46 98.55C324.17 97.44 325.13 96.6 326.34 96.03C327.55 95.45 328.91 95.17 330.42 95.17C331.93 95.17 333.29 95.46 334.5 96.03C335.71 96.6 336.68 97.45 337.39 98.55C338.1 99.66 338.46 101.01 338.46 102.6M334.3 102.6C334.3 101.66 334.14 100.86 333.84 100.21C333.53 99.56 333.09 99.07 332.51 98.73C331.93 98.4 331.24 98.23 330.43 98.23C329.62 98.23 328.93 98.4 328.35 98.73C327.77 99.06 327.32 99.56 327.01 100.21C326.7 100.86 326.55 101.66 326.55 102.6C326.55 103.54 326.71 104.34 327.01 104.99C327.32 105.64 327.77 106.13 328.35 106.47C328.93 106.8 329.62 106.97 330.43 106.97C331.24 106.97 331.94 106.8 332.51 106.47C333.09 106.14 333.53 105.64 333.84 104.99C334.15 104.34 334.3 103.54 334.3 102.6Z"
      fill="#353535" />
    <path d="M344.3 95.37H348.26V107.11H352.73V95.37H356.66V107.11H361.05V95.37H364.99V109.85H344.3V95.37Z"
      fill="#353535" />
    <path
      d="M381.29 109.85L376 103.84H375.08V109.85H371.01V95.37H375.08V100.99H375.73L380.94 95.37H386.03L379.54 102.21L386.36 109.85H381.29Z"
      fill="#353535" />
    <path
      d="M405.32 102.61C405.32 104.2 404.97 105.55 404.25 106.66C403.54 107.77 402.57 108.61 401.36 109.18C400.15 109.76 398.79 110.04 397.28 110.04C395.77 110.04 394.41 109.75 393.19 109.17C391.98 108.59 391.02 107.75 390.31 106.64C389.6 105.54 389.25 104.19 389.25 102.6C389.25 101.01 389.6 99.66 390.31 98.55C391.02 97.44 391.98 96.6 393.19 96.03C394.4 95.45 395.76 95.17 397.28 95.17C398.8 95.17 400.15 95.46 401.36 96.03C402.57 96.6 403.54 97.45 404.25 98.55C404.96 99.66 405.32 101.01 405.32 102.6M401.16 102.6C401.16 101.66 401 100.86 400.7 100.21C400.39 99.56 399.95 99.07 399.37 98.73C398.79 98.4 398.1 98.23 397.29 98.23C396.48 98.23 395.79 98.4 395.21 98.73C394.63 99.06 394.19 99.56 393.87 100.21C393.56 100.86 393.41 101.66 393.41 102.6C393.41 103.54 393.57 104.34 393.87 104.99C394.18 105.64 394.63 106.13 395.21 106.47C395.79 106.8 396.49 106.97 397.29 106.97C398.09 106.97 398.8 106.8 399.37 106.47C399.95 106.14 400.39 105.64 400.7 104.99C401.01 104.34 401.16 103.54 401.16 102.6Z"
      fill="#353535" />
    <path
      d="M409.53 109.85V107.11L409.99 107.07C410.58 107.01 411.06 106.8 411.44 106.45C411.81 106.1 412.1 105.54 412.29 104.77C412.48 104 412.61 102.96 412.67 101.64L412.94 95.38H424.75V109.86H420.81V98.14H416.69L416.43 102.93C416.34 104.58 416.09 105.92 415.7 106.93C415.3 107.95 414.69 108.69 413.87 109.15C413.05 109.62 411.94 109.85 410.55 109.85H409.53Z"
      fill="#353535" />
    <path
      d="M433.52 109.85H429.15L434.83 95.37H440.25L445.93 109.85H441.56L437.61 99.02H437.48L433.53 109.85H433.52ZM432.94 104.15H442.08V106.81H432.94V104.15Z"
      fill="#353535" />
    <path d="M266.29 126.98V118.05H268.17V121.83H272.98V118.05H274.86V126.98H272.98V123.19H268.17V126.98H266.29Z"
      fill="#353535" />
    <path
      d="M287.77 122.51C287.77 123.47 287.56 124.3 287.14 124.98C286.72 125.66 286.16 126.19 285.44 126.55C284.72 126.91 283.91 127.1 283 127.1C282.09 127.1 281.28 126.92 280.56 126.55C279.84 126.19 279.27 125.66 278.86 124.98C278.44 124.3 278.23 123.47 278.23 122.51C278.23 121.55 278.44 120.73 278.86 120.04C279.28 119.36 279.84 118.83 280.56 118.47C281.28 118.11 282.09 117.92 283 117.92C283.91 117.92 284.72 118.1 285.44 118.47C286.16 118.83 286.73 119.36 287.14 120.04C287.56 120.72 287.77 121.55 287.77 122.51ZM285.88 122.51C285.88 121.83 285.76 121.26 285.51 120.8C285.27 120.33 284.93 119.98 284.49 119.74C284.06 119.5 283.56 119.38 282.99 119.38C282.42 119.38 281.93 119.5 281.5 119.74C281.07 119.98 280.73 120.33 280.48 120.8C280.24 121.27 280.11 121.84 280.11 122.51C280.11 123.18 280.23 123.76 280.48 124.23C280.72 124.7 281.06 125.05 281.5 125.29C281.93 125.53 282.43 125.65 282.99 125.65C283.55 125.65 284.05 125.53 284.49 125.29C284.92 125.05 285.26 124.7 285.51 124.23C285.75 123.76 285.88 123.19 285.88 122.51Z"
      fill="#353535" />
    <path
      d="M291.15 126.98V118.05H295.12C295.87 118.05 296.49 118.15 296.99 118.35C297.49 118.55 297.86 118.83 298.11 119.18C298.36 119.53 298.48 119.92 298.48 120.37C298.48 120.73 298.4 121.04 298.24 121.3C298.08 121.56 297.86 121.77 297.59 121.93C297.32 122.09 297.01 122.2 296.67 122.27V122.36C297.04 122.38 297.39 122.47 297.73 122.65C298.07 122.83 298.35 123.07 298.56 123.39C298.78 123.71 298.88 124.1 298.88 124.55C298.88 125 298.75 125.43 298.49 125.79C298.23 126.16 297.84 126.45 297.31 126.66C296.79 126.87 296.13 126.98 295.33 126.98H291.13H291.15ZM293.03 121.85H294.89C295.21 121.85 295.51 121.8 295.77 121.7C296.03 121.6 296.24 121.45 296.39 121.26C296.54 121.07 296.61 120.84 296.61 120.58C296.61 120.23 296.47 119.95 296.19 119.73C295.91 119.51 295.49 119.39 294.93 119.39H293.03V121.85ZM293.03 125.63H295.05C295.73 125.63 296.22 125.52 296.53 125.29C296.83 125.06 296.98 124.77 296.98 124.42C296.98 124.16 296.91 123.92 296.75 123.7C296.6 123.49 296.38 123.32 296.1 123.19C295.82 123.07 295.48 123.01 295.1 123.01H293.03V125.62V125.63Z"
      fill="#353535" />
    <path
      d="M311.39 122.51C311.39 123.47 311.18 124.3 310.76 124.98C310.34 125.66 309.78 126.19 309.06 126.55C308.34 126.91 307.53 127.1 306.62 127.1C305.71 127.1 304.9 126.92 304.18 126.55C303.46 126.19 302.89 125.66 302.48 124.98C302.06 124.3 301.85 123.47 301.85 122.51C301.85 121.55 302.06 120.73 302.48 120.04C302.9 119.36 303.46 118.83 304.18 118.47C304.9 118.11 305.71 117.92 306.62 117.92C307.53 117.92 308.34 118.1 309.06 118.47C309.78 118.83 310.35 119.36 310.76 120.04C311.18 120.72 311.39 121.55 311.39 122.51ZM309.5 122.51C309.5 121.83 309.38 121.26 309.13 120.8C308.89 120.33 308.55 119.98 308.11 119.74C307.68 119.5 307.18 119.38 306.61 119.38C306.04 119.38 305.55 119.5 305.12 119.74C304.69 119.98 304.35 120.33 304.1 120.8C303.86 121.27 303.73 121.84 303.73 122.51C303.73 123.18 303.85 123.76 304.1 124.23C304.34 124.7 304.68 125.05 305.12 125.29C305.55 125.53 306.05 125.65 306.61 125.65C307.17 125.65 307.67 125.53 308.11 125.29C308.54 125.05 308.88 124.7 309.13 124.23C309.37 123.76 309.5 123.19 309.5 122.51Z"
      fill="#353535" />
    <path d="M321.44 118.05V119.41H316.65V126.98H314.77V118.05H321.44Z" fill="#353535" />
    <path
      d="M333.47 122.51C333.47 123.47 333.26 124.3 332.84 124.98C332.42 125.66 331.86 126.19 331.14 126.55C330.42 126.91 329.61 127.1 328.7 127.1C327.79 127.1 326.98 126.92 326.26 126.55C325.54 126.19 324.97 125.66 324.56 124.98C324.14 124.3 323.93 123.47 323.93 122.51C323.93 121.55 324.14 120.73 324.56 120.04C324.98 119.36 325.54 118.83 326.26 118.47C326.98 118.11 327.79 117.92 328.7 117.92C329.61 117.92 330.42 118.1 331.14 118.47C331.86 118.83 332.43 119.36 332.84 120.04C333.26 120.72 333.47 121.55 333.47 122.51ZM331.58 122.51C331.58 121.83 331.46 121.26 331.21 120.8C330.97 120.33 330.63 119.98 330.19 119.74C329.76 119.5 329.26 119.38 328.69 119.38C328.12 119.38 327.63 119.5 327.2 119.74C326.77 119.98 326.43 120.33 326.18 120.8C325.94 121.27 325.81 121.84 325.81 122.51C325.81 123.18 325.93 123.76 326.18 124.23C326.42 124.7 326.76 125.05 327.2 125.29C327.63 125.53 328.13 125.65 328.69 125.65C329.25 125.65 329.75 125.53 330.19 125.29C330.62 125.05 330.96 124.7 331.21 124.23C331.45 123.76 331.58 123.19 331.58 122.51Z"
      fill="#353535" />
    <path d="M350.29 118.05V126.98H348.42V119.39H343.88V126.98H342.01V118.05H350.29Z" fill="#353535" />
    <path
      d="M363.4 122.51C363.4 123.47 363.19 124.3 362.78 124.98C362.36 125.66 361.8 126.19 361.08 126.55C360.36 126.91 359.55 127.1 358.64 127.1C357.73 127.1 356.92 126.92 356.2 126.55C355.48 126.19 354.91 125.66 354.5 124.98C354.08 124.3 353.87 123.47 353.87 122.51C353.87 121.55 354.08 120.73 354.5 120.04C354.92 119.36 355.49 118.83 356.2 118.47C356.92 118.11 357.73 117.92 358.64 117.92C359.55 117.92 360.36 118.1 361.08 118.47C361.8 118.83 362.37 119.36 362.78 120.04C363.2 120.72 363.4 121.55 363.4 122.51ZM361.51 122.51C361.51 121.83 361.39 121.26 361.14 120.8C360.9 120.33 360.56 119.98 360.12 119.74C359.69 119.5 359.19 119.38 358.63 119.38C358.07 119.38 357.57 119.5 357.13 119.74C356.7 119.98 356.36 120.33 356.11 120.8C355.87 121.27 355.74 121.84 355.74 122.51C355.74 123.18 355.86 123.76 356.11 124.23C356.35 124.7 356.69 125.05 357.13 125.29C357.56 125.53 358.06 125.65 358.63 125.65C359.2 125.65 359.69 125.53 360.12 125.29C360.55 125.05 360.89 124.7 361.14 124.23C361.38 123.76 361.51 123.19 361.51 122.51Z"
      fill="#353535" />
    <path
      d="M372.99 126.98L369.57 123.08H368.65V126.98H366.77V118.05H368.65V121.72H369.12L372.81 118.05H375.13L371.03 122.12L375.31 126.98H372.99Z"
      fill="#353535" />
    <path
      d="M386.96 122.51C386.96 123.47 386.75 124.3 386.33 124.98C385.91 125.66 385.35 126.19 384.63 126.55C383.91 126.91 383.1 127.1 382.19 127.1C381.28 127.1 380.47 126.92 379.75 126.55C379.03 126.19 378.46 125.66 378.05 124.98C377.63 124.3 377.42 123.47 377.42 122.51C377.42 121.55 377.63 120.73 378.05 120.04C378.47 119.36 379.03 118.83 379.75 118.47C380.47 118.11 381.28 117.92 382.19 117.92C383.1 117.92 383.91 118.1 384.63 118.47C385.35 118.83 385.92 119.36 386.33 120.04C386.75 120.72 386.96 121.55 386.96 122.51ZM385.07 122.51C385.07 121.83 384.95 121.26 384.7 120.8C384.46 120.33 384.12 119.98 383.68 119.74C383.25 119.5 382.75 119.38 382.18 119.38C381.61 119.38 381.12 119.5 380.69 119.74C380.26 119.98 379.92 120.33 379.67 120.8C379.43 121.27 379.3 121.84 379.3 122.51C379.3 123.18 379.42 123.76 379.67 124.23C379.91 124.7 380.25 125.05 380.69 125.29C381.12 125.53 381.62 125.65 382.18 125.65C382.74 125.65 383.24 125.53 383.68 125.29C384.11 125.05 384.45 124.7 384.7 124.23C384.94 123.76 385.07 123.19 385.07 122.51Z"
      fill="#353535" />
    <path
      d="M389.66 126.98V125.64H389.95C390.35 125.61 390.67 125.48 390.9 125.26C391.13 125.03 391.31 124.67 391.42 124.17C391.53 123.67 391.61 122.99 391.65 122.15L391.82 118.07H398.62V127H396.78V119.4H393.57L393.41 122.66C393.36 123.64 393.24 124.45 393.04 125.09C392.84 125.73 392.51 126.21 392.06 126.53C391.61 126.85 390.97 127 390.17 127H389.66V126.98Z"
      fill="#353535" />
    <path d="M402.26 126.98V118.05H409.01V119.41H404.14V121.83H408.66V123.19H404.14V125.62H409.05V126.98H402.26Z"
      fill="#353535" />
    <path d="M412.52 126.98V118.05H414.4V121.83H419.21V118.05H421.1V126.98H419.21V123.19H414.4V126.98H412.52Z"
      fill="#353535" />
    <path
      d="M424.73 118.05H426.59V124.14H426.69L431.57 118.05H433.26V126.98H431.38V120.9H431.29L426.4 126.98H424.73V118.05Z"
      fill="#353535" />
    <path
      d="M439.19 122.93H441.24L438.71 126.97H436.61L439.18 122.93H439.19ZM444.56 126.97H442.67V119.39H440.95C440.48 119.39 440.1 119.45 439.8 119.57C439.5 119.69 439.28 119.86 439.14 120.08C439 120.31 438.92 120.58 438.92 120.89C438.92 121.2 438.99 121.47 439.13 121.69C439.27 121.91 439.49 122.07 439.79 122.18C440.09 122.29 440.47 122.35 440.93 122.35H443.45V123.69H440.67C439.87 123.69 439.2 123.58 438.65 123.35C438.1 123.12 437.69 122.8 437.41 122.38C437.13 121.96 436.99 121.46 436.99 120.89C436.99 120.32 437.13 119.82 437.41 119.39C437.69 118.96 438.1 118.63 438.64 118.39C439.18 118.15 439.85 118.03 440.65 118.03H444.55V126.96L444.56 126.97Z"
      fill="#353535" />
    <path
      d="M165.12 37.06C162.36 19.27 148.9 4.97999 131.11 0.989992C114.06 -2.83001 96.03 4.62999 86.05 19.62C75.88 34.91 76.06 53.95 86.61 68.8C97.37 83.94 101.82 85.86 119.01 100.15C122.03 102.28 122.59 102.28 125.42 100.06C134.01 92.79 139.61 88.62 144.65 83.93L149.61 88.65L149.95 62.4L124.72 64.95L129.8 69.79C128.13 71.15 126.23 72.69 123.95 74.62C122.38 75.85 122.07 75.85 120.4 74.67C110.88 66.76 108.41 65.7 102.45 57.32C96.61 49.1 96.5 38.56 102.14 30.1C107.67 21.8 117.66 17.67 127.1 19.79C136.95 22 144.41 29.91 145.94 39.75C146.14 41.02 146.31 42.3 146.27 43.59C146.19 48.58 144.78 53.15 141.86 57.23C141.68 57.48 141.5 57.73 141.33 57.97L153.45 56.64L153.24 74.65C154.67 72.87 156.15 70.9 157.75 68.66C163.01 61.28 165.57 53.03 165.71 44C165.77 41.66 165.47 39.36 165.11 37.06"
      fill="#353535" />
  </g>
  <defs>
    <clipPath id="clip0_1_9">
      <rect width="453.2" height="127.1" fill="white" />
    </clipPath>
  </defs>
</svg>